<?xml version="1.0" encoding="utf-8"?>
<!-- Generator: Adobe Illustrator 27.1.1, SVG Export Plug-In . SVG Version: 6.00 Build 0)  -->
<svg version="1.1" id="Layer_1" xmlns="http://www.w3.org/2000/svg" xmlns:xlink="http://www.w3.org/1999/xlink" x="0px" y="0px"
	 viewBox="0 0 20.8 24" style="enable-background:new 0 0 20.8 24;" xml:space="preserve">
<style type="text/css">
	.st0{fill:#FFFFFF;}
</style>
<g>
	<path class="st0" d="M18,0H2.7C1.1,0-0.1,1.2-0.1,2.8v18.6c0,1.5,1.2,2.8,2.7,2.8H18c1.5,0,2.8-1.2,2.8-2.8V2.8
		C20.8,1.2,19.5,0,18,0z M19.3,21.3c0,0.7-0.6,1.2-1.2,1.2H2.7c-0.7,0-1.2-0.6-1.2-1.2V2.8c0-0.7,0.6-1.2,1.2-1.2H18
		c0.7,0,1.2,0.6,1.2,1.2V21.3z"/>
	<path class="st0" d="M5.5,8.4h4.8c0.4,0,0.8-0.3,0.8-0.8s-0.3-0.8-0.8-0.8H5.5c-0.4,0-0.8,0.3-0.8,0.8S5.1,8.4,5.5,8.4z"/>
	<path class="st0" d="M15.1,11H5.5c-0.4,0-0.8,0.3-0.8,0.8s0.3,0.8,0.8,0.8h9.6c0.4,0,0.8-0.3,0.8-0.8S15.6,11,15.1,11z"/>
	<path class="st0" d="M15.1,15.7H5.5c-0.4,0-0.8,0.3-0.8,0.8s0.3,0.8,0.8,0.8h9.6c0.4,0,0.8-0.3,0.8-0.8S15.6,15.7,15.1,15.7z"/>
</g>
</svg>
