<?xml version="1.0" encoding="utf-8"?>
<!-- Generator: Adobe Illustrator 16.0.0, SVG Export Plug-In . SVG Version: 6.00 Build 0)  -->
<!DOCTYPE svg PUBLIC "-//W3C//DTD SVG 1.1//EN" "http://www.w3.org/Graphics/SVG/1.1/DTD/svg11.dtd">
<svg version="1.1" id="Layer_1" xmlns="http://www.w3.org/2000/svg" xmlns:xlink="http://www.w3.org/1999/xlink" x="0px" y="0px"
	 width="128px" height="128px" viewBox="165 474 128 128" enable-background="new 165 474 128 128" xml:space="preserve">
<g>
	<path fill="#FFFFFF" d="M229,572.685c-2.68,0-4.86-1.773-4.86-3.951v-10.986c0-2.179,2.18-3.952,4.86-3.952s4.86,1.773,4.86,3.952
		v10.986C233.86,570.911,231.68,572.685,229,572.685z"/>
	<path fill="#FFFFFF" d="M262.627,523.639h-1.315v-17.234h0.007C261.318,488.536,246.82,474,229,474
		c-17.494,0-31.776,14.011-32.293,31.428h-0.024v0.957c0,0.006,0,0.013,0,0.02h0v1.329c0,2.208,1.79,3.997,3.998,3.997
		c2.208,0,3.998-1.789,3.998-3.997v-1.329h0.004c0-13.444,10.909-24.383,24.318-24.383c13.355,0,24.227,10.851,24.314,24.221h-0.003
		v17.396h-57.938c-5.375,0-9.748,4.103-9.748,9.146v60.069c0,5.044,4.373,9.146,9.748,9.146h67.253c5.375,0,9.747-4.103,9.747-9.146
		v-60.069C272.374,527.741,268.001,523.639,262.627,523.639z M264.374,592.854c0,0.531-0.747,1.125-1.747,1.125h-67.253
		c-1,0-1.748-0.594-1.748-1.125v-60.069c0-0.53,0.748-1.124,1.748-1.124h67.253c1,0,1.747,0.594,1.747,1.124V592.854z"/>
</g>
</svg>
