<?xml version="1.0" encoding="utf-8"?>
<!-- Generator: Adobe Illustrator 27.1.1, SVG Export Plug-In . SVG Version: 6.00 Build 0)  -->
<svg version="1.1" id="Layer_1" xmlns="http://www.w3.org/2000/svg" xmlns:xlink="http://www.w3.org/1999/xlink" x="0px" y="0px"
	 viewBox="0 0 23.4 29.7" style="enable-background:new 0 0 23.4 29.7;" xml:space="preserve">
<path d="M23.3,5.2c-0.1-0.5-0.4-1-0.8-1.3l-2.5-1.7l-2.6-1.8C17.1,0.1,16.7,0,16.3,0c-0.1,0-0.2,0-0.3,0c-0.5,0.1-1,0.4-1.3,0.8
	L0,21.8l0.8,7.9l7.5-2L23,6.7C23.3,6.2,23.4,5.7,23.3,5.2z M7.1,25.9l-4.6,1.2l-0.5-4.8L12.3,7.7l5.1,3.6L7.1,25.9z M18.5,9.7
	l-5.1-3.6L16.3,2l2.6,1.8l2.5,1.7L18.5,9.7z"/>
</svg>
