<?xml version="1.0" encoding="utf-8"?>
<!-- Generator: Adobe Illustrator 27.1.1, SVG Export Plug-In . SVG Version: 6.00 Build 0)  -->
<svg version="1.1" id="Layer_1" xmlns="http://www.w3.org/2000/svg" xmlns:xlink="http://www.w3.org/1999/xlink" x="0px" y="0px"
	 width="16.1px" height="18px" viewBox="0 0 16.1 18" style="enable-background:new 0 0 16.1 18;" xml:space="preserve">
<style type="text/css">
	.st0{fill:none;}
	.st1{fill:#0C4B9A;}
	.st2{fill:#FFFFFF;}
	.st3{fill:none;stroke:#FFFFFF;stroke-width:0;stroke-linecap:round;stroke-linejoin:round;}
	.st4{fill:#E20613;}
</style>
<g>
	<path class="st0" d="M10.5,9l0.1-0.3l-0.1-0.1l0.1-0.2l0.1,0l0.1-0.3l-0.8,0L10,8.6L10.5,9z M10.2,8.5C10.3,8.5,10.3,8.5,10.2,8.5
		l0.2,0l-0.1,0.1L10.2,8.5L10.2,8.5z"/>
	<path class="st0" d="M8.3,7.2L8.1,7.3C7.9,7.5,7.7,7.8,7.7,8c0,0.4,0.4,0.7,0.8,0.7C9,8.6,9.4,8.2,9.4,7.8c0-0.3-0.2-0.5-0.4-0.6
		L8.8,7.1C8.6,7,8.5,6.8,8.5,6.6C8.5,6.8,8.5,7,8.3,7.2z"/>
	<path class="st0" d="M7.8,6.8L7.8,6.8C7.4,7.2,7.1,7.6,7.1,8.1c0,0.7,0.6,1.3,1.4,1.1C9.3,9.1,10,8.4,10,7.7L9.5,7.8
		c0,0.5-0.4,1-1,1.1c-0.5,0.1-1-0.3-1-0.8c0-0.3,0.2-0.6,0.4-0.8l0.1-0.1c0.3-0.2,0.4-0.5,0.4-0.8l0-0.7C8.5,6.1,8.3,6.5,7.8,6.8z"
		/>
	<path class="st0" d="M8.5,10.1V9.5C7.6,9.6,6.9,9,6.9,8.2c0-0.5,0.3-1,0.7-1.4l0.2-0.1c0.4-0.3,0.7-0.9,0.7-1.4l0-1.2
		c0,0.8-0.4,1.6-1.1,2.1L7.3,6.2C6.6,6.7,6.2,7.5,6.2,8.3C6.2,9.5,7.2,10.3,8.5,10.1z"/>
	<polygon class="st0" points="11,7.6 10.8,7.6 10.7,7.8 10.2,7.8 10.2,8.1 10.9,8.1 	"/>
	<path class="st0" d="M9,9.3C8.8,9.4,8.7,9.6,8.7,9.8C8.8,10,9,10.1,9.3,10c0.2-0.1,0.4-0.3,0.3-0.5C9.5,9.3,9.3,9.2,9,9.3z
		 M9.2,9.8C9.1,9.8,9,9.8,9,9.7c0-0.1,0-0.2,0.1-0.2c0.1,0,0.2,0,0.2,0.1C9.3,9.7,9.3,9.7,9.2,9.8z"/>
	<path class="st0" d="M10.1,8.8c-0.1-0.1-0.3-0.1-0.4,0L9.4,9.1l0.5,0.5l0.2-0.2L10,9.3l0.1-0.1C10.2,9.1,10.2,8.9,10.1,8.8z
		 M9.9,9.1L9.9,9.1L9.8,9.1L9.9,9.1C9.8,9,9.9,9,9.9,9C9.9,9.1,9.9,9.1,9.9,9.1z"/>
	<polygon class="st1" points="3,14.1 3.6,14.1 3.3,13.3 	"/>
	<path class="st1" d="M15.6,13.5L15.6,13.5c0-0.2-0.1-0.3-0.3-0.3H15v0.6h0.3C15.5,13.8,15.6,13.7,15.6,13.5z"/>
	<path class="st1" d="M15.3,13.9H15v0.6h0.4v0c0.2,0,0.3-0.1,0.3-0.3v0C15.7,14,15.6,13.9,15.3,13.9z"/>
	<path class="st1" d="M5.1,13.6L5.1,13.6c0-0.2-0.2-0.3-0.4-0.3H4.4v0.6h0.3C4.9,13.9,5.1,13.8,5.1,13.6z"/>
	<path class="st1" d="M0,12.6v2.4h16.1v-2.4H0z M1.1,14.6H0.3v-1.5h0.1v1.4L1.1,14.6L1.1,14.6z M2.4,14.6H1.5v-1.5h0.8v0.1H1.6v0.6
		h0.6v0.1H1.6v0.6L2.4,14.6L2.4,14.6z M3.8,14.6l-0.2-0.4H3l-0.2,0.4H2.7l0.5-1.5h0.2l0.5,1.5H3.8z M5.1,14.6L4.7,14H4.4v0.7H4.3
		v-1.5h0h0.4c0.3,0,0.5,0.1,0.5,0.4v0c0,0.2-0.2,0.4-0.4,0.4l0.5,0.7H5.1z M6.7,14.6H6.6l-0.8-1.3v1.3H5.7v-1.5h0.2l0.8,1.3v-1.3
		h0.1V14.6z M7.4,14.6H7.3v-1.5h0.1V14.6z M9,14.6H8.8L8,13.3v1.3H7.9v-1.5H8l0.8,1.3v-1.3H9V14.6z M10.7,14c0,0.4-0.3,0.6-0.6,0.6
		c-0.5,0-0.7-0.3-0.7-0.7v0c0-0.4,0.3-0.7,0.7-0.7c0.3,0,0.5,0.1,0.6,0.4h-0.1c-0.1-0.2-0.2-0.3-0.5-0.3c-0.3,0-0.6,0.3-0.6,0.6v0
		c0,0.4,0.2,0.6,0.6,0.6c0.3,0,0.5-0.2,0.5-0.5v0h-0.4v-0.1L10.7,14L10.7,14z M12.9,14.6h-0.1v-0.7h-0.9v0.7h-0.1v-1.5h0h0h0.1v0.7
		h0.9v-0.7h0.1V14.6z M14.4,14.1c0,0.3-0.2,0.6-0.5,0.6c-0.3,0-0.5-0.2-0.5-0.5v-0.9h0.1v0.9c0,0.3,0.1,0.5,0.4,0.5
		c0.3,0,0.4-0.1,0.4-0.5v-0.9h0.1V14.1z M15.8,14.2c0,0.3-0.2,0.4-0.5,0.4h-0.5v-1.5h0h0.4c0.3,0,0.4,0.1,0.4,0.4v0
		c0,0.2-0.1,0.3-0.3,0.3C15.7,13.9,15.8,14,15.8,14.2L15.8,14.2z"/>
	<polygon class="st2" points="0.4,13.2 0.3,13.2 0.3,14.6 1.1,14.6 1.1,14.5 0.4,14.5 	"/>
	<polygon class="st2" points="1.6,13.9 2.2,13.9 2.2,13.8 1.6,13.8 1.6,13.3 2.4,13.3 2.4,13.2 1.5,13.2 1.5,14.6 2.4,14.6 
		2.4,14.5 1.6,14.5 	"/>
	<path class="st2" d="M3.2,13.2l-0.5,1.5h0.1L3,14.2h0.7l0.2,0.4h0.1l-0.5-1.5H3.2z M3,14.1l0.3-0.8l0.3,0.8H3z"/>
	<path class="st2" d="M5.2,13.6L5.2,13.6c0-0.3-0.2-0.4-0.5-0.4H4.3h0v1.5h0.1V14h0.3l0.5,0.7h0.1l-0.5-0.7
		C5,13.9,5.2,13.8,5.2,13.6z M4.4,13.9v-0.6h0.3c0.2,0,0.4,0.1,0.4,0.3v0c0,0.2-0.1,0.3-0.4,0.3H4.4z"/>
	<polygon class="st2" points="6.6,14.5 5.8,13.2 5.7,13.2 5.7,14.6 5.8,14.6 5.8,13.3 6.6,14.6 6.7,14.6 6.7,13.2 6.6,13.2 	"/>
	<rect x="7.3" y="13.2" class="st2" width="0.1" height="1.5"/>
	<polygon class="st2" points="8.9,14.5 8,13.2 7.9,13.2 7.9,14.6 8,14.6 8,13.3 8.8,14.6 9,14.6 9,13.2 8.9,13.2 	"/>
	<path class="st2" d="M10.2,14h0.4v0c0,0.3-0.2,0.5-0.5,0.5c-0.4,0-0.6-0.3-0.6-0.6v0c0-0.4,0.2-0.6,0.6-0.6c0.2,0,0.4,0.1,0.5,0.3
		h0.1c-0.1-0.3-0.3-0.4-0.6-0.4c-0.4,0-0.7,0.3-0.7,0.7v0c0,0.4,0.3,0.7,0.7,0.7c0.4,0,0.6-0.2,0.6-0.6v-0.1L10.2,14L10.2,14z"/>
	<line class="st3" x1="11.8" y1="13.2" x2="11.8" y2="13.2"/>
	<polygon class="st2" points="12.7,13.8 11.9,13.8 11.9,13.2 11.8,13.2 11.8,14.6 11.9,14.6 11.9,13.9 12.7,13.9 12.7,14.6 
		12.9,14.6 12.9,13.2 12.7,13.2 	"/>
	<path class="st2" d="M14.3,14.1c0,0.3-0.1,0.5-0.4,0.5c-0.3,0-0.4-0.1-0.4-0.5v-0.9h-0.1v0.9c0,0.3,0.2,0.5,0.5,0.5
		c0.4,0,0.5-0.2,0.5-0.6v-0.9h-0.1V14.1z"/>
	<path class="st2" d="M15.5,13.9c0.2,0,0.3-0.2,0.3-0.3v0c0-0.3-0.2-0.4-0.4-0.4h-0.4h0v1.5h0.5c0.3,0,0.5-0.1,0.5-0.4v0
		C15.8,14,15.7,13.9,15.5,13.9z M15,13.3h0.3c0.2,0,0.3,0.1,0.3,0.3v0c0,0.2-0.1,0.3-0.3,0.3H15V13.3z M15.7,14.2
		c0,0.2-0.1,0.3-0.3,0.3v0H15v-0.6h0.3C15.6,13.9,15.7,14,15.7,14.2L15.7,14.2z"/>
	<path class="st4" d="M10.5,8.5l-0.1,0c0,0-0.1,0-0.1,0v0l0.2,0.1L10.5,8.5z"/>
	<path class="st4" d="M9.1,9.5C9,9.5,9,9.6,9,9.7c0,0.1,0.1,0.1,0.2,0.1c0.1,0,0.1-0.1,0.1-0.2C9.3,9.5,9.2,9.5,9.1,9.5z"/>
	<path class="st4" d="M9.8,9L9.8,9l0.1,0.1L9.8,9c0.1,0.1,0.2,0,0.1,0C9.9,9,9.8,9,9.8,9z"/>
	<path class="st4" d="M3.8,12.5h3.3l1.3-1.3l2.1,1.3h1.9L11.1,9l4.4-4.8l-5.4,0.9L8.6,0L6.4,6L0.7,7l4.4,2.5L3.8,12.5z M9.3,10
		C9,10.1,8.8,10,8.7,9.8C8.7,9.6,8.8,9.4,9,9.3c0.2-0.1,0.4,0,0.5,0.2C9.6,9.7,9.5,9.9,9.3,10z M10.1,9.4L9.9,9.6L9.4,9.1l0.3-0.3
		c0.1-0.1,0.3-0.2,0.4,0c0.1,0.1,0.1,0.2,0,0.3L10,9.3L10.1,9.4z M10.2,7.8h0.5l0-0.2H11l-0.1,0.5h-0.7L10.2,7.8z M10.1,8.3l0.8,0
		l-0.1,0.3l-0.1,0l-0.1,0.2l0.1,0.1L10.5,9L10,8.6L10.1,8.3z M8.8,7.1L9,7.2c0.2,0.1,0.4,0.3,0.4,0.6c0,0.4-0.4,0.8-0.8,0.9
		C8.1,8.8,7.7,8.5,7.7,8c0-0.3,0.2-0.5,0.4-0.7l0.1-0.1C8.5,7,8.5,6.8,8.5,6.6C8.5,6.8,8.6,7,8.8,7.1z M8.1,7.1L8,7.2
		C7.7,7.4,7.5,7.7,7.5,8.1c0,0.5,0.4,0.9,1,0.8c0.5-0.1,1-0.6,1-1.1L10,7.7c0,0.7-0.6,1.4-1.4,1.6C7.8,9.4,7.1,8.9,7.1,8.1
		c0-0.5,0.3-0.9,0.7-1.3l0.1,0c0.4-0.3,0.7-0.8,0.7-1.3l0,0.7C8.5,6.6,8.4,6.9,8.1,7.1z M7.3,6.2L7.3,6.2c0.8-0.6,1.2-1.3,1.2-2.1
		l0,1.2c0,0.5-0.3,1-0.7,1.4L7.6,6.8C7.2,7.1,6.9,7.6,6.9,8.2c0,0.9,0.7,1.4,1.6,1.3v0.7c-1.3,0.2-2.4-0.7-2.4-1.9
		C6.2,7.5,6.6,6.7,7.3,6.2z"/>
	<polygon class="st4" points="1.4,18 4.3,15.3 2.6,15.3 	"/>
</g>
</svg>
