<svg id="Group_4829" data-name="Group 4829" xmlns="http://www.w3.org/2000/svg" xmlns:xlink="http://www.w3.org/1999/xlink" width="24" height="22.877" viewBox="0 0 24 22.877">
  <defs>
    <clipPath id="clip-path">
      <rect id="Rectangle_2197" data-name="Rectangle 2197" width="24" height="22.877" fill="none" stroke="#fff" stroke-width="1"/>
    </clipPath>
  </defs>
  <g id="Group_4742" data-name="Group 4742" transform="translate(0 0)" clip-path="url(#clip-path)">
    <path id="Path_20623" data-name="Path 20623" d="M.6.1H23A.5.5,0,0,1,23.4.909L15.465,10.98l.04,6.873a.5.5,0,0,1-.234.426L8.865,22.3a.5.5,0,0,1-.766-.425l.041-10.9L.207.909A.5.5,0,0,1,.6.1Zm21.374,1H1.63l7.4,9.4a.5.5,0,0,1,.107.311L9.1,20.975l5.4-3.393-.04-6.77a.5.5,0,0,1,.107-.312Z" transform="translate(0.198 0.198)" fill="#fff"/>
  </g>
</svg>
