<?xml version="1.0" encoding="utf-8"?>
<!-- Generator: Adobe Illustrator 16.0.0, SVG Export Plug-In . SVG Version: 6.00 Build 0)  -->
<!DOCTYPE svg PUBLIC "-//W3C//DTD SVG 1.1//EN" "http://www.w3.org/Graphics/SVG/1.1/DTD/svg11.dtd">
<svg version="1.1" id="Layer_1" xmlns="http://www.w3.org/2000/svg" xmlns:xlink="http://www.w3.org/1999/xlink" x="0px" y="0px"
	 width="512px" height="512px" viewBox="384 144 512 512" enable-background="new 384 144 512 512" xml:space="preserve">
<g>
	<path fill="#4ABC96" d="M477,145.168c-15.7,0-28.438,12.738-28.438,28.445V628.73c0,15.707,12.738,28.438,28.438,28.438h327.119
		c15.709,0,28.44-12.729,28.44-28.438V276.895L695.453,145.168H477z"/>
	<g>
		<path fill="#41A884" d="M832.564,276.895H723.898c-15.707,0-28.438-12.731-28.438-28.438V145.168L832.564,276.895z"/>
		<path fill="#41A884" d="M689.786,461.889c0,18.131-14.695,32.827-32.819,32.827H417.353c-18.129,0-32.82-14.695-32.82-32.827
			V361.611c0-18.131,14.69-32.818,32.82-32.818H656.96c18.124,0,32.818,14.688,32.818,32.818v100.278H689.786z"/>
	</g>
	<g>
		<g>
			<path fill="#FFFFFF" d="M456.263,388.871v34.958c0,3.036-0.133,5.613-0.393,7.736c-0.251,2.124-0.839,4.282-1.752,6.465
				c-1.518,3.668-4.02,6.532-7.51,8.583c-3.489,2.05-7.737,3.069-12.745,3.069c-4.521,0-8.288-0.713-11.312-2.137
				c-3.016-1.426-5.447-3.736-7.306-6.918c-0.972-1.698-1.764-3.657-2.364-5.872c-0.598-2.219-0.911-4.324-0.911-6.326
				c0-2.126,0.593-3.75,1.778-4.868c1.185-1.119,2.698-1.686,4.556-1.686c1.791,0,3.142,0.52,4.048,1.547
				c0.906,1.027,1.605,2.637,2.091,4.827c0.514,2.338,1.031,4.2,1.546,5.6c0.513,1.398,1.379,2.598,2.598,3.595
				c1.218,0.999,2.943,1.505,5.187,1.505c5.973,0,8.97-4.388,8.97-13.155v-36.917c0-2.73,0.598-4.779,1.806-6.146
				c1.199-1.365,2.83-2.051,4.887-2.051c2.09,0,3.755,0.686,4.981,2.051C455.65,384.09,456.263,386.14,456.263,388.871z"/>
			<path fill="#FFFFFF" d="M496.819,422.555H484.44v18.89c0,2.703-0.639,4.747-1.912,6.147c-1.271,1.397-2.883,2.09-4.826,2.09
				c-2.039,0-3.675-0.692-4.914-2.072c-1.238-1.378-1.863-3.407-1.863-6.079v-51.437c0-2.976,0.686-5.101,2.05-6.372
				c1.364-1.272,3.535-1.912,6.513-1.912h17.339c5.134,0,9.069,0.393,11.831,1.185c2.73,0.759,5.093,2.018,7.078,3.775
				c1.984,1.759,3.49,3.916,4.528,6.464c1.04,2.551,1.546,5.414,1.546,8.603c0,6.799-2.091,11.945-6.278,15.454
				C511.341,420.806,505.102,422.555,496.819,422.555z M493.543,391.967h-9.103v20.395h9.103c3.188,0,5.847-0.332,7.99-0.998
				c2.13-0.666,3.762-1.759,4.887-3.275c1.125-1.519,1.685-3.503,1.685-5.966c0-2.943-0.864-5.34-2.597-7.191
				C503.571,392.952,499.584,391.967,493.543,391.967z"/>
			<path fill="#FFFFFF" d="M657.294,421.418v12.791c0,1.698-0.167,3.056-0.501,4.075c-0.331,1.02-0.951,1.938-1.843,2.758
				c-0.893,0.817-2.038,1.609-3.437,2.364c-4.034,2.182-7.915,3.774-11.651,4.779c-3.736,1.006-7.796,1.506-12.2,1.506
				c-5.134,0-9.801-0.793-14.017-2.364c-4.216-1.572-7.817-3.869-10.786-6.873c-2.97-3.002-5.26-6.646-6.844-10.927
				c-1.601-4.282-2.393-9.054-2.393-14.337c0-5.188,0.773-9.941,2.324-14.249c1.551-4.309,3.821-7.965,6.827-10.966
				c3.002-3.003,6.657-5.299,10.965-6.898c4.307-1.599,9.195-2.391,14.656-2.391c4.495,0,8.463,0.598,11.926,1.797
				c3.463,1.2,6.266,2.708,8.423,4.528c2.156,1.818,3.774,3.749,4.867,5.78c1.092,2.03,1.638,3.842,1.638,5.414
				c0,1.696-0.632,3.148-1.885,4.349c-1.257,1.199-2.77,1.796-4.534,1.796c-0.972,0-1.903-0.225-2.804-0.685
				c-0.891-0.452-1.645-1.092-2.25-1.911c-1.672-2.61-3.082-4.582-4.235-5.918c-1.154-1.339-2.708-2.458-4.663-3.371
				c-1.963-0.913-4.454-1.364-7.49-1.364c-3.131,0-5.919,0.539-8.377,1.618c-2.457,1.078-4.56,2.637-6.304,4.688
				c-1.744,2.05-3.077,4.56-4.008,7.531c-0.927,2.976-1.386,6.265-1.386,9.873c0,7.832,1.806,13.857,5.394,18.071
				c3.603,4.216,8.616,6.326,15.048,6.326c3.13,0,6.06-0.412,8.803-1.231c2.749-0.818,5.533-1.983,8.356-3.503v-10.832h-10.467
				c-2.519,0-4.422-0.381-5.713-1.14c-1.286-0.759-1.931-2.05-1.931-3.868c0-1.485,0.539-2.716,1.618-3.688
				c1.071-0.972,2.536-1.459,4.387-1.459h15.342c1.877,0,3.47,0.166,4.78,0.5c1.311,0.331,2.357,1.077,3.17,2.23
				C656.895,417.382,657.294,419.114,657.294,421.418z"/>
		</g>
		<path fill="#FFFFFF" d="M577.563,392.549h-31.401v16.899h28.916c2.128,0,3.712,0.475,4.757,1.436
			c1.05,0.953,1.573,2.211,1.573,3.776c0,1.566-0.515,2.835-1.553,3.832c-1.028,0.982-2.629,1.475-4.784,1.475h-28.917v19.576h32.48
			c2.189,0,3.843,0.51,4.95,1.526c1.111,1.016,1.669,2.375,1.669,4.063c0,1.621-0.558,2.954-1.669,3.97
			c-1.105,1.01-2.752,1.524-4.95,1.524h-37.882c-3.036,0-5.22-0.678-6.552-2.017c-1.325-1.34-1.991-3.523-1.991-6.525v-51.74
			c0-2.005,0.295-3.638,0.892-4.902c0.597-1.265,1.53-2.191,2.788-2.768c1.277-0.576,2.89-0.864,4.86-0.864h36.796
			c2.22,0,3.868,0.494,4.96,1.476c1.071,0.988,1.612,2.279,1.612,3.871c0,1.628-0.544,2.933-1.612,3.921
			C581.435,392.054,579.779,392.549,577.563,392.549z"/>
	</g>
</g>
</svg>
