<svg xmlns="http://www.w3.org/2000/svg" xmlns:xlink="http://www.w3.org/1999/xlink" width="407.462" height="496.651" viewBox="0 0 407.462 496.651">
  <defs>
    <clipPath id="clip-path">
      <rect id="Rectangle_2390" data-name="Rectangle 2390" width="407.462" height="496.651" fill="none"/>
    </clipPath>
  </defs>
  <g id="Group_4955" data-name="Group 4955" transform="translate(0 0)">
    <path id="Path_20657" data-name="Path 20657" d="M217.254,0,155.142,164.139,0,191.747l119.66,70.78L18.805,496.651,212.668,308.709l127.918,80.229L287.611,247.993l119.85-130.97L258.017,142.695Z" transform="translate(0)" fill="#e50019"/>
    <g id="Group_4954" data-name="Group 4954" transform="translate(0 0)">
      <g id="Group_4953" data-name="Group 4953" clip-path="url(#clip-path)">
        <path id="Path_20658" data-name="Path 20658" d="M131.718,126.8l-4.014,3.51c-6.006,4.75-10.654,11.986-10.622,19.393.061,11.847,10.035,19.973,22.537,18.1s22.387-12.96,22.327-24.81c-.036-7.407-4.746-13.239-10.787-16.194l-3.888-2.326c-5.085-2.566-7.793-8.352-7.82-15.44l-.076.012c.035,7.091-2.609,13.674-7.656,17.754" transform="translate(76.483 71.224)" fill="#fff"/>
        <path id="Path_20659" data-name="Path 20659" d="M156.335,235l-.091-18.979c-24.718,3.69-44.828-12.287-44.94-35.694-.074-14.63,7.686-28.689,19.55-38.092l5.267-3.918c11.855-9.394,19.627-23.461,19.556-38.091L155.288,67.5c.116,22.233-12.28,43.566-30.936,57.141l-2.417,1.713c-18.52,13.573-30.795,34.827-30.688,56.967.17,33.9,29.3,57.029,65.087,51.675" transform="translate(59.607 44.096)" fill="#fff"/>
        <path id="Path_20660" data-name="Path 20660" d="M126.768,127.341l-1.466,1.035c-11.211,8.215-18.642,21.09-18.579,34.492.1,20.517,17.738,34.518,39.387,31.283h.007c21.662-3.245,39.137-22.494,39.036-43.011L173,152.958c.073,14.163-11.988,27.455-26.943,29.7s-27.126-7.433-27.2-21.6c-.046-8.858,4.649-17.374,11.824-23.058l3.2-2.371c7.183-5.687,11.877-14.206,11.834-23.059l-.231-19.811c.066,13.459-7.433,26.381-18.72,34.589" transform="translate(69.715 60.59)" fill="#fff"/>
        <path id="Path_20661" data-name="Path 20661" d="M142.225,155.221c-6.046,2.587-9.8,8.374-7.934,14.043,1.883,5.775,7.954,7.14,14.033,4.545s9.872-8.151,7.98-13.943c-1.858-5.657-8.026-7.223-14.079-4.644m4.241,12.9c-2.191.934-4.2.185-4.857-1.875a4.149,4.149,0,0,1,2.559-5.1c2.3-.977,4.247.01,4.877,1.931a4.064,4.064,0,0,1-2.579,5.046" transform="translate(87.41 100.61)" fill="#fff"/>
        <path id="Path_20662" data-name="Path 20662" d="M163.822,147.671c-3.348-3.219-7.689-2.174-11.366,1.349l-7.259,6.942,13.5,13,5.509-5.272-4.052-3.92,2.918-2.807c3.221-3.054,3.508-6.638.749-9.291m-6.5,8.284-.577.542-2.348-2.263.559-.521c.936-.9,2.156-1.972,3.234-.956,1.068,1.07.134,2.235-.868,3.2" transform="translate(94.849 95.203)" fill="#fff"/>
        <path id="Path_20663" data-name="Path 20663" d="M173.871,126.307l-.914,6.079-13.968.081-1.091,7.241,20.55-.127,2.012-13.309Z" transform="translate(103.145 82.487)" fill="#fff"/>
        <path id="Path_20664" data-name="Path 20664" d="M154.047,145.349l14.7,13.385,3.867-7.2-1.987-1.4,2.751-5.123,2.6.231,3.875-7.185-21.773-.215Zm8.175-1.648c.843.169,1.7.349,2.582.44l3.624.417-1.463,2.733-4.879-3.341Z" transform="translate(100.63 90.045)" fill="#fff"/>
        <path id="Path_20665" data-name="Path 20665" d="M139.45,109.031c.028,7.089,2.734,12.874,7.82,15.44l3.888,2.328c6.041,2.951,10.751,8.787,10.787,16.192.061,11.85-9.82,22.942-22.327,24.812s-22.476-6.256-22.535-18.1c-.033-7.4,4.616-14.641,10.622-19.393l4.012-3.508c5.047-4.084,7.693-10.665,7.656-17.756Z" transform="translate(76.484 71.224)" fill="#fff"/>
        <path id="Path_20666" data-name="Path 20666" d="M133.885,135.622l-3.2,2.371c-7.173,5.686-11.869,14.2-11.824,23.058.074,14.173,12.244,23.84,27.2,21.6s27.016-15.532,26.943-29.7l12.15-1.817c.1,20.515-17.376,39.764-39.038,43.009h0c-21.651,3.235-39.288-10.764-39.389-31.283-.063-13.4,7.369-26.277,18.581-34.49l1.465-1.037c11.287-8.208,18.787-21.13,18.721-34.589l.23,19.811c.045,8.853-4.649,17.372-11.834,23.059" transform="translate(69.715 60.59)" fill="#fff"/>
        <path id="Path_20667" data-name="Path 20667" d="M121.936,126.357l2.417-1.713c18.655-13.576,31.05-34.908,30.935-57.141l.387,32.723c.071,14.628-7.7,28.7-19.555,38.091l-5.267,3.918c-11.864,9.4-19.626,23.461-19.551,38.092.114,23.407,20.224,39.384,44.942,35.692L156.335,235c-35.783,5.353-64.916-17.779-65.087-51.675-.107-22.14,12.168-43.394,30.688-56.967" transform="translate(59.607 44.096)" fill="#fff"/>
      </g>
    </g>
  </g>
</svg>
