<?xml version="1.0" encoding="utf-8"?>
<!-- Generator: Adobe Illustrator 16.0.0, SVG Export Plug-In . SVG Version: 6.00 Build 0)  -->
<!DOCTYPE svg PUBLIC "-//W3C//DTD SVG 1.1//EN" "http://www.w3.org/Graphics/SVG/1.1/DTD/svg11.dtd">
<svg version="1.1" id="Layer_1" xmlns="http://www.w3.org/2000/svg" xmlns:xlink="http://www.w3.org/1999/xlink" x="0px" y="0px"
	 width="80.56px" height="90px" viewBox="9.72 55 80.56 90" enable-background="new 9.72 55 80.56 90" xml:space="preserve">
<g>
	<rect x="9.72" y="118.16" fill="#0056A7" width="80.56" height="12.24"/>
	<g>
		<path fill="#FFFFFF" d="M11.29,120.8h0.57v6.83H15.4v0.47h-4.11V120.8z"/>
		<path fill="#FFFFFF" d="M17.36,120.8h4.2v0.47h-3.63v2.851h2.94v0.47h-2.94v3.04h3.81v0.47h-4.38V120.8z"/>
		<path fill="#FFFFFF" d="M25.86,120.8h0.76l2.62,7.3h-0.57l-0.81-2.24h-3.29l-0.8,2.24h-0.54L25.86,120.8z M24.74,125.4h2.96
			l-1.48-4.131L24.74,125.4z"/>
		<path fill="#FFFFFF" d="M31.17,120.8h2c1.42,0,2.48,0.55,2.48,1.96v0.04c0,1.21-0.8,1.78-1.89,1.93l2.32,3.37h-0.63l-2.29-3.33
			h-1.42v3.33h-0.57V120.8L31.17,120.8z M33.2,124.31c1.17,0,1.88-0.45,1.88-1.51v-0.04c0-1.12-0.75-1.49-1.88-1.49h-1.46v3.04H33.2
			z"/>
		<path fill="#FFFFFF" d="M38.01,120.8h0.78l4.08,6.511V120.8h0.54v7.3h-0.67l-4.18-6.669v6.669h-0.55V120.8z"/>
		<path fill="#FFFFFF" d="M45.99,120.8h0.57v7.3h-0.57V120.8z"/>
		<path fill="#FFFFFF" d="M49.15,120.8h0.78l4.08,6.511V120.8h0.541v7.3H53.88l-4.18-6.669v6.669h-0.55V120.8z"/>
		<path fill="#FFFFFF" d="M56.68,124.49v-0.08c0-2.13,1.48-3.71,3.479-3.71c1.4,0,2.651,0.649,2.931,2.17h-0.57
			c-0.27-1.2-1.18-1.711-2.35-1.711c-1.76,0-2.91,1.341-2.91,3.241v0.079c0,1.94,1.04,3.23,2.92,3.23c1.7,0,2.561-1.05,2.581-2.649
			v-0.041H60.52v-0.479h2.801v0.419c0,2.101-1.26,3.23-3.131,3.23C57.99,128.181,56.68,126.64,56.68,124.49z"/>
		<path fill="#FFFFFF" d="M68.59,120.8h0.57v3.399h4.3V120.8h0.569v7.3H73.46v-3.42h-4.3v3.42h-0.57V120.8z"/>
		<path fill="#FFFFFF" d="M76.46,125.489V120.8h0.56v4.621c0,1.559,0.7,2.27,2.061,2.27c1.399,0,2.1-0.671,2.1-2.4v-4.49h0.57v4.57
			c0,1.75-0.87,2.8-2.68,2.8C77.43,128.17,76.46,127.229,76.46,125.489z"/>
		<path fill="#FFFFFF" d="M84.18,120.8h2.07c1.29,0,2.221,0.521,2.221,1.85v0.041c0,0.81-0.432,1.359-1.251,1.58
			c1.09,0.199,1.6,0.79,1.6,1.779v0.04c0,1.34-0.879,2.01-2.27,2.01h-2.38v-7.3H84.18z M86.26,124.09c1.11,0,1.641-0.49,1.641-1.41
			v-0.039c0-0.951-0.591-1.38-1.661-1.38H84.74v2.829H86.26z M86.54,127.641c1.14,0,1.729-0.541,1.729-1.551v-0.04
			c0-1-0.64-1.51-1.92-1.51H84.74v3.1L86.54,127.641L86.54,127.641z"/>
	</g>
	<g>
		<polygon fill="none" points="64.749,92.93 63.551,92.94 63.381,94.04 60.851,94.06 60.65,95.37 64.38,95.35 		"/>
		<path fill="none" d="M62.159,100.2l0.7-1.31L62.5,98.64l0.5-0.93l0.47,0.04l0.7-1.3l-3.95-0.04l-0.729,1.36L62.159,100.2z
			 M60.979,97.47c0.151,0.03,0.31,0.061,0.471,0.081l0.66,0.08l-0.271,0.5l-0.891-0.61L60.979,97.47z"/>
		<path fill="none" d="M51.05,90.98l-0.73,0.64c-1.09,0.86-1.939,2.18-1.93,3.52c0.01,2.15,1.82,3.63,4.089,3.29
			c2.271-0.34,4.07-2.35,4.061-4.51c-0.011-1.34-0.86-2.4-1.96-2.94l-0.71-0.42c-0.92-0.47-1.42-1.52-1.42-2.8h-0.01
			C52.45,89.04,51.97,90.24,51.05,90.98z"/>
		<polygon fill="none" points="45.16,117.529 62.329,117.529 51.859,111.05 		"/>
		<path fill="none" d="M54.94,101.479c-1.101,0.47-1.781,1.521-1.44,2.55c0.34,1.051,1.44,1.301,2.55,0.831
			c1.1-0.471,1.791-1.48,1.451-2.53C57.16,101.3,56.04,101.01,54.94,101.479z M55.71,103.82c-0.399,0.17-0.76,0.03-0.88-0.34
			c-0.109-0.351,0.05-0.751,0.47-0.93c0.42-0.181,0.771,0,0.89,0.349C56.31,103.28,56.109,103.66,55.71,103.82z"/>
		<path fill="none" d="M60.22,99.13c-0.609-0.58-1.399-0.39-2.06,0.24l-1.32,1.26l2.449,2.359l1.001-0.96l-0.74-0.709l0.529-0.51
			C60.67,100.26,60.72,99.61,60.22,99.13z M59.04,100.63l-0.1,0.101l-0.431-0.41l0.1-0.09c0.17-0.16,0.391-0.36,0.591-0.17
			C59.391,100.25,59.221,100.459,59.04,100.63z"/>
		<path fill="none" d="M52.46,105.71l-0.02-3.45c-4.49,0.67-8.141-2.23-8.16-6.479c-0.01-2.66,1.4-5.21,3.55-6.92l0.96-0.71
			c2.15-1.709,3.56-4.26,3.55-6.92l-0.069-5.94c0.02,4.04-2.23,7.91-5.62,10.38l-0.44,0.31c-3.36,2.47-5.59,6.33-5.57,10.35
			C40.67,102.479,45.96,106.68,52.46,105.71z"/>
		<path fill="none" d="M48.92,89.15l-0.27,0.19c-2.04,1.49-3.39,3.83-3.37,6.26c0.02,3.73,3.22,6.27,7.149,5.68l0,0l0,0
			c3.93-0.59,7.11-4.09,7.091-7.811l-2.201,0.33c0.011,2.57-2.179,4.99-4.89,5.39c-2.72,0.41-4.93-1.35-4.94-3.92
			c-0.01-1.61,0.84-3.16,2.15-4.19l0.58-0.43c1.3-1.03,2.16-2.58,2.149-4.189l-0.039-3.6C52.34,85.31,50.97,87.66,48.92,89.15z"/>
		<path fill="#ED1C24" d="M62.1,97.63l-0.659-0.08c-0.16-0.02-0.321-0.05-0.471-0.081l-0.021,0.05l0.891,0.61L62.1,97.63z"/>
		<path fill="#ED1C24" d="M55.3,102.56c-0.409,0.181-0.579,0.581-0.47,0.931c0.12,0.369,0.48,0.51,0.88,0.34s0.59-0.54,0.471-0.92
			C56.07,102.56,55.71,102.38,55.3,102.56z"/>
		<path fill="#ED1C24" d="M58.609,100.23l-0.1,0.09l0.431,0.41l0.1-0.101c0.181-0.17,0.351-0.39,0.16-0.58
			C59,99.87,58.779,100.06,58.609,100.23z"/>
		<path fill="#ED1C24" d="M51.859,111.05l10.47,6.49h9.721l-6.55-17.47l21.761-23.84l-27.182,4.72L52.52,55L41.64,84.89l-28.42,4.96
			l21.8,12.69l-6.42,14.989h16.56L51.859,111.05z M56.05,104.86c-1.1,0.47-2.21,0.22-2.55-0.831c-0.341-1.028,0.34-2.08,1.44-2.55
			c1.1-0.47,2.22-0.18,2.561,0.841C57.85,103.38,57.16,104.39,56.05,104.86z M60.29,102.04l-1.001,0.961l-2.449-2.36l1.32-1.261
			c0.67-0.64,1.46-0.83,2.06-0.24c0.5,0.48,0.45,1.13-0.141,1.69l-0.529,0.511L60.29,102.04z M60.851,94.06l2.539-0.01l0.17-1.1
			l1.201-0.01l-0.371,2.42l-3.729,0.02L60.851,94.06z M60.23,96.41l3.949,0.04l-0.7,1.3l-0.47-0.04l-0.499,0.93l0.359,0.25
			l-0.699,1.31L59.5,97.77L60.23,96.41z M52.46,87.75c0,1.29,0.5,2.34,1.42,2.8l0.71,0.42c1.1,0.54,1.95,1.6,1.96,2.94
			c0.01,2.15-1.78,4.17-4.06,4.51c-2.271,0.34-4.08-1.14-4.09-3.29c-0.01-1.34,0.84-2.66,1.93-3.52l0.73-0.64
			c0.92-0.74,1.399-1.94,1.39-3.22H52.46z M50.22,90.65l-0.58,0.43c-1.3,1.03-2.16,2.58-2.15,4.19c0.01,2.57,2.22,4.33,4.94,3.92
			c2.72-0.41,4.91-2.82,4.89-5.39l2.211-0.33c0.02,3.73-3.16,7.221-7.09,7.811l0,0l0,0c-3.931,0.59-7.14-1.96-7.15-5.68
			c-0.01-2.43,1.34-4.77,3.37-6.26l0.271-0.19c2.05-1.49,3.41-3.84,3.4-6.28l0.039,3.6C52.369,88.07,51.52,89.62,50.22,90.65z
			 M46.21,85.97l0.44-0.31c3.39-2.47,5.64-6.34,5.62-10.38l0.069,5.939c0.01,2.661-1.399,5.21-3.55,6.92l-0.96,0.71
			c-2.15,1.71-3.56,4.26-3.55,6.92c0.02,4.25,3.67,7.15,8.16,6.48l0.02,3.45c-6.5,0.97-11.79-3.229-11.82-9.39
			C40.62,92.3,42.85,88.44,46.21,85.97z"/>
		<polygon fill="#ED1C24" points="16.82,145 30.99,131.271 22.71,131.271 		"/>
	</g>
</g>
</svg>
