<?xml version="1.0" encoding="utf-8"?>
<!-- Generator: Adobe Illustrator 16.0.0, SVG Export Plug-In . SVG Version: 6.00 Build 0)  -->
<!DOCTYPE svg PUBLIC "-//W3C//DTD SVG 1.1//EN" "http://www.w3.org/Graphics/SVG/1.1/DTD/svg11.dtd">
<svg version="1.1" id="Layer_1" xmlns="http://www.w3.org/2000/svg" xmlns:xlink="http://www.w3.org/1999/xlink" x="0px" y="0px"
	 width="512px" height="512px" viewBox="0 0 512 512" enable-background="new 0 0 512 512" xml:space="preserve">
<path fill="#49A0AE" d="M104.306,0.735c-15.701,0-28.439,12.738-28.439,28.445v455.117c0,15.708,12.738,28.438,28.439,28.438h327.12
	c15.709,0,28.439-12.73,28.439-28.438V132.461L322.759,0.735H104.306z"/>
<g>
	<path fill="#3F929A" d="M459.87,132.468H351.203c-15.708,0-28.438-12.731-28.438-28.439V0.735L459.87,132.468z"/>
	<path fill="#3F929A" d="M317.087,317.462c0,18.132-14.696,32.828-32.819,32.828H44.66c-18.132,0-32.819-14.696-32.819-32.828
		V217.185c0-18.131,14.689-32.818,32.819-32.818h239.608c18.123,0,32.819,14.69,32.819,32.818V317.462z"/>
</g>
<g>
	<path fill="#FFFFFF" d="M92.562,278.123H80.183v18.89c0,2.703-0.64,4.747-1.91,6.146c-1.272,1.399-2.883,2.09-4.828,2.09
		c-2.037,0-3.675-0.691-4.914-2.07c-1.24-1.379-1.865-3.408-1.865-6.079V245.67c0-2.977,0.687-5.102,2.051-6.372
		c1.366-1.272,3.537-1.911,6.512-1.911h17.339c5.134,0,9.068,0.394,11.832,1.186c2.73,0.759,5.094,2.018,7.078,3.775
		s3.49,3.915,4.528,6.465c1.038,2.55,1.545,5.413,1.545,8.603c0,6.799-2.09,11.947-6.278,15.455
		C107.083,276.38,100.845,278.123,92.562,278.123z M89.278,247.535h-9.102v20.395h9.102c3.189,0,5.846-0.333,7.99-0.999
		c2.13-0.666,3.762-1.758,4.887-3.276c1.126-1.519,1.685-3.502,1.685-5.967c0-2.943-0.866-5.34-2.596-7.192
		C99.306,248.52,95.323,247.535,89.278,247.535z"/>
	<path fill="#FFFFFF" d="M146.448,244.351l25.989,39.325v-39.692c0-2.576,0.552-4.514,1.665-5.806
		c1.105-1.291,2.603-1.937,4.481-1.937c1.944,0,3.468,0.646,4.593,1.937c1.125,1.291,1.685,3.223,1.685,5.806v52.482
		c0,5.853-2.423,8.783-7.285,8.783c-1.217,0-2.312-0.174-3.276-0.526c-0.964-0.352-1.878-0.905-2.729-1.665
		c-0.854-0.759-1.639-1.646-2.365-2.663c-0.726-1.019-1.458-2.06-2.185-3.116l-25.355-38.873v39.1c0,2.548-0.593,4.474-1.777,5.778
		c-1.186,1.307-2.697,1.958-4.554,1.958c-1.911,0-3.45-0.658-4.594-1.979c-1.146-1.317-1.731-3.235-1.731-5.761v-51.478
		c0-2.185,0.24-3.895,0.726-5.14c0.579-1.366,1.531-2.484,2.871-3.342c1.339-0.858,2.776-1.298,4.321-1.298
		c1.218,0,2.25,0.2,3.124,0.593c0.858,0.394,1.618,0.926,2.277,1.592c0.652,0.666,1.313,1.531,2.005,2.596
		C145.009,242.088,145.722,243.193,146.448,244.351z"/>
	<path fill="#FFFFFF" d="M260.608,276.986v12.791c0,1.699-0.165,3.055-0.498,4.075c-0.333,1.018-0.952,1.938-1.845,2.755
		c-0.893,0.82-2.037,1.612-3.437,2.365c-4.035,2.186-7.917,3.775-11.652,4.78c-3.736,1.007-7.797,1.506-12.199,1.506
		c-5.133,0-9.802-0.792-14.017-2.365s-7.817-3.87-10.787-6.871c-2.97-3.004-5.26-6.644-6.844-10.926
		c-1.598-4.282-2.39-9.057-2.39-14.336c0-5.187,0.773-9.941,2.323-14.251c1.551-4.308,3.823-7.964,6.826-10.965
		c3.003-3.004,6.659-5.301,10.966-6.898c4.309-1.599,9.194-2.391,14.656-2.391c4.494,0,8.463,0.6,11.926,1.798
		c3.463,1.198,6.266,2.71,8.424,4.528c2.158,1.817,3.775,3.748,4.868,5.779c1.092,2.032,1.639,3.842,1.639,5.413
		c0,1.699-0.633,3.15-1.884,4.348c-1.259,1.198-2.771,1.798-4.536,1.798c-0.972,0-1.905-0.227-2.802-0.685
		c-0.893-0.452-1.646-1.093-2.251-1.911c-1.671-2.61-3.082-4.582-4.234-5.918c-1.152-1.339-2.709-2.458-4.662-3.369
		c-1.964-0.912-4.455-1.366-7.49-1.366c-3.13,0-5.919,0.54-8.376,1.618c-2.458,1.079-4.562,2.637-6.305,4.688
		c-1.745,2.052-3.076,4.563-4.008,7.53c-0.926,2.978-1.386,6.267-1.386,9.875c0,7.83,1.804,13.856,5.394,18.071
		c3.602,4.214,8.617,6.326,15.048,6.326c3.13,0,6.059-0.413,8.803-1.232c2.749-0.82,5.534-1.983,8.356-3.503v-10.833h-10.468
		c-2.518,0-4.421-0.379-5.714-1.137c-1.285-0.758-1.93-2.051-1.93-3.869c0-1.486,0.54-2.718,1.619-3.689
		c1.071-0.972,2.537-1.458,4.387-1.458h15.341c1.878,0,3.468,0.164,4.781,0.499c1.312,0.331,2.357,1.077,3.169,2.229
		C260.202,272.95,260.608,274.681,260.608,276.986z"/>
</g>
</svg>
