<svg xmlns="http://www.w3.org/2000/svg" width="24" height="24" viewBox="0 0 24 24">
  <g id="Group_4832" data-name="Group 4832" transform="translate(20125 104)">
    <path id="Ellipse_574" data-name="Ellipse 574" d="M12,1A11,11,0,0,0,4.222,19.778,11,11,0,0,0,19.778,4.222,10.928,10.928,0,0,0,12,1m0-1A12,12,0,1,1,0,12,12,12,0,0,1,12,0Z" transform="translate(-20125 -104)" fill="#a5a5a5"/>
    <g id="Group_4830" data-name="Group 4830" transform="translate(0.374 -0.597)">
      <g id="Group_3027" data-name="Group 3027" transform="translate(-20115.779 -95.403)">
        <path id="Line_124" data-name="Line 124" d="M-.6,5.622a.4.4,0,0,1-.4-.4V-.6A.4.4,0,0,1-.6-1a.4.4,0,0,1,.4.4V5.225A.4.4,0,0,1-.6,5.622Z" transform="translate(3.265 1.165)" fill="#a5a5a5"/>
        <path id="Path_16883" data-name="Path 16883" d="M3.344,3.766h0a.4.4,0,0,1-.394-.4L2.967.8.4.82a.4.4,0,1,1-.007-.8L3.365,0a.4.4,0,0,1,.4.4L3.741,3.372A.4.4,0,0,1,3.344,3.766Z" transform="translate(0 2.663) rotate(-45)" fill="#a5a5a5"/>
      </g>
      <path id="Path_16884" data-name="Path 16884" d="M1.843,8.374H.4a.4.4,0,1,1,0-.8H1.445V.8H.4A.4.4,0,1,1,.4,0H1.843a.4.4,0,0,1,.4.4V7.976A.4.4,0,0,1,1.843,8.374Z" transform="translate(-20109 -89.411) rotate(90)" fill="#a5a5a5"/>
    </g>
  </g>
</svg>
