<?xml version="1.0" encoding="utf-8"?>
<!-- Generator: Adobe Illustrator 27.1.1, SVG Export Plug-In . SVG Version: 6.00 Build 0)  -->
<svg version="1.1" id="Layer_1" xmlns="http://www.w3.org/2000/svg" xmlns:xlink="http://www.w3.org/1999/xlink" x="0px" y="0px"
	 viewBox="0 0 21.5 18.1" style="enable-background:new 0 0 21.5 18.1;" xml:space="preserve">
<style type="text/css">
	.st0{fill:#FFFFFF;}
</style>
<g>
	<path class="st0" d="M20.8,10.9c-0.4,0-0.8,0.3-0.8,0.8v4.8H1.5v-4.8c0-0.4-0.3-0.8-0.8-0.8S0,11.2,0,11.6v5.6
		C0,17.6,0.3,18,0.8,18h20c0.4,0,0.8-0.3,0.8-0.8v-5.6C21.5,11.2,21.2,10.9,20.8,10.9z"/>
	<path class="st0" d="M6.6,5.9c0.2,0,0.4-0.1,0.5-0.2l3-3v10c0,0.4,0.3,0.8,0.8,0.8s0.8-0.3,0.8-0.8v-10l3,3
		c0.1,0.1,0.3,0.2,0.5,0.2s0.4-0.1,0.5-0.2c0.3-0.3,0.3-0.8,0-1.1l-4.2-4.2c-0.1-0.1-0.2-0.1-0.2-0.2c-0.1,0-0.2-0.1-0.3-0.1
		c-0.1,0-0.2,0-0.3,0.1c-0.1,0-0.1,0.1-0.2,0.1c0,0,0,0-0.1,0c0,0,0,0,0,0L6,4.6C5.8,4.9,5.8,5.4,6,5.7C6.2,5.8,6.4,5.9,6.6,5.9z"/>
</g>
</svg>
