<?xml version="1.0" encoding="utf-8"?>
<!-- Generator: Adobe Illustrator 27.1.1, SVG Export Plug-In . SVG Version: 6.00 Build 0)  -->
<svg version="1.1" id="Group_5399" xmlns="http://www.w3.org/2000/svg" xmlns:xlink="http://www.w3.org/1999/xlink" x="0px" y="0px"
	 viewBox="0 0 20.8 24" style="enable-background:new 0 0 20.8 24;" xml:space="preserve">
<style type="text/css">
	.st0{fill:none;}
	.st1{fill:#FFFFFF;}
</style>
<rect class="st0" width="20.8" height="24"/>
<g>
	<path class="st1" d="M19.7,1c-0.7-0.7-1.6-1-2.5-1c0,0,0,0,0,0H3.5C2.5,0,1.6,0.4,1,1c-0.7,0.7-1,1.6-1,2.5v16.9
		c0,2,1.6,3.6,3.6,3.6H13c0.4,0,0.8-0.3,0.8-0.8s-0.3-0.8-0.8-0.8H3.5c-1.1,0-2.1-0.9-2.1-2.1V3.6C1.4,3,1.6,2.5,2,2.1
		s0.9-0.6,1.5-0.6h13.7c0,0,0,0,0,0c0.6,0,1.1,0.2,1.5,0.6c0.4,0.4,0.6,0.9,0.6,1.5v11.3c0,0.4,0.3,0.8,0.8,0.8s0.8-0.3,0.8-0.8V3.6
		C20.8,2.6,20.4,1.7,19.7,1z"/>
	<path class="st1" d="M14.6,15.7c0.9-1,1.4-2.3,1.4-3.7c0-3.1-2.5-5.6-5.6-5.6c-3.1,0-5.6,2.5-5.6,5.6c0,1.5,0.6,2.9,1.6,4
		c1.1,1.1,2.5,1.7,4,1.7c1.2,0,2.2-0.3,3.1-0.9l5.1,5.9c0.1,0.2,0.4,0.3,0.6,0.3c0.2,0,0.3-0.1,0.5-0.2c0.3-0.3,0.3-0.7,0.1-1.1
		L14.6,15.7z M7.4,15c-0.8-0.8-1.2-1.8-1.2-2.9c0-2.3,1.9-4.1,4.1-4.1c2.3,0,4.1,1.9,4.1,4.1c0,2.3-1.9,4.1-4.1,4.1
		C9.2,16.2,8.2,15.7,7.4,15z"/>
</g>
</svg>
