<?xml version="1.0" encoding="utf-8"?>
<!-- Generator: Adobe Illustrator 27.1.1, SVG Export Plug-In . SVG Version: 6.00 Build 0)  -->
<svg version="1.1" id="Layer_1" xmlns="http://www.w3.org/2000/svg" xmlns:xlink="http://www.w3.org/1999/xlink" x="0px" y="0px"
	 viewBox="0 0 20 24" style="enable-background:new 0 0 20 24;" xml:space="preserve">
<style type="text/css">
	.st0{fill:#FFFFFF;}
</style>
<g id="Group_3202" transform="translate(0 0)">
	<path id="Path_17269" class="st0" d="M18.2,8.3h-0.6c0-0.2,0-0.4,0-0.6C17.7,3.4,14.2,0,10,0S2.3,3.4,2.3,7.7c0,0,0,0,0,0
		c0,0.2,0,0.4,0,0.6H1.8C0.8,8.3,0,9.1,0,10v12.2c0,1,0.8,1.7,1.8,1.8h16.5c1,0,1.7-0.8,1.8-1.8V10C20,9.1,19.2,8.3,18.2,8.3
		 M10,1.5c3.4,0,6.2,2.8,6.2,6.2s-2.8,6.2-6.2,6.2c-3.4,0-6.2-2.8-6.2-6.2c0,0,0,0,0,0C3.8,4.3,6.6,1.5,10,1.5 M1.8,9.8h0.9
		c1.2,4.1,5.4,6.4,9.5,5.3c2.5-0.7,4.5-2.7,5.3-5.3h0.9c0.1,0,0.2,0.1,0.2,0.2v8h-17v-8C1.5,9.9,1.6,9.8,1.8,9.8 M18.2,22.5H1.8
		c-0.1,0-0.2-0.1-0.2-0.2v-2.8h17v2.8C18.5,22.4,18.4,22.5,18.2,22.5"/>
	<path id="Path_17270" class="st0" d="M8.5,10c0.2,0.2,0.6,0.2,0.8,0c0,0,0,0,0,0l3.7-3.7c0.2-0.2,0.3-0.6,0-0.8
		c-0.2-0.2-0.6-0.3-0.8,0c0,0,0,0,0,0L8.9,8.7L7.8,7.6c-0.2-0.2-0.6-0.3-0.8,0s-0.3,0.6,0,0.8c0,0,0,0,0,0L8.5,10z"/>
</g>
</svg>
