<?xml version="1.0" encoding="utf-8"?>
<!-- Generator: Adobe Illustrator 27.1.1, SVG Export Plug-In . SVG Version: 6.00 Build 0)  -->
<svg version="1.1" id="Layer_1" xmlns="http://www.w3.org/2000/svg" xmlns:xlink="http://www.w3.org/1999/xlink" x="0px" y="0px"
	 viewBox="0 0 20 24" style="enable-background:new 0 0 20 24;" xml:space="preserve">
<style type="text/css">
	.st0{fill:#FFFFFF;}
</style>
<g>
	<path class="st0" d="M18.3,2.5h-3V0.8c0-0.4-0.3-0.8-0.8-0.8H5.5C5.1,0,4.7,0.3,4.7,0.8v1.8h-3C0.8,2.5,0,3.3,0,4.3v17.9
		c0,1,0.8,1.8,1.8,1.8h16.5c1,0,1.8-0.8,1.8-1.8V4.3C20,3.3,19.2,2.5,18.3,2.5z M6.2,1.5h7.6v2.9H6.2V1.5z M18.5,22.2
		c0,0.1-0.1,0.2-0.2,0.2H1.8c-0.1,0-0.2-0.1-0.2-0.2V4.3c0-0.1,0.1-0.2,0.2-0.2h3v1.1c0,0.4,0.3,0.8,0.8,0.8h9.1
		c0.4,0,0.8-0.3,0.8-0.8V4.1h3c0.1,0,0.2,0.1,0.2,0.2V22.2z"/>
	<path class="st0" d="M5.2,11h4.5c0.4,0,0.8-0.3,0.8-0.8s-0.3-0.8-0.8-0.8H5.2c-0.4,0-0.8,0.3-0.8,0.8S4.8,11,5.2,11z"/>
	<path class="st0" d="M14.8,13.5H5.2c-0.4,0-0.8,0.3-0.8,0.8S4.8,15,5.2,15h9.6c0.4,0,0.8-0.3,0.8-0.8S15.2,13.5,14.8,13.5z"/>
	<path class="st0" d="M14.8,17.5H5.2c-0.4,0-0.8,0.3-0.8,0.8S4.8,19,5.2,19h9.6c0.4,0,0.8-0.3,0.8-0.8S15.2,17.5,14.8,17.5z"/>
</g>
</svg>
