<?xml version="1.0" encoding="utf-8"?>
<!-- Generator: Adobe Illustrator 16.0.0, SVG Export Plug-In . SVG Version: 6.00 Build 0)  -->
<!DOCTYPE svg PUBLIC "-//W3C//DTD SVG 1.1//EN" "http://www.w3.org/Graphics/SVG/1.1/DTD/svg11.dtd">
<svg version="1.1" id="OBJECTS" xmlns="http://www.w3.org/2000/svg" xmlns:xlink="http://www.w3.org/1999/xlink" x="0px" y="0px"
	 width="512px" height="512px" viewBox="0 0 512 512" enable-background="new 0 0 512 512" xml:space="preserve">
<g>
	<g>
		<g>
			<circle id="SVGID_9_" fill="#EBF5F6" cx="256" cy="256" r="256"/>
		</g>
	</g>
</g>
<path fill="#85D3D3" d="M256,122.959h-58.422c-12.063,0-21.996,9.935-21.996,21.998V306.74c0,12.063,9.933,21.996,21.996,21.996H256
	h58.422c12.063,0,21.997-9.937,21.997-21.996V171.448l-43.048-48.488L256,122.959L256,122.959z"/>
<polygon fill="#FFFFFF" points="296.211,168.137 336.181,168.137 296.211,122.959 "/>
<path fill="#4AA1AC" d="M339.967,166.008c-0.233-0.237-0.233-0.474-0.475-0.71l-40.209-45.176l0,0
	c-0.235-0.237-0.709-0.473-0.944-0.711c-0.235,0-0.235-0.235-0.474-0.235c-0.473-0.237-1.186-0.474-1.654-0.474h-98.633
	c-14.666,0-26.492,11.827-26.492,26.491v161.784c0,14.664,11.826,26.49,26.492,26.49h103.359c2.365,0,4.494-1.895,4.494-4.494
	c0-2.365-1.894-4.494-4.494-4.494H197.578c-9.698,0-17.504-7.807-17.504-17.502v-162.02c0-9.698,7.806-17.503,17.504-17.503h94.137
	v40.683c0,2.365,1.893,4.494,4.496,4.494h35.714v112.35c0,2.361,1.896,4.492,4.495,4.492c2.363,0,4.492-1.893,4.492-4.492V168.137
	c0-0.473-0.235-1.184-0.235-1.656C340.201,166.243,340.201,166.008,339.967,166.008z M300.466,163.642v-29.093l26.021,29.093
	H300.466z"/>
<g>
	<g>
		<path fill="#4AA1AC" d="M356.771,365.189H155.229c-2.887,0-5.229-2.34-5.229-5.229c0-2.887,2.341-5.229,5.229-5.229h201.543
			c2.887,0,5.229,2.345,5.229,5.229C362,362.85,359.658,365.189,356.771,365.189z"/>
	</g>
</g>
<g>
	<g>
		<path fill="#4AA1AC" d="M315.638,393.299H196.361c-2.887,0-5.229-2.342-5.229-5.229c0-2.889,2.341-5.23,5.229-5.23h119.276
			c2.891,0,5.229,2.342,5.229,5.23C320.867,390.957,318.525,393.299,315.638,393.299z"/>
	</g>
</g>
<path fill="#4AA1AC" d="M276.168,242.27l-13.443-13.443l13.443-13.443c1.77-1.769,1.943-4.781,0-6.726
	c-1.77-1.769-4.779-1.945-6.725,0.001L256,222.102l-13.444-13.444c-1.768-1.768-4.776-1.944-6.722,0.001
	c-1.768,1.768-1.946,4.777-0.001,6.722l13.444,13.444l-13.443,13.443c-1.769,1.77-1.946,4.777,0,6.723
	c1.769,1.77,4.778,1.948,6.724,0.002l13.443-13.443l13.442,13.443c1.771,1.769,4.779,1.947,6.725,0
	C278.114,247.047,277.938,244.039,276.168,242.27z"/>
</svg>
