<?xml version="1.0" encoding="utf-8"?>
<!-- Generator: Adobe Illustrator 16.0.0, SVG Export Plug-In . SVG Version: 6.00 Build 0)  -->
<!DOCTYPE svg PUBLIC "-//W3C//DTD SVG 1.1//EN" "http://www.w3.org/Graphics/SVG/1.1/DTD/svg11.dtd">
<svg version="1.1" id="Layer_1" xmlns="http://www.w3.org/2000/svg" xmlns:xlink="http://www.w3.org/1999/xlink" x="0px" y="0px"
	 width="800px" height="198.917px" viewBox="0 0 800 198.917" enable-background="new 0 0 800 198.917" xml:space="preserve">
<g>
	<g>
		<g>
			<g>
				<path fill="#F48120" d="M291.47,117.535c0,3.42-0.454,6.434-1.362,9.022c-0.912,2.595-2.207,4.79-3.886,6.574
					c-1.688,1.788-3.697,3.135-6.028,4.047c-2.339,0.903-4.931,1.362-7.785,1.362c-1.394,0-2.608-0.124-3.617-0.357
					c-1.008-0.229-1.88-0.475-2.604-0.731c-0.723-0.265-1.334-0.507-1.829-0.744c-0.494-0.229-0.968-0.353-1.443-0.353
					c-0.414,0-0.655,0.039-0.739,0.124c-0.072,0.08-0.112,0.225-0.112,0.426c0,0.676-0.366,1.005-1.085,1.005h-4.437
					c-0.832,0-1.246-0.458-1.246-1.395V86.3c0-0.932,0.414-1.4,1.246-1.4h4.746c0.88,0,1.318,0.468,1.318,1.4v12.643
					c0,0.675,0.261,1.013,0.784,1.013c0.205,0,0.566-0.128,1.089-0.394c0.515-0.257,1.182-0.532,1.973-0.812
					c0.812-0.285,1.756-0.559,2.845-0.815c1.089-0.262,2.363-0.386,3.81-0.386c5.863,0,10.388,1.772,13.579,5.318
					C289.875,106.418,291.47,111.313,291.47,117.535z M283.767,117.691c0-2.23-0.229-4.239-0.699-6.031
					c-0.475-1.785-1.222-3.32-2.267-4.586c-1.041-1.27-2.379-2.258-4.026-2.957c-1.632-0.703-3.629-1.046-5.964-1.046
					c-2.189,0-4.103,0.382-5.738,1.158c-1.64,0.783-2.463,1.974-2.463,3.58v20.383c0,0.937,0.261,1.709,0.784,2.335
					c0.522,0.623,1.197,1.113,2.025,1.476c0.84,0.361,1.736,0.622,2.697,0.774c0.96,0.161,1.893,0.234,2.772,0.234
					c1.925,0,3.685-0.281,5.273-0.856c1.583-0.563,2.941-1.472,4.059-2.721c1.113-1.242,1.989-2.837,2.612-4.782
					C283.457,122.71,283.767,120.388,283.767,117.691z"/>
				<path fill="#F48120" d="M328.825,136.515c0,0.937-0.491,1.395-1.475,1.395h-4.28c-0.727,0-1.089-0.329-1.089-1.005
					c0-0.366-0.257-0.55-0.776-0.55c-0.623,0-1.258,0.124-1.909,0.353c-0.647,0.237-1.375,0.479-2.178,0.744
					c-0.8,0.257-1.764,0.502-2.874,0.731c-1.117,0.233-2.451,0.357-4.01,0.357c-2.283,0-4.393-0.306-6.338-0.904
					c-1.945-0.582-3.536-1.587-4.786-2.99c-0.619-0.724-1.129-1.49-1.515-2.299c-0.39-0.795-0.688-1.707-0.892-2.72
					c-0.213-1.01-0.354-2.146-0.43-3.421c-0.08-1.266-0.116-2.732-0.116-4.392V99.562c0-0.928,0.434-1.395,1.326-1.395h4.822
					c0.824,0,1.238,0.467,1.238,1.395v24.351c0,3.166,0.675,5.489,2.029,6.965c1.343,1.47,3.782,2.209,7.31,2.209
					c0.828,0,1.752-0.084,2.761-0.261c1.013-0.185,1.905-0.438,2.68-0.744c1.037-0.422,1.816-0.911,2.339-1.478
					c0.515-0.575,0.776-1.452,0.776-2.648V99.562c0-0.928,0.41-1.395,1.242-1.395h4.822c0.88,0,1.323,0.467,1.323,1.395V136.515z"/>
				<path fill="#F48120" d="M357.94,126.89c0,3.934-1.274,6.86-3.811,8.77c-2.543,1.921-5.887,2.881-10.034,2.881
					c-3.999,0-7.186-0.639-9.569-1.893c-0.518-0.27-0.876-0.575-1.053-0.913c-0.185-0.337-0.273-0.743-0.273-1.225v-3.288
					c0-0.361,0.081-0.659,0.233-0.892c0.157-0.229,0.466-0.351,0.932-0.351c0.418,0,0.856,0.153,1.326,0.463
					c0.466,0.322,1.041,0.635,1.708,0.969c0.675,0.342,1.503,0.67,2.495,0.977c0.981,0.317,2.17,0.471,3.573,0.471
					c2.496,0,4.308-0.435,5.45-1.327c1.137-0.872,1.708-2.138,1.708-3.802c0-1.182-0.27-2.149-0.816-2.909
					c-0.546-0.739-1.624-1.648-3.227-2.677l-6.145-3.954c-2.439-1.56-4.131-3.103-5.06-4.662c-0.933-1.552-1.403-3.278-1.403-5.196
					c0-3.415,1.13-6.068,3.392-7.958c2.254-1.893,5.481-2.826,9.681-2.826c1.977,0,3.733,0.201,5.292,0.625
					c1.552,0.42,2.745,0.866,3.573,1.338c0.575,0.315,0.92,0.639,1.053,0.954c0.128,0.316,0.197,0.7,0.197,1.174v3.215
					c0,0.362-0.081,0.664-0.237,0.889c-0.153,0.241-0.47,0.357-0.936,0.357c-0.31,0-0.699-0.16-1.162-0.47
					c-0.466-0.313-1.041-0.636-1.716-0.973c-0.675-0.334-1.475-0.659-2.412-0.973c-0.936-0.306-2.049-0.467-3.343-0.467
					c-2.13,0-3.721,0.382-4.782,1.134c-1.061,0.748-1.6,1.76-1.6,3.059c0,1.089,0.277,1.993,0.82,2.717
					c0.542,0.723,1.334,1.395,2.375,2.021l8.399,5.358C356.147,119.833,357.94,122.96,357.94,126.89z"/>
				<path fill="#F48120" d="M371.652,89.342c0,2.948-1.535,4.424-4.598,4.424c-2.95,0-4.428-1.499-4.428-4.511
					c0-1.396,0.406-2.47,1.246-3.225c0.82-0.751,1.913-1.131,3.263-1.131C370.145,84.899,371.652,86.378,371.652,89.342z
					 M370.788,136.515c0,0.937-0.434,1.395-1.314,1.395h-4.598c-0.928,0-1.398-0.458-1.398-1.395V99.562
					c0-0.928,0.446-1.395,1.322-1.395h4.674c0.88,0,1.314,0.467,1.314,1.395V136.515z"/>
				<path fill="#F48120" d="M410.799,136.515c0,0.937-0.467,1.395-1.402,1.395h-4.666c-0.885,0-1.326-0.458-1.326-1.395v-24.036
					c0-1.089-0.098-2.255-0.31-3.504c-0.21-1.238-0.57-2.198-1.093-2.874c-0.772-1.032-1.813-1.816-3.107-2.335
					c-1.294-0.519-2.721-0.779-4.28-0.779c-1.089,0-2.166,0.084-3.227,0.232c-1.064,0.161-2.037,0.427-2.917,0.816
					c-0.88,0.394-1.6,0.896-2.138,1.527c-0.546,0.611-0.82,1.366-0.82,2.246v28.706c0,0.937-0.438,1.395-1.326,1.395h-4.662
					c-0.884,0-1.326-0.458-1.326-1.395V99.562c0-0.928,0.466-1.395,1.403-1.395h4.276c0.731,0,1.093,0.33,1.093,1.009
					c0,0.151,0.037,0.29,0.117,0.386c0.077,0.115,0.293,0.161,0.659,0.161c0.623,0,1.254-0.121,1.905-0.354
					c0.651-0.237,1.375-0.478,2.178-0.735c0.804-0.257,1.752-0.506,2.841-0.74c1.089-0.233,2.415-0.346,3.97-0.346
					c2.283,0,4.393,0.306,6.342,0.924c1.945,0.623,3.54,1.64,4.777,3.039c1.307,1.455,2.135,3.136,2.488,5.052
					c0.37,1.917,0.551,4.518,0.551,7.78V136.515z"/>
				<path fill="#F48120" d="M451.187,117.458c0,0.932-0.466,1.402-1.403,1.402h-25.116c-0.783,0-1.165,0.361-1.165,1.085
					c0,3.991,1.105,7.161,3.34,9.524c2.229,2.367,5.469,3.541,9.721,3.541c1.66,0,3.139-0.152,4.44-0.467
					c1.29-0.31,2.411-0.631,3.348-0.969c0.921-0.338,1.688-0.658,2.283-0.972c0.595-0.31,1.056-0.471,1.365-0.471
					c0.724,0,1.086,0.418,1.086,1.25v2.725c0,0.519-0.04,0.916-0.104,1.197c-0.092,0.285-0.342,0.587-0.748,0.9
					c-0.466,0.361-1.152,0.68-2.065,0.969c-0.912,0.285-1.921,0.534-3.066,0.735c-1.149,0.213-2.347,0.361-3.62,0.474
					c-1.274,0.101-2.504,0.157-3.686,0.157c-6.756,0-11.767-1.768-15.063-5.297c-3.287-3.524-4.942-8.443-4.942-14.772
					c0-3.271,0.442-6.189,1.334-8.753c0.872-2.564,2.125-4.762,3.722-6.574c1.615-1.816,3.544-3.203,5.799-4.161
					c2.258-0.961,4.794-1.435,7.591-1.435c5.345,0,9.489,1.563,12.482,4.699c2.986,3.139,4.469,7.615,4.469,13.419V117.458z
					 M443.482,112.555c0-3.063-0.888-5.43-2.645-7.113c-1.78-1.691-4.139-2.535-7.109-2.535c-1.672,0-3.142,0.272-4.407,0.823
					c-1.283,0.539-2.355,1.282-3.208,2.211c-0.855,0.94-1.515,2.001-1.956,3.187c-0.447,1.201-0.655,2.411-0.655,3.661
					c0,0.258,0.044,0.458,0.148,0.59c0.104,0.129,0.361,0.186,0.783,0.186h18.117c0.369,0,0.614-0.057,0.735-0.186
					C443.423,113.247,443.482,112.965,443.482,112.555z"/>
				<path fill="#F48120" d="M477.963,126.89c0,3.934-1.258,6.86-3.805,8.77c-2.545,1.921-5.888,2.881-10.035,2.881
					c-4.003,0-7.189-0.639-9.573-1.893c-0.514-0.27-0.86-0.575-1.048-0.913c-0.182-0.337-0.27-0.743-0.27-1.225v-3.288
					c0-0.361,0.08-0.659,0.232-0.892c0.157-0.229,0.467-0.351,0.933-0.351c0.414,0,0.852,0.153,1.326,0.463
					c0.462,0.322,1.033,0.635,1.704,0.969c0.68,0.342,1.508,0.67,2.487,0.977c0.989,0.317,2.178,0.471,3.581,0.471
					c2.487,0,4.304-0.435,5.445-1.327c1.138-0.872,1.716-2.138,1.716-3.802c0-1.182-0.276-2.149-0.812-2.909
					c-0.551-0.739-1.624-1.648-3.228-2.677l-6.152-3.954c-2.439-1.56-4.123-3.103-5.056-4.662c-0.928-1.552-1.395-3.278-1.395-5.196
					c0-3.415,1.129-6.068,3.368-7.958c2.263-1.893,5.489-2.826,9.692-2.826c1.97,0,3.734,0.201,5.301,0.625
					c1.543,0.42,2.737,0.866,3.565,1.338c0.574,0.315,0.928,0.639,1.048,0.954c0.137,0.314,0.206,0.7,0.206,1.174v3.215
					c0,0.362-0.085,0.664-0.237,0.889c-0.165,0.241-0.467,0.357-0.941,0.357c-0.301,0-0.695-0.16-1.16-0.47
					c-0.475-0.313-1.033-0.636-1.713-0.973c-0.679-0.334-1.482-0.659-2.419-0.973c-0.928-0.306-2.042-0.467-3.348-0.467
					c-2.118,0-3.709,0.382-4.778,1.134c-1.061,0.748-1.591,1.76-1.591,3.059c0,1.089,0.273,1.993,0.823,2.717
					c0.542,0.723,1.326,1.395,2.367,2.021l8.396,5.358C476.183,119.833,477.963,122.96,477.963,126.89z"/>
				<path fill="#F48120" d="M505.223,126.89c0,3.934-1.283,6.86-3.818,8.77c-2.547,1.921-5.891,2.881-10.03,2.881
					c-4.003,0-7.193-0.639-9.573-1.893c-0.521-0.27-0.867-0.575-1.049-0.913c-0.188-0.337-0.281-0.743-0.281-1.225v-3.288
					c0-0.361,0.077-0.659,0.246-0.892c0.148-0.229,0.457-0.351,0.924-0.351c0.422,0,0.86,0.153,1.318,0.463
					c0.478,0.322,1.048,0.635,1.72,0.969c0.663,0.342,1.499,0.67,2.479,0.977c0.988,0.317,2.179,0.471,3.581,0.471
					c2.495,0,4.304-0.435,5.449-1.327c1.149-0.872,1.712-2.138,1.712-3.802c0-1.182-0.27-2.149-0.813-2.909
					c-0.55-0.739-1.623-1.648-3.234-2.677l-6.145-3.954c-2.444-1.56-4.115-3.103-5.056-4.662c-0.929-1.552-1.395-3.278-1.395-5.196
					c0-3.42,1.121-6.068,3.384-7.958c2.246-1.893,5.477-2.826,9.677-2.826c1.978,0,3.741,0.201,5.284,0.625
					c1.556,0.42,2.754,0.866,3.582,1.338c0.574,0.315,0.928,0.639,1.056,0.954c0.129,0.314,0.194,0.7,0.194,1.174v3.215
					c0,0.362-0.082,0.664-0.234,0.889c-0.164,0.241-0.466,0.357-0.932,0.357c-0.318,0-0.703-0.16-1.178-0.47
					c-0.458-0.313-1.033-0.636-1.703-0.973c-0.68-0.334-1.484-0.659-2.412-0.973c-0.937-0.306-2.041-0.467-3.34-0.467
					c-2.134,0-3.729,0.382-4.786,1.134c-1.064,0.748-1.599,1.76-1.599,3.059c0,1.089,0.272,1.993,0.823,2.717
					c0.534,0.723,1.326,1.395,2.367,2.021l8.395,5.358C503.418,119.833,505.223,122.96,505.223,126.89z"/>
			</g>
			<g>
				<path fill="#006DB7" d="M544.518,137.452c0,2.069-0.113,3.782-0.317,5.124c-0.209,1.354-0.551,2.548-1.017,3.58
					c-1.342,3.006-3.642,5.137-6.877,6.386c-3.238,1.25-7.093,1.865-11.553,1.865c-2.488,0-4.903-0.253-7.23-0.743
					c-2.338-0.512-4.252-1.122-5.759-1.857c-0.928-0.43-1.402-1.08-1.402-1.978v-3.278c0-0.828,0.346-1.246,1.009-1.246
					c0.369,0,0.876,0.185,1.515,0.547c0.655,0.365,1.531,0.751,2.616,1.156c1.086,0.423,2.419,0.809,4.003,1.175
					c1.583,0.36,3.513,0.542,5.799,0.542c1.499,0,3.083-0.148,4.738-0.455c1.659-0.316,3.115-0.899,4.36-1.784
					c1.189-0.819,1.945-1.899,2.259-3.239c0.31-1.345,0.462-2.707,0.462-4.094v-2.637c0-0.724-0.233-1.098-0.695-1.098
					c-0.262,0-0.639,0.141-1.129,0.398c-0.49,0.257-1.146,0.539-1.945,0.855c-0.808,0.306-1.756,0.595-2.833,0.855
					c-1.101,0.262-2.375,0.383-3.818,0.383c-5.863,0-10.384-1.725-13.583-5.164c-3.188-3.453-4.77-8.282-4.77-14.508
					c0-3.424,0.445-6.426,1.35-8.99c0.912-2.572,2.206-4.717,3.898-6.458c1.68-1.736,3.693-3.042,6.02-3.927
					c2.339-0.88,4.932-1.314,7.788-1.314c1.396,0,2.608,0.113,3.609,0.346c1.005,0.233,1.893,0.49,2.656,0.782
					c0.735,0.279,1.362,0.538,1.861,0.773c0.489,0.229,0.936,0.346,1.357,0.346c0.519,0,0.776-0.201,0.776-0.619
					c0-0.679,0.397-1.009,1.169-1.009h4.28c0.937,0,1.402,0.467,1.402,1.395V137.452z M537.123,107.809
					c0-0.824-0.221-1.539-0.663-2.138c-0.438-0.595-1.049-1.085-1.805-1.483c-0.743-0.386-1.61-0.671-2.616-0.855
					c-0.984-0.177-2.025-0.262-3.11-0.262c-4.275,0-7.495,1.19-9.641,3.577c-2.166,2.379-3.251,6.188-3.251,11.426
					c0,4.469,0.988,7.965,2.97,10.504c1.977,2.548,5.276,3.811,9.922,3.811c2.335,0,4.288-0.406,5.854-1.238
					c1.564-0.832,2.34-1.953,2.34-3.348V107.809z"/>
				<path fill="#006DB7" d="M579.517,136.515c0,0.937-0.446,1.395-1.318,1.395h-4.44c-0.716,0-1.093-0.329-1.093-1.009
					c0-0.362-0.258-0.546-0.769-0.546c-0.469,0-1.004,0.124-1.599,0.353c-0.596,0.237-1.311,0.479-2.135,0.744
					c-0.827,0.257-1.824,0.502-2.961,0.731c-1.146,0.233-2.464,0.357-3.967,0.357c-2.636,0-4.822-0.318-6.526-0.937
					c-1.712-0.619-3.063-1.442-4.055-2.483c-0.98-1.032-1.668-2.198-2.059-3.496c-0.385-1.294-0.582-2.641-0.582-4.027
					c0-3.211,0.945-5.759,2.842-7.651c1.885-1.885,5.119-3.497,9.681-4.854l9.247-2.789c0.9-0.253,1.503-0.57,1.832-0.928
					c0.342-0.366,0.516-0.885,0.516-1.56v-1.784c0-1.648-0.575-2.866-1.721-3.649c-1.138-0.771-3.029-1.162-5.674-1.162
					c-2.126,0-3.915,0.17-5.37,0.511c-1.446,0.325-2.668,0.724-3.648,1.161c-0.985,0.438-1.776,0.836-2.384,1.166
					c-0.594,0.342-1.104,0.506-1.507,0.506c-0.675,0-1.017-0.414-1.017-1.245v-3.279c0-0.475,0.104-0.879,0.317-1.223
					c0.206-0.342,0.671-0.666,1.402-0.989c1.749-0.731,3.687-1.298,5.788-1.692c2.113-0.394,4.473-0.587,7.125-0.587
					c5.18,0,8.857,0.98,11.035,2.95c1.197,1.037,1.997,2.283,2.411,3.73c0.414,1.458,0.627,3.451,0.627,5.995V136.515z
					 M572.131,117.924c0-0.519-0.214-0.771-0.636-0.771c-0.302,0-0.747,0.089-1.31,0.306l-8.375,2.801
					c-2.03,0.667-3.554,1.515-4.57,2.524c-1.016,1.017-1.522,2.459-1.522,4.319c0,1.146,0.189,2.09,0.583,2.838
					c0.389,0.755,0.912,1.358,1.56,1.828c0.646,0.466,1.418,0.792,2.306,0.977c0.88,0.177,1.833,0.266,2.817,0.266
					c2.813,0,5.044-0.41,6.688-1.242c1.636-0.832,2.46-1.868,2.46-3.11V117.924z"/>
				<path fill="#006DB7" d="M607.768,135.623c0,0.575-0.293,1.049-0.887,1.419c-0.596,0.361-1.327,0.651-2.179,0.86
					c-0.86,0.213-1.756,0.369-2.729,0.481c-0.957,0.101-1.772,0.157-2.444,0.157c-2.23,0-4.099-0.27-5.602-0.779
					c-1.507-0.519-2.721-1.282-3.625-2.3c-0.904-1.008-1.543-2.282-1.945-3.813c-0.382-1.519-0.578-3.303-0.578-5.328v-21.697
					c0-0.675-0.258-1.013-0.772-1.013h-4.126c-0.981,0-1.472-0.466-1.472-1.407v-2.641c0-0.928,0.49-1.395,1.472-1.395h4.126
					c0.515,0,0.772-0.313,0.772-0.936v-8.163c0-0.984,0.466-1.483,1.41-1.483h4.505c0.98,0,1.479,0.499,1.479,1.483v8.163
					c0,0.623,0.257,0.936,0.768,0.936h10.509c0.88,0,1.317,0.467,1.317,1.395v2.641c0,0.941-0.438,1.407-1.317,1.407h-10.509
					c-0.511,0-0.768,0.338-0.768,1.005v21.958c0,2.069,0.406,3.629,1.238,4.698c0.827,1.053,2.229,1.588,4.211,1.588
					c0.98,0,1.792-0.082,2.443-0.234c0.646-0.156,1.189-0.329,1.636-0.543c0.438-0.208,0.812-0.394,1.121-0.55
					c0.317-0.148,0.599-0.232,0.868-0.232c0.724,0,1.076,0.445,1.076,1.325V135.623z"/>
				<path fill="#006DB7" d="M643.551,117.458c0,0.932-0.466,1.402-1.398,1.402h-25.125c-0.771,0-1.17,0.361-1.17,1.085
					c0,3.991,1.121,7.161,3.348,9.524c2.23,2.367,5.474,3.541,9.726,3.541c1.656,0,3.135-0.152,4.429-0.467
					c1.298-0.31,2.415-0.631,3.355-0.969c0.92-0.338,1.696-0.658,2.287-0.972c0.594-0.31,1.053-0.471,1.362-0.471
					c0.724,0,1.085,0.418,1.085,1.25v2.725c0,0.519-0.036,0.916-0.112,1.197c-0.077,0.285-0.326,0.587-0.739,0.9
					c-0.459,0.361-1.154,0.68-2.065,0.969c-0.905,0.285-1.938,0.534-3.067,0.735c-1.137,0.213-2.347,0.361-3.62,0.474
					c-1.266,0.101-2.5,0.157-3.694,0.157c-6.738,0-11.758-1.768-15.045-5.297c-3.3-3.524-4.943-8.443-4.943-14.772
					c0-3.271,0.438-6.189,1.326-8.753c0.876-2.564,2.126-4.762,3.729-6.574c1.607-1.816,3.536-3.203,5.799-4.161
					c2.255-0.961,4.778-1.435,7.575-1.435c5.345,0,9.504,1.563,12.49,4.699c2.986,3.139,4.469,7.615,4.469,13.419V117.458z
					 M635.855,112.555c0-3.063-0.881-5.43-2.661-7.113c-1.764-1.691-4.131-2.535-7.101-2.535c-1.664,0-3.143,0.272-4.408,0.823
					c-1.282,0.539-2.352,1.282-3.203,2.211c-0.868,0.94-1.508,2.001-1.961,3.187c-0.438,1.201-0.664,2.411-0.664,3.661
					c0,0.258,0.061,0.458,0.157,0.59c0.108,0.129,0.37,0.186,0.784,0.186h18.124c0.361,0,0.603-0.057,0.739-0.186
					C635.787,113.247,635.855,112.965,635.855,112.555z"/>
				<path fill="#006DB7" d="M702.839,99.176c0,0.418-0.067,0.804-0.225,1.17l-10.733,34.691c-0.414,1.455-0.885,2.395-1.395,2.846
					c-0.527,0.434-1.282,0.658-2.264,0.658h-3.89c-1.093,0-1.885-0.213-2.375-0.631c-0.49-0.414-0.864-1.137-1.129-2.175
					l-6.611-28.548c-0.104-0.41-0.188-0.688-0.266-0.816c-0.071-0.129-0.192-0.196-0.353-0.196c-0.258,0-0.467,0.345-0.619,1.013
					l-6.775,28.473c-0.258,0.988-0.64,1.707-1.162,2.182c-0.519,0.463-1.294,0.699-2.326,0.699h-4.208
					c-1.033,0-1.78-0.201-2.255-0.587c-0.458-0.394-0.904-1.237-1.326-2.536l-10.891-34.759c-0.108-0.265-0.185-0.532-0.221-0.824
					c-0.061-0.281-0.084-0.508-0.084-0.659c0-0.679,0.47-1.009,1.402-1.009h4.967c0.84,0,1.33,0.306,1.479,0.929l8.866,31.669
					c0.164,0.666,0.422,1.004,0.782,1.004c0.258,0,0.467-0.338,0.62-1.004l6.767-28.867c0.37-1.452,0.801-2.432,1.282-2.955
					c0.499-0.516,1.318-0.776,2.46-0.776h3.188c1.35,0,2.27,0.26,2.769,0.776c0.481,0.523,0.888,1.425,1.196,2.726l6.688,28.858
					c0.113,0.52,0.218,0.856,0.313,1.005c0.108,0.156,0.237,0.237,0.395,0.237c0.097,0,0.205-0.061,0.31-0.193
					c0.096-0.128,0.201-0.405,0.31-0.811l8.403-31.669c0.152-0.623,0.67-0.929,1.555-0.929h4.047
					C702.409,98.167,702.839,98.497,702.839,99.176z"/>
				<path fill="#006DB7" d="M734.53,136.515c0,0.937-0.445,1.395-1.325,1.395h-4.434c-0.73,0-1.093-0.329-1.093-1.009
					c0-0.362-0.257-0.546-0.771-0.546c-0.474,0-1,0.124-1.596,0.353c-0.603,0.237-1.313,0.479-2.142,0.744
					c-0.828,0.257-1.816,0.502-2.953,0.731c-1.138,0.233-2.473,0.357-3.976,0.357c-2.644,0-4.813-0.318-6.534-0.937
					c-1.712-0.619-3.054-1.442-4.039-2.483c-0.988-1.032-1.675-2.198-2.057-3.496c-0.395-1.294-0.583-2.641-0.583-4.027
					c0-3.211,0.944-5.759,2.833-7.651c1.893-1.885,5.12-3.497,9.689-4.854l9.247-2.789c0.892-0.253,1.495-0.57,1.841-0.928
					c0.337-0.366,0.498-0.885,0.498-1.56v-1.784c0-1.648-0.567-2.866-1.713-3.649c-1.145-0.771-3.029-1.162-5.67-1.162
					c-2.13,0-3.918,0.17-5.365,0.511c-1.463,0.325-2.684,0.724-3.664,1.161c-0.984,0.438-1.773,0.836-2.367,1.166
					c-0.604,0.342-1.105,0.506-1.531,0.506c-0.668,0-1.001-0.414-1.001-1.245v-3.279c0-0.475,0.104-0.879,0.302-1.223
					c0.213-0.342,0.679-0.666,1.402-0.989c1.772-0.731,3.709-1.298,5.795-1.692c2.105-0.394,4.481-0.587,7.125-0.587
					c5.185,0,8.865,0.98,11.044,2.95c1.196,1.037,1.989,2.283,2.411,3.73c0.422,1.458,0.626,3.451,0.626,5.995V136.515z
					 M727.137,117.924c0-0.519-0.205-0.771-0.627-0.771c-0.31,0-0.752,0.089-1.326,0.306l-8.367,2.801
					c-2.029,0.667-3.553,1.515-4.569,2.524c-1.009,1.017-1.522,2.459-1.522,4.319c0,1.146,0.188,2.09,0.59,2.838
					c0.382,0.755,0.913,1.358,1.56,1.828c0.647,0.466,1.423,0.792,2.307,0.977c0.888,0.177,1.825,0.266,2.806,0.266
					c2.824,0,5.039-0.41,6.683-1.242c1.652-0.832,2.468-1.868,2.468-3.11V117.924z"/>
				<path fill="#006DB7" d="M772.665,99.176c0,0.209-0.028,0.426-0.081,0.659c-0.052,0.235-0.129,0.486-0.233,0.744l-17.349,46.28
					c-0.466,1.246-0.973,2.375-1.519,3.384c-0.539,1.009-1.193,1.865-1.945,2.572c-0.747,0.691-1.631,1.237-2.641,1.623
					c-1.009,0.398-2.214,0.592-3.608,0.592c-1.193,0-2.021-0.137-2.459-0.386c-0.446-0.266-0.664-0.571-0.664-0.945v-3.496
					c0-0.727,0.338-1.089,1.018-1.089c0.257,0,0.471,0.016,0.619,0.044c0.152,0.024,0.445,0.037,0.852,0.037
					c0.888,0,1.636-0.254,2.262-0.785c0.619-0.514,1.25-1.578,1.869-3.183l1.784-4.513c0.214-0.519,0.334-0.92,0.386-1.209
					c0.053-0.278,0.085-0.526,0.085-0.744c0-0.41-0.153-1-0.471-1.784l-13.845-36.479c-0.204-0.519-0.316-0.961-0.316-1.323
					c0-0.679,0.474-1.009,1.402-1.009h5.293c0.413,0,0.707,0.073,0.888,0.225c0.181,0.161,0.325,0.396,0.438,0.704l9.959,28.86
					c0.2,0.679,0.431,1.017,0.691,1.017c0.265,0,0.489-0.338,0.703-1.017l10.03-28.86c0.104-0.308,0.266-0.542,0.471-0.704
					c0.208-0.152,0.543-0.225,1.016-0.225h4.039C772.223,98.167,772.665,98.497,772.665,99.176z"/>
				<path fill="#006DB7" d="M797.352,126.89c0,3.934-1.266,6.86-3.806,8.77c-2.54,1.921-5.88,2.881-10.035,2.881
					c-4.002,0-7.181-0.639-9.564-1.893c-0.526-0.27-0.872-0.575-1.053-0.913c-0.177-0.337-0.273-0.743-0.273-1.225v-3.288
					c0-0.361,0.077-0.659,0.226-0.892c0.168-0.229,0.47-0.351,0.937-0.351c0.422,0,0.859,0.153,1.325,0.463
					c0.467,0.322,1.042,0.635,1.721,0.969c0.663,0.342,1.499,0.67,2.487,0.977c0.98,0.317,2.179,0.471,3.581,0.471
					c2.487,0,4.305-0.435,5.441-1.327c1.129-0.872,1.703-2.138,1.703-3.802c0-1.182-0.265-2.149-0.815-2.909
					c-0.551-0.739-1.619-1.648-3.219-2.677l-6.148-3.954c-2.443-1.56-4.131-3.103-5.06-4.662c-0.929-1.552-1.402-3.278-1.402-5.196
					c0-3.42,1.133-6.068,3.392-7.958c2.254-1.893,5.474-2.826,9.689-2.826c1.957,0,3.721,0.201,5.284,0.625
					c1.552,0.42,2.748,0.866,3.58,1.338c0.555,0.315,0.913,0.639,1.045,0.954c0.129,0.314,0.189,0.7,0.189,1.174v3.215
					c0,0.362-0.068,0.664-0.233,0.889c-0.148,0.241-0.466,0.357-0.936,0.357c-0.302,0-0.691-0.16-1.158-0.47
					c-0.47-0.313-1.04-0.636-1.704-0.973c-0.679-0.334-1.486-0.659-2.419-0.973c-0.937-0.306-2.046-0.467-3.347-0.467
					c-2.127,0-3.727,0.382-4.787,1.134c-1.057,0.748-1.584,1.76-1.584,3.059c0,1.084,0.27,1.993,0.813,2.717
					c0.543,0.723,1.334,1.391,2.375,2.021l8.398,5.358C795.576,119.833,797.352,122.96,797.352,126.89z"/>
			</g>
		</g>
		<g>
			<path fill="#006DB7" d="M259.718,198.118c0,0.37-0.181,0.559-0.546,0.559h-1.965c-0.35,0-0.514-0.188-0.514-0.559v-19.716
				c0-0.369,0.165-0.547,0.514-0.547h1.965c0.366,0,0.546,0.178,0.546,0.547V198.118z"/>
			<path fill="#006DB7" d="M308.461,198.118c0,0.37-0.185,0.559-0.546,0.559h-1.965c-0.141,0-0.265-0.02-0.366-0.052
				s-0.209-0.089-0.321-0.185c-0.113-0.089-0.229-0.233-0.357-0.427c-0.117-0.192-0.286-0.45-0.482-0.779l-9.248-15.403
				c-0.084-0.165-0.176-0.245-0.273-0.245c-0.084,0-0.121,0.104-0.121,0.309v16.224c0,0.37-0.165,0.559-0.494,0.559h-1.443
				c-0.33,0-0.49-0.188-0.49-0.559v-19.716c0-0.369,0.185-0.547,0.555-0.547h2.656c0.213,0,0.37,0.028,0.478,0.09
				c0.113,0.063,0.229,0.191,0.354,0.397l9.219,15.432c0.101,0.161,0.193,0.245,0.27,0.245c0.084,0,0.124-0.101,0.124-0.309v-15.309
				c0-0.369,0.161-0.547,0.487-0.547h1.507c0.117,0,0.229,0.041,0.317,0.137c0.096,0.089,0.141,0.227,0.141,0.41V198.118z"/>
			<path fill="#006DB7" d="M354.291,179.54c0,0.362-0.185,0.546-0.551,0.546h-5.417c-0.205,0-0.306,0.113-0.306,0.342v17.69
				c0,0.37-0.173,0.559-0.522,0.559h-1.957c-0.366,0-0.55-0.188-0.55-0.559v-17.69c0-0.229-0.104-0.342-0.305-0.342h-5.389
				c-0.394,0-0.583-0.184-0.583-0.546v-1.138c0-0.369,0.189-0.547,0.583-0.547h14.447c0.366,0,0.551,0.178,0.551,0.547V179.54z"/>
			<path fill="#006DB7" d="M396.665,198.118c0,0.37-0.177,0.559-0.546,0.559h-11.027c-0.366,0-0.551-0.188-0.551-0.559v-19.716
				c0-0.369,0.185-0.547,0.551-0.547h10.412c0.374,0,0.551,0.178,0.551,0.547v1.138c0,0.362-0.177,0.546-0.551,0.546h-7.623
				c-0.205,0-0.314,0.121-0.314,0.37v5.69c0,0.108,0.032,0.189,0.081,0.258c0.056,0.076,0.128,0.116,0.233,0.116h6.032
				c0.366,0,0.55,0.186,0.55,0.574v1.089c0,0.379-0.185,0.567-0.55,0.567h-6.032c-0.205,0-0.314,0.12-0.314,0.366v6.977
				c0,0.229,0.129,0.341,0.378,0.341h8.174c0.369,0,0.546,0.186,0.546,0.555V198.118z"/>
			<path fill="#006DB7" d="M442.096,198.303c0,0.241-0.156,0.373-0.51,0.373h-2.234c-0.193,0-0.338-0.04-0.442-0.104
				c-0.12-0.053-0.236-0.182-0.357-0.362l-6.467-8.877c-0.096-0.165-0.204-0.27-0.285-0.307c-0.092-0.039-0.221-0.063-0.377-0.063
				h-0.438c-0.201,0-0.302,0.129-0.302,0.37v8.784c0,0.37-0.173,0.559-0.518,0.559h-1.961c-0.326,0-0.491-0.188-0.491-0.559v-19.716
				c0-0.369,0.189-0.547,0.559-0.547h4.252c0.896,0,1.732,0.017,2.508,0.057c0.771,0.041,1.494,0.169,2.174,0.402
				c0.43,0.137,0.82,0.334,1.198,0.583c0.361,0.236,0.687,0.559,0.973,0.948c0.293,0.377,0.518,0.832,0.679,1.358
				c0.165,0.522,0.241,1.125,0.241,1.828c0,1.647-0.431,2.901-1.282,3.766c-0.867,0.856-2.021,1.423-3.492,1.704
				c-0.181,0.053-0.27,0.116-0.27,0.221c0,0.08,0.036,0.192,0.113,0.333l6.465,8.633
				C442.012,197.933,442.096,198.142,442.096,198.303z M437.146,183.3c0-1.209-0.342-2.081-1.025-2.648
				c-0.687-0.566-1.78-0.835-3.267-0.835h-1.869c-0.201,0-0.302,0.112-0.302,0.334v6.546c0,0.225,0.121,0.342,0.342,0.342h1.86
				c1.411,0,2.48-0.317,3.188-0.957C436.791,185.456,437.146,184.531,437.146,183.3z"/>
			<path fill="#006DB7" d="M488.517,198.118c0,0.37-0.189,0.559-0.559,0.559h-1.944c-0.149,0-0.27-0.02-0.379-0.052
				c-0.097-0.032-0.201-0.089-0.321-0.185c-0.108-0.089-0.229-0.233-0.342-0.427c-0.132-0.192-0.293-0.45-0.489-0.779l-9.247-15.403
				c-0.093-0.165-0.174-0.245-0.273-0.245c-0.089,0-0.129,0.104-0.129,0.309v16.224c0,0.37-0.165,0.559-0.495,0.559h-1.434
				c-0.33,0-0.499-0.188-0.499-0.559v-19.716c0-0.369,0.189-0.547,0.55-0.547h2.677c0.197,0,0.354,0.028,0.476,0.09
				c0.107,0.063,0.22,0.191,0.349,0.397l9.211,15.432c0.097,0.161,0.197,0.245,0.277,0.245c0.085,0,0.128-0.101,0.128-0.309v-15.309
				c0-0.369,0.166-0.547,0.483-0.547h1.498c0.125,0,0.237,0.041,0.326,0.137c0.084,0.089,0.137,0.227,0.137,0.41V198.118z"/>
			<path fill="#006DB7" d="M536.588,198.303c0,0.241-0.176,0.373-0.489,0.373h-2.15c-0.196,0-0.346-0.04-0.423-0.104
				c-0.084-0.053-0.148-0.149-0.18-0.27l-2.187-6.925c-0.084-0.201-0.217-0.305-0.423-0.305h-6.521
				c-0.302,0-0.494,0.096-0.547,0.281l-2.271,6.948c-0.076,0.241-0.285,0.373-0.61,0.373h-1.56c-0.35,0-0.522-0.141-0.522-0.405
				c0-0.12,0.023-0.27,0.093-0.458l6.707-19.102c0.161-0.43,0.333-0.728,0.498-0.888c0.173-0.169,0.454-0.25,0.816-0.25h1.868
				c0.382,0,0.671,0.073,0.836,0.197c0.165,0.141,0.346,0.438,0.515,0.904l6.43,19.138
				C536.54,198.039,536.588,198.207,536.588,198.303z M530.34,188.807c0-0.081-0.041-0.226-0.121-0.427l-2.483-7.804
				c-0.064-0.206-0.148-0.302-0.241-0.302c-0.081,0-0.165,0.112-0.245,0.33l-2.604,7.809c-0.061,0.16-0.096,0.297-0.096,0.394
				c0,0.145,0.104,0.22,0.309,0.22h5.141C530.223,189.027,530.34,188.952,530.34,188.807z"/>
			<path fill="#006DB7" d="M578.561,179.54c0,0.362-0.182,0.546-0.559,0.546h-5.414c-0.2,0-0.309,0.113-0.309,0.342v17.69
				c0,0.37-0.173,0.559-0.52,0.559h-1.961c-0.361,0-0.551-0.188-0.551-0.559v-17.69c0-0.229-0.104-0.342-0.301-0.342h-5.389
				c-0.398,0-0.588-0.184-0.588-0.546v-1.138c0-0.369,0.189-0.547,0.588-0.547h14.443c0.377,0,0.559,0.178,0.559,0.547V179.54z"/>
			<path fill="#006DB7" d="M611.907,198.118c0,0.37-0.188,0.559-0.558,0.559h-1.958c-0.358,0-0.522-0.188-0.522-0.559v-19.716
				c0-0.369,0.164-0.547,0.522-0.547h1.958c0.369,0,0.558,0.178,0.558,0.547V198.118z"/>
			<path fill="#006DB7" d="M663.21,188.196c0,1.56-0.2,2.981-0.595,4.288c-0.405,1.306-1.008,2.436-1.824,3.384
				c-0.82,0.944-1.844,1.695-3.074,2.234c-1.238,0.534-2.692,0.815-4.364,0.815c-1.611,0-3.022-0.261-4.252-0.767
				c-1.229-0.507-2.263-1.227-3.083-2.163c-0.831-0.924-1.445-2.045-1.867-3.352c-0.418-1.306-0.628-2.753-0.628-4.34
				c0-1.555,0.21-2.986,0.596-4.292c0.401-1.306,1.005-2.435,1.808-3.388c0.808-0.944,1.833-1.691,3.063-2.23
				c1.233-0.539,2.692-0.813,4.364-0.813c1.611,0,3.03,0.254,4.252,0.769c1.222,0.514,2.254,1.229,3.074,2.157
				c0.828,0.933,1.463,2.047,1.885,3.352C662.994,185.158,663.21,186.609,663.21,188.196z M660.024,188.249
				c0-2.777-0.567-4.871-1.729-6.298c-1.153-1.427-2.794-2.134-4.943-2.134c-1.009,0-1.909,0.173-2.729,0.551
				c-0.815,0.357-1.516,0.9-2.099,1.6c-0.578,0.699-1.032,1.579-1.337,2.624c-0.318,1.053-0.483,2.263-0.483,3.62
				c0,1.312,0.141,2.479,0.435,3.525c0.281,1.028,0.703,1.917,1.254,2.648c0.542,0.731,1.241,1.306,2.073,1.7
				c0.82,0.397,1.785,0.594,2.886,0.594c1.057,0,2.005-0.196,2.833-0.594c0.832-0.395,1.523-0.969,2.098-1.7
				c0.57-0.731,1.001-1.62,1.303-2.648C659.879,190.691,660.024,189.535,660.024,188.249z"/>
			<path fill="#006DB7" d="M710.885,198.118c0,0.37-0.188,0.559-0.551,0.559h-1.961c-0.145,0-0.273-0.02-0.378-0.052
				c-0.088-0.032-0.196-0.089-0.317-0.185c-0.113-0.089-0.226-0.233-0.346-0.427c-0.128-0.192-0.293-0.45-0.49-0.779l-9.247-15.403
				c-0.093-0.165-0.173-0.245-0.281-0.245c-0.08,0-0.12,0.104-0.12,0.309v16.224c0,0.37-0.165,0.559-0.491,0.559h-1.438
				c-0.325,0-0.49-0.188-0.49-0.559v-19.716c0-0.369,0.189-0.547,0.559-0.547h2.661c0.196,0,0.353,0.028,0.462,0.09
				c0.121,0.063,0.245,0.191,0.365,0.397l9.215,15.432c0.104,0.161,0.193,0.245,0.277,0.245c0.076,0,0.113-0.101,0.113-0.309
				v-15.309c0-0.369,0.172-0.547,0.498-0.547h1.499c0.112,0,0.232,0.041,0.317,0.137c0.092,0.089,0.145,0.227,0.145,0.41V198.118z"
				/>
			<path fill="#006DB7" d="M758.944,198.303c0,0.241-0.156,0.373-0.485,0.373h-2.135c-0.213,0-0.361-0.04-0.438-0.104
				c-0.084-0.053-0.146-0.149-0.174-0.27l-2.178-6.925c-0.084-0.201-0.229-0.305-0.438-0.305h-6.514
				c-0.318,0-0.491,0.096-0.56,0.281l-2.267,6.948c-0.076,0.241-0.281,0.373-0.603,0.373h-1.567c-0.35,0-0.515-0.141-0.515-0.405
				c0-0.12,0.024-0.27,0.085-0.458l6.699-19.102c0.164-0.43,0.341-0.728,0.514-0.888c0.182-0.169,0.45-0.25,0.804-0.25h1.873
				c0.39,0,0.672,0.073,0.844,0.197c0.173,0.141,0.346,0.438,0.503,0.904l6.43,19.138
				C758.9,198.039,758.944,198.207,758.944,198.303z M752.704,188.807c0-0.081-0.045-0.226-0.129-0.427l-2.472-7.804
				c-0.068-0.206-0.141-0.302-0.25-0.302c-0.071,0-0.172,0.112-0.248,0.33l-2.592,7.809c-0.069,0.16-0.098,0.297-0.098,0.394
				c0,0.145,0.105,0.22,0.31,0.22h5.141C752.592,189.027,752.704,188.952,752.704,188.807z"/>
			<path fill="#006DB7" d="M800,198.118c0,0.37-0.189,0.559-0.574,0.559h-9.771c-0.345,0-0.51-0.188-0.51-0.559v-19.716
				c0-0.369,0.165-0.547,0.51-0.547h1.962c0.369,0,0.551,0.178,0.551,0.547v17.635c0,0.269,0.128,0.397,0.361,0.397h6.896
				c0.385,0,0.574,0.186,0.574,0.555V198.118z"/>
		</g>
	</g>
	<path fill="#006DB7" d="M0,0v198.307h198.308V0H0z M99.16,163.164c-35.354,0-64.015-28.658-64.015-64
		c0-35.359,28.66-64.017,64.015-64.017c35.347,0,63.998,28.658,63.998,64.017C163.158,134.505,134.507,163.164,99.16,163.164z"/>
</g>
</svg>
