<svg xmlns="http://www.w3.org/2000/svg" width="18" height="14" viewBox="0 0 18 14">
  <g id="Group_4935" data-name="Group 4935" transform="translate(-1254 -995)">
    <g id="Path_20654" data-name="Path 20654" transform="translate(1254 995)" fill="#fff">
      <path d="M 16 13.5 L 10.3519401550293 13.5 L 8.222339630126953 13.5 L 7.784649848937988 13.5 L 2 13.5 C 1.172899961471558 13.5 0.5 12.82709980010986 0.5 12 L 0.5 2 C 0.5 1.172899961471558 1.172899961471558 0.5 2 0.5 L 16 0.5 C 16.82710075378418 0.5 17.5 1.172899961471558 17.5 2 L 17.5 12 C 17.5 12.82709980010986 16.82710075378418 13.5 16 13.5 Z" stroke="none"/>
      <path d="M 2 1 C 1.448600769042969 1 1 1.448599815368652 1 2 L 1 12 C 1 12.55140018463135 1.448600769042969 13 2 13 L 16 13 C 16.55139923095703 13 17 12.55140018463135 17 12 L 17 2 C 17 1.448599815368652 16.55139923095703 1 16 1 L 2 1 M 2 0 L 16 0 C 17.10457038879395 0 18 0.8954296112060547 18 2 L 18 12 C 18 13.10457038879395 17.10457038879395 14 16 14 L 2 14 C 0.8954296112060547 14 0 13.10457038879395 0 12 L 0 2 C 0 0.8954296112060547 0.8954296112060547 0 2 0 Z" stroke="none" fill="#666"/>
    </g>
    <line id="Line_277" data-name="Line 277" x2="6" transform="translate(1257.5 999)" fill="none" stroke="#666" stroke-linecap="round" stroke-width="1"/>
    <line id="Line_278" data-name="Line 278" x2="10" transform="translate(1257.5 1002)" fill="none" stroke="#666" stroke-linecap="round" stroke-width="1"/>
    <line id="Line_279" data-name="Line 279" x2="10" transform="translate(1257.5 1005)" fill="none" stroke="#666" stroke-linecap="round" stroke-width="1"/>
  </g>
</svg>
