<?xml version="1.0" encoding="utf-8"?>
<!-- Generator: Adobe Illustrator 27.1.1, SVG Export Plug-In . SVG Version: 6.00 Build 0)  -->
<svg version="1.1" id="Layer_1" xmlns="http://www.w3.org/2000/svg" xmlns:xlink="http://www.w3.org/1999/xlink" x="0px" y="0px"
	 width="103.6px" height="128px" viewBox="0 0 103.6 128" style="enable-background:new 0 0 103.6 128;" xml:space="preserve">
<style type="text/css">
	.st0{fill:#BF2626;}
	.st1{fill:#FFAEAE;}
	.st2{fill:#FFFFFF;}
	.st3{fill:#3FA9F5;}
	.st4{fill:#AEE0FF;}
	.st5{fill:#FA8D00;}
	.st6{fill:#FFDBB3;}
	.st7{fill:#00C783;}
	.st8{fill:#AEFFE0;}
	.st9{fill:#32A532;}
	.st10{fill:#89EF89;}
	.st11{fill:#D87825;}
	.st12{fill:#FFC1AE;}
</style>
<g>
	<path class="st3" d="M8.9,0C4,0,0,4,0,8.9v110.1c0,4.9,4,8.9,8.9,8.9h85.8c4.9,0,8.9-4,8.9-8.9V31.9L71.7,0H8.9z"/>
	<path class="st4" d="M80.7,31.9h22.9L71.7,0v22.9C71.7,27.9,75.7,31.9,80.7,31.9z"/>
	<g>
		<path class="st2" d="M18.7,77.9V55.1h8.1c8.1,0,12.1,3.7,12.1,11.1c0,3.5-1.1,6.4-3.3,8.5c-2.2,2.1-5.1,3.2-8.8,3.2H18.7z
			 M23.8,59.3v14.4h2.5c2.2,0,4-0.7,5.2-2c1.3-1.3,1.9-3.1,1.9-5.4c0-2.2-0.6-3.9-1.9-5.1c-1.3-1.2-3-1.9-5.3-1.9H23.8z"/>
		<path class="st2" d="M52.3,78.3c-3.3,0-5.9-1.1-8-3.2c-2.1-2.1-3.1-4.9-3.1-8.3c0-3.6,1-6.5,3.1-8.7c2.1-2.2,4.8-3.3,8.3-3.3
			c3.2,0,5.9,1.1,7.9,3.2c2,2.1,3,4.9,3,8.4c0,3.6-1,6.5-3.1,8.7C58.4,77.2,55.7,78.3,52.3,78.3z M52.5,59.2c-1.8,0-3.2,0.7-4.3,2
			c-1.1,1.3-1.6,3.1-1.6,5.4c0,2.3,0.5,4,1.6,5.3c1.1,1.3,2.4,2,4.2,2c1.8,0,3.2-0.6,4.2-1.9c1-1.3,1.6-3,1.6-5.3
			c0-2.4-0.5-4.2-1.5-5.5C55.7,59.8,54.3,59.2,52.5,59.2z"/>
		<path class="st2" d="M83.7,77.1c-1.7,0.8-3.8,1.2-6.5,1.2c-3.5,0-6.2-1-8.2-3.1c-2-2.1-3-4.8-3-8.2c0-3.6,1.1-6.6,3.4-8.9
			c2.2-2.3,5.2-3.4,8.8-3.4c2.2,0,4.1,0.3,5.6,0.8v4.9c-1.5-0.9-3.3-1.4-5.2-1.4c-2.1,0-3.9,0.7-5.2,2c-1.3,1.3-2,3.2-2,5.5
			c0,2.2,0.6,4,1.9,5.3c1.2,1.3,2.9,2,5,2c2,0,3.8-0.5,5.5-1.5V77.1z"/>
	</g>
</g>
</svg>
