<?xml version="1.0" encoding="utf-8"?>
<!-- Generator: Adobe Illustrator 27.8.1, SVG Export Plug-In . SVG Version: 6.00 Build 0)  -->
<svg version="1.1" id="Layer_1" xmlns="http://www.w3.org/2000/svg" xmlns:xlink="http://www.w3.org/1999/xlink" x="0px" y="0px"
	 width="100px" height="90.3px" viewBox="0 0 100 90.3" style="enable-background:new 0 0 100 90.3;" xml:space="preserve">
<style type="text/css">
	.st0{fill:none;stroke:#000000;stroke-width:3;stroke-linecap:round;stroke-linejoin:round;stroke-miterlimit:10;}
	.st1{fill:#FFFFFF;}
</style>
<g>
	<path d="M99.3,12.8c-1.1-2.3-3.3-3.2-6.9-2.9H75.1l-5.6-9.2C69.2,0.3,68.7,0,68.2,0H31.8c-0.5,0-1,0.3-1.3,0.7L25,9.9l-14.3,0
		C6.3,9.8,3.7,9.8,2,11.1c-1.9,1.5-2.2,4.3-1.9,8.6c0,7.9,0,16.2,0,24.5c0,8.3,0,16.6,0,24.6l0,12.4c-0.1,1.5,0.5,3,1.5,4
		C2.6,86.4,4,87,5.5,87c0,0,0,0,0,0H9c0.8,0,1.5-0.7,1.5-1.5c0-0.8-0.7-1.5-1.5-1.5H5.5c0,0,0,0,0,0c-0.7,0-1.3-0.3-1.8-0.8
		C3.2,82.8,3,82.1,3,81.3V68.8c0-4.2,0-8.5,0-12.8l11.7-6.7c0.4-0.3,1-0.3,1.5,0l12,6.7c1,2.4,2.3,4.5,4,6.4l-3.1,3.1
		c-0.6,0.6-0.6,1.5,0,2.1c0.3,0.3,0.7,0.4,1,0.4s0.8-0.1,1-0.4l3.1-3.1c4.2,3.7,9.6,6,15.6,6c9.8,0,18.1-6,21.7-14.5l12.1-6.7
		c0.4-0.2,1-0.2,1.5,0L97,56l0,25.6c0,0.7-0.3,1.3-0.7,1.7c-0.5,0.5-1.1,0.7-1.7,0.7H91c-0.8,0-1.5,0.7-1.5,1.5
		c0,0.8,0.7,1.5,1.5,1.5h3.5c1.5,0,2.8-0.6,3.8-1.6c1-1,1.6-2.4,1.6-3.8l0-61.8l0-0.4C100,16.8,100.1,14.6,99.3,12.8z M31,54.9
		c0-0.3-0.1-0.5-0.3-0.7c-0.8-2.2-1.3-4.6-1.3-7.2c0-11.3,9.2-20.6,20.6-20.6c5.1,0,9.7,1.9,13.3,4.9L34.4,60.3
		C33,58.7,31.9,56.9,31,54.9z M50,67.5c-5.2,0-9.9-1.9-13.5-5.1l29-29c3.2,3.6,5.1,8.3,5.1,13.5C70.6,58.3,61.3,67.5,50,67.5z
		 M86.8,46.8c-1.3-0.8-3-0.8-4.4,0L73,51.9c0.3-1.6,0.5-3.3,0.5-5c0-6-2.3-11.5-6-15.6l3.3-3.3c0.6-0.6,0.6-1.5,0-2.1
		c-0.6-0.6-1.5-0.6-2.1,0l-3.3,3.3c-4.1-3.6-9.5-5.8-15.4-5.8C37,23.4,26.5,34,26.5,47c0,1.7,0.2,3.3,0.5,4.9l-9.3-5.2
		c-1.4-0.7-3-0.7-4.4,0L3,52.6c0-2.8,0-5.6,0-8.4C3,36,3,27.7,3,19.7c-0.2-3.8,0-5.6,0.8-6.2c1-0.8,3.6-0.7,6.8-0.6h15.1
		c0,0,0,0,0,0c0.5,0,1-0.3,1.3-0.7L32.7,3h34.7l5.6,9.2c0.3,0.4,0.7,0.7,1.3,0.7h18.2c0,0,0.1,0,0.1,0c3.3-0.3,3.8,0.8,4,1.2
		c0.5,1.1,0.5,3.1,0.4,5.3l0,33.3L86.8,46.8z"/>
	<g>
		<path d="M20.2,85.1l-1-2h0v7h-1.7v-9.7h2l2.9,5l1,2h0v-7h1.7v9.7h-2L20.2,85.1z"/>
		<path d="M27,85.3c0-3.3,1.7-5,4.2-5c2.5,0,4.2,1.7,4.2,5c0,3.3-1.7,5-4.2,5C28.7,90.3,27,88.5,27,85.3z M33.5,86v-1.5
			c0-1.6-0.9-2.6-2.3-2.6c-1.4,0-2.3,1-2.3,2.6V86c0,1.6,0.9,2.6,2.3,2.6C32.6,88.7,33.5,87.7,33.5,86z"/>
		<path d="M40.2,90.1v-1.5h1.3v-6.7h-1.3v-1.5h4.4v1.5h-1.3v6.7h1.3v1.5H40.2z"/>
		<path d="M46.4,80.4h2.1l2.5,4.7H51l2.5-4.7h2v9.7h-1.7v-6.9h-0.1l-0.7,1.5l-2,3.7l-2-3.7l-0.7-1.5h-0.1v6.9h-1.7V80.4z"/>
		<path d="M63.7,90.1l-0.8-2.5h-3.4l-0.8,2.5h-1.9l3.2-9.7h2.3l3.2,9.7H63.7z M61.2,82.1L61.2,82.1l-1.3,4h2.5L61.2,82.1z"/>
		<path d="M72.8,88.6L72.8,88.6c-0.2,0.9-1.1,1.7-2.6,1.7c-2.3,0-4-1.7-4-5s1.7-5,4.3-5c1.7,0,3,0.8,3.7,2.2l-1.5,0.9
			c-0.3-0.8-1-1.5-2.2-1.5c-1.4,0-2.4,0.9-2.4,2.6V86c0,1.7,0.9,2.6,2.4,2.6c1.1,0,2.1-0.6,2.1-1.6v-0.6h-1.9v-1.5h3.7v5.3h-1.6
			V88.6z"/>
		<path d="M76.5,90.1v-9.7h6.4v1.6h-4.5v2.3h4V86h-4v2.5h4.5v1.6H76.5z"/>
	</g>
</g>
</svg>
