<?xml version="1.0" encoding="utf-8"?>
<!-- Generator: Adobe Illustrator 27.1.1, SVG Export Plug-In . SVG Version: 6.00 Build 0)  -->
<svg version="1.1" xmlns="http://www.w3.org/2000/svg" xmlns:xlink="http://www.w3.org/1999/xlink" x="0px" y="0px" width="340.2px"
	 height="340.2px" viewBox="0 0 340.2 340.2" style="enable-background:new 0 0 340.2 340.2;" xml:space="preserve">
<style type="text/css">
	.st0{fill:#0056A7;}
	.st1{fill:#FFFFFF;}
	.st2{fill:none;}
	.st3{fill:#ED1C24;}
	.st4{fill:#FFFFFF;stroke:#FFFFFF;stroke-miterlimit:10;}
</style>
<g id="Layer_1">
	<rect x="35.9" y="232" class="st0" width="268.3" height="40.8"/>
	<g>
		<polygon class="st2" points="219.2,148 215.2,148 214.7,151.7 206.2,151.8 205.5,156.1 218,156.1 		"/>
		<path class="st2" d="M210.6,172.2l2.3-4.4l-1.2-0.8l1.7-3.1l1.6,0.1l2.3-4.3l-13.2-0.1l-2.4,4.5L210.6,172.2z M206.6,163.1
			c0.5,0.1,1,0.2,1.6,0.3l2.2,0.3l-0.9,1.7l-3-2L206.6,163.1z"/>
		<path class="st2" d="M173.6,141.5l-2.4,2.1c-3.6,2.9-6.4,7.3-6.4,11.7c0,7.2,6.1,12.1,13.6,11c7.6-1.1,13.5-7.8,13.5-15
			c0-4.5-2.9-8-6.5-9.8l-2.4-1.4c-3.1-1.6-4.7-5.1-4.7-9.3l0,0C178.2,135.1,176.6,139,173.6,141.5z"/>
		<polygon class="st2" points="154,229.9 211.1,229.9 176.3,208.3 		"/>
		<path class="st2" d="M186.5,176.5c-3.7,1.6-5.9,5.1-4.8,8.5c1.1,3.5,4.8,4.3,8.5,2.7c3.7-1.6,6-4.9,4.8-8.4
			C193.9,175.9,190.2,174.9,186.5,176.5z M189.1,184.3c-1.3,0.6-2.5,0.1-2.9-1.1c-0.4-1.2,0.2-2.5,1.5-3.1c1.4-0.6,2.6,0,2.9,1.2
			C191.1,182.5,190.4,183.7,189.1,184.3z"/>
		<path class="st2" d="M204.1,168.6c-2-1.9-4.7-1.3-6.9,0.8l-4.4,4.2l8.2,7.9l3.3-3.2l-2.5-2.4l1.8-1.7
			C205.6,172.4,205.8,170.3,204.1,168.6z M200.2,173.7l-0.3,0.3l-1.4-1.4l0.3-0.3c0.6-0.5,1.3-1.2,2-0.6
			C201.4,172.4,200.8,173.1,200.2,173.7z"/>
		<path class="st2" d="M178.3,190.6l-0.1-11.5c-15,2.2-27.1-7.4-27.2-21.6c0-8.8,4.6-17.4,11.8-23l3.2-2.4
			c7.2-5.7,11.9-14.2,11.8-23l-0.2-19.8c0.1,13.4-7.4,26.4-18.7,34.6l-1.5,1c-11.2,8.2-18.6,21.1-18.6,34.5
			C139,179.8,156.6,193.8,178.3,190.6z"/>
		<path class="st2" d="M166.5,135.4l-0.9,0.6c-6.8,5-11.3,12.8-11.2,20.9c0.1,12.4,10.7,20.9,23.8,18.9h0c0,0,0,0,0,0
			c13.1-2,23.7-13.6,23.6-26l-7.3,1.1c0,8.6-7.3,16.6-16.3,18c-9,1.4-16.4-4.5-16.5-13.1c0-5.4,2.8-10.5,7.2-13.9l1.9-1.4
			c4.3-3.4,7.2-8.6,7.2-13.9l-0.1-12C177.9,122.6,173.3,130.4,166.5,135.4z"/>
		<path class="st3" d="M210.4,163.6l-2.2-0.3c-0.5-0.1-1.1-0.2-1.6-0.3l-0.1,0.2l3,2L210.4,163.6z"/>
		<path class="st3" d="M187.7,180.1c-1.4,0.6-1.9,1.9-1.5,3.1c0.4,1.2,1.6,1.7,2.9,1.1c1.3-0.6,2-1.8,1.6-3.1
			C190.3,180.1,189.1,179.5,187.7,180.1z"/>
		<path class="st3" d="M198.8,172.3l-0.3,0.3l1.4,1.4l0.3-0.3c0.6-0.6,1.2-1.3,0.5-1.9C200.1,171.1,199.3,171.8,198.8,172.3z"/>
		<path class="st3" d="M176.3,208.3l34.9,21.6h32.4l-21.8-58.2l72.5-79.4l-90.5,15.7l-25.2-86.4l-36.2,99.5l-94.6,16.5l72.6,42.3
			l-21.4,49.9H154L176.3,208.3z M190.2,187.7c-3.7,1.6-7.3,0.7-8.5-2.7c-1.1-3.4,1.1-6.9,4.8-8.5c3.7-1.6,7.4-0.6,8.5,2.8
			C196.2,182.8,193.9,186.2,190.2,187.7z M204.3,178.3l-3.3,3.2l-8.2-7.9l4.4-4.2c2.2-2.1,4.9-2.8,6.9-0.8c1.7,1.6,1.5,3.8-0.5,5.6
			l-1.8,1.7L204.3,178.3z M206.2,151.8l8.4,0l0.6-3.7l4,0l-1.2,8l-12.4,0.1L206.2,151.8z M204.1,159.6l13.2,0.1l-2.3,4.3l-1.6-0.1
			l-1.7,3.1l1.2,0.8l-2.3,4.4l-8.9-8.1L204.1,159.6z M178.3,130.8c0,4.3,1.7,7.8,4.7,9.3l2.4,1.4c3.7,1.8,6.5,5.3,6.5,9.8
			c0,7.2-5.9,13.9-13.5,15c-7.6,1.1-13.6-3.8-13.6-11c0-4.5,2.8-8.9,6.4-11.7l2.4-2.1C176.6,139,178.2,135.1,178.3,130.8
			L178.3,130.8z M170.8,140.4l-1.9,1.4c-4.3,3.4-7.2,8.6-7.2,13.9c0,8.6,7.4,14.4,16.5,13.1c9-1.4,16.3-9.4,16.3-18l7.3-1.1
			c0.1,12.4-10.5,24.1-23.6,26c0,0,0,0,0,0h0c-13.1,2-23.8-6.5-23.8-18.9c0-8.1,4.5-15.9,11.2-20.9l0.9-0.6
			c6.8-5,11.4-12.8,11.3-20.9l0.1,12C178,131.8,175.1,137,170.8,140.4z M157.5,124.8l1.5-1c11.3-8.2,18.8-21.1,18.7-34.6l0.2,19.8
			c0,8.8-4.7,17.4-11.8,23l-3.2,2.4c-7.2,5.7-11.9,14.2-11.8,23c0.1,14.2,12.2,23.8,27.2,21.6l0.1,11.5
			c-21.6,3.2-39.3-10.8-39.4-31.3C138.8,145.9,146.3,133.1,157.5,124.8z"/>
		<polygon class="st3" points="59.6,321.4 106.8,275.7 79.2,275.7 		"/>
	</g>
	<g>
		<path class="st4" d="M97.1,252.7c0,9-7.6,16.3-16.5,16.3c-9,0-16.5-7.4-16.5-16.3c0-9,7.5-16.3,16.5-16.3
			C89.6,236.3,97.1,243.7,97.1,252.7z M66.1,252.7c0,7.9,6.5,14.4,14.5,14.4c7.9,0,14.5-6.6,14.5-14.4c0-7.9-6.6-14.4-14.5-14.4
			C72.7,238.2,66.1,244.8,66.1,252.7z"/>
		<path class="st4" d="M109.2,268.6h-2v-31.8h5.6c2.5,0,4.9,0.2,6.9,1.9c1.9,1.6,2.9,4.1,2.9,6.5c0,2.3-0.9,4.8-2.7,6.3
			c-1.9,1.7-4.6,2-7.1,2h-3.6V268.6z M112.8,251.6c2.1,0,3.9-0.3,5.6-1.7c1.4-1.3,2.1-2.9,2.1-4.8c0-2-0.8-4-2.4-5.2
			c-1.6-1.2-3.6-1.3-5.6-1.3h-3.3v12.9H112.8z"/>
		<path class="st4" d="M131.9,258.1l-4.3,10.5h-2.1l13.3-32.9l13.3,32.9h-2.1l-4.3-10.5H131.9z M138.9,240.8l-6.2,15.4h12.5
			L138.9,240.8z"/>
		<path class="st4" d="M162.9,266.7h8.1v1.9h-10.1v-31.8h2V266.7z"/>
		<path class="st4" d="M217.2,236.7h2v19.8c0,3.3,0,6-2.2,8.7c-2.2,2.4-5.4,3.7-8.7,3.7c-3.2,0-6.5-1.3-8.7-3.7
			c-2.2-2.7-2.2-5.4-2.2-8.7v-19.8h2V256c0,2.9,0,5.9,1.6,8c1.6,2,4.7,3.1,7.1,3.1c2.4,0,5.6-1.1,7.1-3.1c1.6-2.1,1.6-5.2,1.6-8
			V236.7z"/>
		<path class="st4" d="M245.6,242c-1.4-2.3-3.5-3.8-6.5-3.8c-3.4,0-6,2.7-6,6.1c0,3.3,3.2,4.7,5.7,6l6.1,3.2
			c2.4,1.5,3.6,3.5,3.6,6.3c0,5.3-4.8,9.2-10,9.2c-4.4,0-7.9-2.7-9.4-6.8l1.8-0.8c1.4,3.4,3.8,5.7,7.7,5.7c4.2,0,7.9-3.3,7.9-7.5
			c0-3.6-3.7-5.1-6.4-6.5l-5.7-3c-2.1-1.3-3.3-3.2-3.3-5.7c0-4.7,3.4-8.1,8.1-8.1c3.2,0,6.2,1.7,7.8,4.5L245.6,242z"/>
		<path class="st4" d="M260.9,268.6h-2v-31.8h5.6c2.5,0,4.9,0.2,6.9,1.9c1.9,1.6,2.9,4.1,2.9,6.5c0,2.3-0.9,4.8-2.7,6.3
			c-1.9,1.7-4.6,2-7.1,2h-3.6V268.6z M264.6,251.6c2.1,0,3.9-0.3,5.6-1.7c1.4-1.3,2.1-2.9,2.1-4.8c0-2-0.8-4-2.4-5.2
			c-1.6-1.2-3.6-1.3-5.6-1.3h-3.3v12.9H264.6z"/>
	</g>
</g>
<g id="Layer_2">
</g>
</svg>
