<?xml version="1.0" encoding="utf-8"?>
<!-- Generator: Adobe Illustrator 16.0.0, SVG Export Plug-In . SVG Version: 6.00 Build 0)  -->
<!DOCTYPE svg PUBLIC "-//W3C//DTD SVG 1.1//EN" "http://www.w3.org/Graphics/SVG/1.1/DTD/svg11.dtd">
<svg version="1.1" id="Layer_1" xmlns="http://www.w3.org/2000/svg" xmlns:xlink="http://www.w3.org/1999/xlink" x="0px" y="0px"
	 width="512px" height="512px" viewBox="0 0 512 512" enable-background="new 0 0 512 512" xml:space="preserve">
<path fill="#DA1F26" d="M104.307,0.74c-15.701,0-28.438,12.737-28.438,28.445v455.116c0,15.708,12.738,28.438,28.438,28.438h327.12
	c15.708,0,28.438-12.73,28.438-28.438V132.465L322.758,0.74H104.307L104.307,0.74z"/>
<path fill="#CA2027" d="M459.871,132.465H351.204c-15.709,0-28.439-12.738-28.439-28.446V0.74L459.871,132.465z"/>
<path fill="#BF2026" d="M317.086,317.46c0,18.131-14.696,32.826-32.82,32.826H44.66c-18.131,0-32.819-14.695-32.819-32.826V217.183
	c0-18.132,14.688-32.82,32.819-32.82h239.606c18.124,0,32.82,14.688,32.82,32.82V317.46z"/>
<g>
	<path fill="#FFFFFF" d="M102.229,278.12H89.851v18.89c0,2.702-0.64,4.747-1.912,6.146c-1.272,1.398-2.882,2.09-4.827,2.09
		c-2.037,0-3.675-0.691-4.914-2.07c-1.238-1.379-1.865-3.409-1.865-6.079v-51.43c0-2.977,0.686-5.1,2.05-6.373
		s3.537-1.911,6.512-1.911h17.34c5.134,0,9.067,0.394,11.831,1.186c2.73,0.759,5.094,2.018,7.078,3.776
		c1.984,1.758,3.489,3.915,4.526,6.465c1.038,2.55,1.545,5.413,1.545,8.603c0,6.798-2.091,11.945-6.278,15.453
		C116.75,276.377,110.512,278.12,102.229,278.12z M98.953,247.532h-9.102v20.395h9.102c3.188,0,5.846-0.332,7.99-0.997
		c2.129-0.666,3.761-1.76,4.886-3.277c1.125-1.517,1.686-3.502,1.686-5.966c0-2.944-0.866-5.341-2.596-7.191
		C108.98,248.516,104.992,247.532,98.953,247.532z"/>
	<path fill="#FFFFFF" d="M146.88,237.383h17.619c4.581,0,8.509,0.426,11.792,1.272c3.284,0.845,6.246,2.443,8.923,4.782
		c6.951,5.945,10.42,14.988,10.42,27.127c0,4.009-0.352,7.663-1.044,10.968c-0.692,3.302-1.778,6.284-3.23,8.94
		c-1.452,2.657-3.323,5.028-5.6,7.126c-1.792,1.61-3.75,2.897-5.873,3.869c-2.125,0.971-4.408,1.658-6.846,2.051
		c-2.442,0.393-5.2,0.592-8.264,0.592h-17.619c-2.457,0-4.308-0.373-5.554-1.113c-1.246-0.738-2.057-1.792-2.431-3.144
		c-0.386-1.351-0.573-3.101-0.573-5.26v-48.925c0-2.917,0.653-5.02,1.958-6.326S143.971,237.383,146.88,237.383z M152.114,248.077
		v45.292h10.241c2.244,0,4.01-0.062,5.28-0.181c1.272-0.118,2.596-0.426,3.961-0.913c1.365-0.486,2.549-1.165,3.547-2.05
		c4.522-3.821,6.786-10.407,6.786-19.757c0-6.585-0.993-11.511-2.978-14.795c-1.991-3.276-4.441-5.367-7.351-6.258
		c-2.909-0.892-6.433-1.346-10.56-1.346h-8.929v0.007H152.114z"/>
	<path fill="#FFFFFF" d="M247.383,247.805h-26.627v17.065h22.26c2.064,0,3.602,0.459,4.614,1.384
		c1.018,0.926,1.525,2.165,1.525,3.709s-0.512,2.776-1.545,3.688c-1.032,0.912-2.564,1.366-4.594,1.366h-22.26v21.986
		c0,2.789-0.631,4.857-1.892,6.212c-1.251,1.352-2.875,2.022-4.847,2.022c-2.004,0-3.636-0.686-4.895-2.052
		c-1.25-1.363-1.884-3.428-1.884-6.191v-51.33c0-1.944,0.286-3.528,0.865-4.755c0.581-1.224,1.479-2.125,2.71-2.683
		c1.224-0.559,2.797-0.838,4.707-0.838h31.861c2.151,0,3.754,0.479,4.801,1.43c1.052,0.96,1.571,2.21,1.571,3.755
		c0,1.578-0.52,2.843-1.571,3.803C251.14,247.325,249.535,247.805,247.383,247.805z"/>
</g>
</svg>
