<?xml version="1.0" encoding="utf-8"?>
<!-- Generator: Adobe Illustrator 16.0.0, SVG Export Plug-In . SVG Version: 6.00 Build 0)  -->
<!DOCTYPE svg PUBLIC "-//W3C//DTD SVG 1.1//EN" "http://www.w3.org/Graphics/SVG/1.1/DTD/svg11.dtd">
<svg version="1.1" id="Layer_1" xmlns="http://www.w3.org/2000/svg" xmlns:xlink="http://www.w3.org/1999/xlink" x="0px" y="0px"
	 width="512px" height="512px" viewBox="0 0 512 512" enable-background="new 0 0 512 512" xml:space="preserve">
<g>
	<g>
		<g>
			<path fill="#294B90" stroke="#294B90" stroke-width="6" stroke-miterlimit="10" d="M413.805,225.479h-7.19v-63.96
				c0-82.656-67.236-149.972-150.011-149.972c-82.656,0-149.973,67.216-149.973,149.972c0,7.631,6.112,13.723,13.744,13.723
				c7.63,0,13.742-6.092,13.742-13.723c0-67.515,54.892-122.526,122.487-122.526c67.515,0,122.525,54.911,122.525,122.526v63.96
				H99.52c-14.622,0-26.527,11.904-26.527,26.547v170.926c0,43.824,35.675,79.501,79.501,79.501h208.338
				c43.826,0,79.541-35.677,79.541-79.501V252.027C440.372,237.384,428.467,225.479,413.805,225.479z M412.887,422.952
				c0,28.644-23.251,52.055-52.056,52.055H152.613c-28.685,0-52.055-23.291-52.055-52.055V252.925h312.329V422.952L412.887,422.952z
				"/>
			<path fill="#294B90" stroke="#294B90" stroke-width="6" stroke-miterlimit="10" d="M360.831,513H152.493
				c-49.652,0-90.047-40.395-90.047-90.047V252.027c0-20.454,16.631-37.094,37.074-37.094h269.063v-53.414
				c0-61.746-50.233-111.979-111.979-111.979c-61.724,0-111.94,50.234-111.94,111.979c0,13.382-10.896,24.27-24.289,24.27
				c-13.394,0-24.291-10.888-24.291-24.27C96.084,73.009,168.092,1,256.604,1c88.531,0,160.558,72.008,160.558,160.519v53.564
				c18.898,1.7,33.758,17.62,33.758,36.944v170.926C450.919,472.605,410.506,513,360.831,513z M99.52,236.026
				c-8.812,0-15.98,7.178-15.98,16v170.926c0,38.021,30.933,68.954,68.954,68.954h208.338c38.044,0,68.994-30.933,68.994-68.954
				V252.027c0-8.823-7.187-16-16.021-16h-17.737v-74.507c0-76.879-62.563-139.425-139.464-139.425
				c-76.88,0-139.426,62.545-139.426,139.425c0,1.811,1.374,3.176,3.197,3.176c1.821,0,3.195-1.366,3.195-3.176
				c0-73.377,59.678-133.073,133.034-133.073c73.376,0,133.072,59.696,133.072,133.073v74.507H99.52z M360.831,485.554H152.613
				c-34.519,0-62.602-28.083-62.602-62.602V242.378h333.422v180.574C423.434,457.471,395.35,485.554,360.831,485.554z
				 M111.104,263.472v159.48c0,22.888,18.621,41.508,41.509,41.508h208.218c22.888,0,41.509-18.62,41.509-41.508v-159.48H111.104z"
				/>
		</g>
		<g>
			<path fill="#294B90" stroke="#294B90" stroke-width="6" stroke-miterlimit="10" d="M256.723,417.359
				c28.363,0,51.335-23.092,51.335-51.376c0-28.364-23.05-51.336-51.335-51.336c-28.363,0-51.335,23.091-51.335,51.336
				C205.386,394.268,228.358,417.359,256.723,417.359z M256.723,342.013c13.223,0,23.89,10.787,23.89,23.891
				s-10.667,23.97-23.89,23.97c-13.223,0-23.89-10.746-23.89-23.89C232.832,352.88,243.499,342.013,256.723,342.013z"/>
			<path fill="#294B90" stroke="#294B90" stroke-width="6" stroke-miterlimit="10" d="M256.723,427.906
				c-16.528,0-32.073-6.456-43.771-18.179c-11.68-11.705-18.112-27.241-18.112-43.744c0-34.122,27.76-61.882,61.882-61.882
				s61.882,27.76,61.882,61.882C318.604,400.127,290.845,427.906,256.723,427.906z M256.723,325.194
				c-22.491,0-40.789,18.298-40.789,40.789c0,10.878,4.244,21.122,11.95,28.845c7.711,7.728,17.953,11.984,28.839,11.984
				c22.491,0,40.788-18.316,40.788-40.829C297.511,343.492,279.214,325.194,256.723,325.194z M256.723,400.42
				c-18.988,0-34.437-15.448-34.437-34.437c0-9.157,3.566-17.796,10.044-24.326c6.519-6.572,15.182-10.191,24.392-10.191
				c18.988,0,34.437,15.449,34.437,34.438C291.159,384.937,275.711,400.42,256.723,400.42z M256.723,352.56
				c-3.544,0-6.888,1.403-9.417,3.952c-2.532,2.553-3.927,5.916-3.926,9.471c0,7.358,5.985,13.344,13.343,13.344
				s13.343-6.021,13.343-13.423C270.065,358.546,264.08,352.56,256.723,352.56z"/>
		</g>
	</g>
</g>
</svg>
