<?xml version="1.0" encoding="utf-8"?>
<!-- Generator: Adobe Illustrator 16.0.0, SVG Export Plug-In . SVG Version: 6.00 Build 0)  -->
<!DOCTYPE svg PUBLIC "-//W3C//DTD SVG 1.1//EN" "http://www.w3.org/Graphics/SVG/1.1/DTD/svg11.dtd">
<svg version="1.1" id="Layer_1" xmlns="http://www.w3.org/2000/svg" xmlns:xlink="http://www.w3.org/1999/xlink" x="0px" y="0px"
	 width="170.068px" height="190px" viewBox="0 0 170.068 190" enable-background="new 0 0 170.068 190" xml:space="preserve">
<g>
	<rect y="133.331" fill="#0B4B9A" width="170.068" height="25.834"/>
	<g>
		<path fill="#FFFFFF" d="M18.523,136.826H20.4l6.515,18.127h-1.42l-2.002-5.552h-8.164l-1.978,5.552h-1.344L18.523,136.826z
			 M15.734,148.26h7.353l-3.676-10.268L15.734,148.26z"/>
		<path fill="#FFFFFF" d="M42.765,136.826h1.42l4.158,15.972l4.791-15.972h0.989l4.613,16.022l4.387-16.022h1.293l-4.97,18.127
			h-1.368l-4.463-15.617l-4.716,15.617h-1.343L42.765,136.826z"/>
		<path fill="#FFFFFF" d="M86.275,136.826h1.876l6.516,18.127h-1.42l-2.003-5.552h-8.163l-1.978,5.552H79.76L86.275,136.826z
			 M83.486,148.26h7.353l-3.676-10.268L83.486,148.26z"/>
		<path fill="#FFFFFF" d="M113.153,136.826h4.97c3.523,0,6.16,1.369,6.16,4.868v0.102c0,3.016-1.978,4.41-4.69,4.791l5.755,8.366
			h-1.571l-5.68-8.265h-3.523v8.265h-1.42V136.826z M118.198,145.547c2.916,0,4.665-1.115,4.665-3.751v-0.102
			c0-2.789-1.851-3.702-4.665-3.702h-3.625v7.555H118.198z"/>
		<path fill="#FFFFFF" d="M143.835,136.826h4.715c5.983,0,9.025,3.854,9.025,8.898v0.229c0,5.02-2.89,9-9.076,9h-4.664V136.826z
			 M148.448,153.787c5.146,0,7.656-3.245,7.656-7.859v-0.203c0-4.461-2.357-7.732-7.682-7.732h-3.169v15.795H148.448z"/>
	</g>
	<g>
		<polygon fill="none" points="115.372,80.079 112.846,80.092 112.495,82.423 107.14,82.454 106.721,85.23 114.6,85.182 		"/>
		<path fill="none" d="M109.917,95.423l1.482-2.76l-0.762-0.538l1.055-1.964l0.996,0.088l1.486-2.754l-8.349-0.082l-1.547,2.878
			L109.917,95.423z M107.415,89.659c0.323,0.064,0.65,0.134,0.99,0.168l1.389,0.16l-0.561,1.048l-1.871-1.281L107.415,89.659z"/>
		<path fill="none" d="M86.46,75.961l-1.539,1.345c-2.303,1.822-4.085,4.596-4.072,7.436c0.022,4.543,3.847,7.658,8.641,6.941
			c4.795-0.717,8.584-4.97,8.562-9.514c-0.015-2.839-1.82-5.077-4.137-6.208l-1.491-0.893c-1.95-0.984-2.988-3.202-2.998-5.92
			l-0.029,0.004C89.409,71.872,88.395,74.396,86.46,75.961z"/>
		<polygon fill="none" points="74.023,132.018 110.271,132.018 88.157,118.319 		"/>
		<path fill="none" d="M94.679,98.127c-2.318,0.991-3.759,3.21-3.042,5.385c0.722,2.214,3.05,2.737,5.381,1.741
			c2.328-0.99,3.784-3.124,3.06-5.346C99.364,97.738,96.999,97.138,94.679,98.127z M96.305,103.074
			c-0.84,0.358-1.609,0.07-1.863-0.719c-0.241-0.736,0.107-1.58,0.982-1.957c0.881-0.375,1.628,0.004,1.869,0.741
			C97.552,101.926,97.146,102.717,96.305,103.074z"/>
		<path fill="none" d="M105.812,93.159c-1.283-1.234-2.948-0.833-4.358,0.518l-2.783,2.661l5.177,4.984l2.112-2.021l-1.554-1.503
			l1.119-1.076C106.759,95.551,106.869,94.177,105.812,93.159z M103.32,96.335l-0.221,0.208l-0.9-0.867l0.214-0.199
			c0.358-0.347,0.827-0.757,1.24-0.367C104.063,95.52,103.705,95.967,103.32,96.335z"/>
		<path fill="none" d="M89.428,107.048l-0.035-7.278c-9.478,1.415-17.188-4.711-17.231-13.686c-0.028-5.609,2.947-11,7.496-14.605
			l2.02-1.502c4.546-3.602,7.525-8.996,7.498-14.605l-0.148-12.547c0.044,8.524-4.708,16.705-11.861,21.91l-0.927,0.657
			c-7.102,5.205-11.808,13.354-11.767,21.843C64.537,100.23,75.708,109.101,89.428,107.048z"/>
		<path fill="none" d="M81.967,72.092l-0.563,0.397c-4.298,3.15-7.147,8.087-7.124,13.225c0.039,7.867,6.802,13.235,15.103,11.994
			h0.001c0,0,0,0,0.002,0c8.306-1.244,15.006-8.624,14.968-16.49l-4.658,0.697c0.027,5.431-4.597,10.528-10.331,11.387
			c-5.734,0.857-10.401-2.85-10.43-8.285c-0.018-3.396,1.783-6.661,4.534-8.841l1.227-0.909c2.755-2.18,4.555-5.447,4.538-8.842
			l-0.089-7.596C89.17,63.99,86.295,68.945,81.967,72.092z"/>
		<path fill="#E20613" d="M109.794,89.987l-1.389-0.16c-0.34-0.034-0.667-0.104-0.99-0.168l-0.053,0.095l1.871,1.281L109.794,89.987
			z"/>
		<path fill="#E20613" d="M95.424,100.398c-0.875,0.377-1.224,1.221-0.982,1.957c0.254,0.789,1.023,1.077,1.863,0.719
			c0.841-0.357,1.247-1.148,0.988-1.935C97.052,100.402,96.305,100.023,95.424,100.398z"/>
		<path fill="#E20613" d="M102.413,95.477l-0.214,0.199l0.9,0.867l0.221-0.208c0.385-0.368,0.742-0.815,0.333-1.226
			C103.24,94.72,102.771,95.13,102.413,95.477z"/>
		<path fill="#E20613" d="M88.157,118.319l22.113,13.698h20.524l-13.83-36.874l45.941-50.324l-57.371,9.971L89.561,0L66.583,63.104
			L6.599,73.582l46.022,26.8l-13.563,31.636h34.966L88.157,118.319z M97.018,105.253c-2.331,0.996-4.659,0.473-5.381-1.741
			c-0.717-2.175,0.724-4.394,3.042-5.385c2.32-0.989,4.686-0.389,5.398,1.78C100.802,102.129,99.346,104.263,97.018,105.253z
			 M105.959,99.301l-2.112,2.021l-5.177-4.984l2.783-2.661c1.41-1.351,3.075-1.752,4.358-0.518c1.058,1.018,0.947,2.392-0.287,3.563
			l-1.119,1.076L105.959,99.301z M107.14,82.454l5.355-0.031l0.351-2.331l2.526-0.013l-0.772,5.103l-7.879,0.049L107.14,82.454z
			 M105.826,87.413l8.349,0.082l-1.486,2.754l-0.996-0.088l-1.055,1.964l0.762,0.538l-1.482,2.76l-5.638-5.132L105.826,87.413z
			 M89.425,69.149c0.01,2.718,1.048,4.936,2.998,5.92l1.491,0.893c2.316,1.132,4.122,3.369,4.137,6.208
			c0.022,4.543-3.767,8.797-8.562,9.514c-4.794,0.717-8.618-2.398-8.641-6.941c-0.013-2.839,1.77-5.614,4.072-7.436l1.539-1.345
			c1.935-1.565,2.949-4.089,2.936-6.808L89.425,69.149z M84.695,75.267l-1.227,0.909c-2.751,2.18-4.552,5.445-4.534,8.841
			c0.028,5.435,4.695,9.142,10.43,8.285c5.734-0.859,10.358-5.956,10.331-11.387l4.658-0.697c0.038,7.866-6.662,15.246-14.968,16.49
			c-0.002,0-0.002,0-0.002,0h-0.001c-8.301,1.241-15.063-4.127-15.103-11.994c-0.023-5.138,2.826-10.075,7.124-13.225l0.563-0.397
			c4.328-3.147,7.203-8.102,7.178-13.263l0.089,7.596C89.25,69.82,87.45,73.087,84.695,75.267z M76.238,65.391l0.927-0.657
			c7.153-5.205,11.905-13.385,11.861-21.91l0.148,12.547c0.027,5.609-2.952,11.003-7.498,14.605l-2.02,1.502
			c-4.549,3.606-7.524,8.996-7.496,14.605c0.043,8.975,7.754,15.101,17.231,13.686l0.035,7.278
			c-13.72,2.053-24.891-6.817-24.956-19.814C64.431,78.745,69.137,70.595,76.238,65.391z"/>
		<polygon fill="#E20613" points="14.199,190 44.099,161.021 26.623,161.021 		"/>
	</g>
</g>
</svg>
