<?xml version="1.0" encoding="utf-8"?>
<!-- Generator: Adobe Illustrator 27.7.0, SVG Export Plug-In . SVG Version: 6.00 Build 0)  -->
<svg version="1.1" id="Layer_1" xmlns="http://www.w3.org/2000/svg" xmlns:xlink="http://www.w3.org/1999/xlink" x="0px" y="0px"
	 width="103.6px" height="128px" viewBox="0 0 103.6 128" style="enable-background:new 0 0 103.6 128;" xml:space="preserve">
<style type="text/css">
	.st0{fill:#BF2626;}
	.st1{fill:#FFAEAE;}
	.st2{fill:#FFFFFF;}
	.st3{fill:#3FA9F5;}
	.st4{fill:#AEE0FF;}
	.st5{fill:#FA8D00;}
	.st6{fill:#FFDBB3;}
	.st7{fill:#00C783;}
	.st8{fill:#AEFFE0;}
	.st9{fill:#32A532;}
	.st10{fill:#89EF89;}
	.st11{fill:#D87825;}
	.st12{fill:#FFC1AE;}
	.st13{fill:#F15A24;}
	.st14{fill:#FF8D6D;}
	.st15{fill:#00A99D;}
	.st16{fill:#88D3C5;}
</style>
<g>
	<path class="st15" d="M8.9,0C4,0,0,4,0,8.9v110.1c0,4.9,4,8.9,8.9,8.9h85.8c4.9,0,8.9-4,8.9-8.9V31.9L71.7,0H8.9z"/>
	<path class="st16" d="M80.7,31.9h22.9L71.7,0v22.9C71.7,27.9,75.7,31.9,80.7,31.9z"/>
	<g>
		<path class="st2" d="M34.7,69c0,3.1-0.7,5.5-2.2,7.1c-1.4,1.6-3.5,2.5-6.2,2.5c-1.2,0-2.3-0.2-3.4-0.6V73c0.9,0.7,1.9,1,3,1
			c2.4,0,3.6-1.8,3.6-5.3V55h5.2V69z"/>
		<path class="st2" d="M53.1,59.3h-8.2V65h7.5v4.2h-7.5v9h-5.2V55h13.4V59.3z"/>
		<path class="st2" d="M64,55v4h-1.9v15H64v4h-9.1v-4h1.9v-15h-1.9v-4H64z"/>
		<path class="st2" d="M80.7,59.3h-8.2V65H80v4.2h-7.5v9h-5.2V55h13.4V59.3z"/>
	</g>
</g>
</svg>
