<?xml version="1.0" encoding="UTF-8"?>
<svg id="Layer_1" data-name="Layer 1" xmlns="http://www.w3.org/2000/svg" viewBox="0 0 100 100">
  <defs>
    <style>
      .cls-1 {
        fill: #ee1c27;
      }
    </style>
  </defs>
  <path class="cls-1" d="m42.49,88.6H14.27c-2.2,0-3.99-1.79-3.99-3.99V15.4c0-2.2,1.79-3.99,3.99-3.99h52.17c2.2,0,3.99,1.79,3.99,3.99v18.58c0,.55-.45,1-1,1s-1-.45-1-1V15.4c0-1.1-.89-1.99-1.99-1.99H14.27c-1.1,0-1.99.89-1.99,1.99v69.2c0,1.1.89,1.99,1.99,1.99h28.22c.55,0,1,.45,1,1s-.45,1-1,1Z"/>
  <path class="cls-1" d="m22.9,81.36c-.55,0-1-.45-1-1v-7.07c0-.55.45-1,1-1s1,.45,1,1v7.07c0,.55-.45,1-1,1Z"/>
  <path class="cls-1" d="m29.95,81.36c-.55,0-1-.45-1-1v-10.84c0-.55.45-1,1-1s1,.45,1,1v10.84c0,.55-.45,1-1,1Z"/>
  <path class="cls-1" d="m37,81.36c-.55,0-1-.45-1-1v-22.91c0-.55.45-1,1-1s1,.45,1,1v22.91c0,.55-.45,1-1,1Z"/>
  <path class="cls-1" d="m34.38,26.37h-12.7c-.55,0-1-.45-1-1s.45-1,1-1h12.7c.55,0,1,.45,1,1s-.45,1-1,1Z"/>
  <path class="cls-1" d="m51.32,37.24h-29.64c-.55,0-1-.45-1-1s.45-1,1-1h29.64c.55,0,1,.45,1,1s-.45,1-1,1Z"/>
  <g>
    <path class="cls-1" d="m69.32,60.84c-5.54,0-10.05-4.75-10.05-10.59s4.51-10.59,10.05-10.59,10.05,4.75,10.05,10.59-4.51,10.59-10.05,10.59Zm0-19.17c-4.44,0-8.05,3.85-8.05,8.59s3.61,8.59,8.05,8.59,8.05-3.85,8.05-8.59-3.61-8.59-8.05-8.59Z"/>
    <path class="cls-1" d="m87.79,88.05h-36.95c-.52,0-1.03-.22-1.39-.6-.36-.38-.55-.87-.53-1.39.5-11.99,9.66-21.74,20.4-21.74s19.9,9.75,20.4,21.74c.02.52-.17,1.01-.53,1.39-.36.38-.87.6-1.4.6Zm-36.88-2h36.8c-.5-10.7-8.9-19.72-18.4-19.72s-17.9,9.02-18.4,19.72Z"/>
    <g>
      <path class="cls-1" d="m59.79,87.36c-.55,0-1-.45-1-1v-7.56c0-.55.45-1,1-1s1,.45,1,1v7.56c0,.55-.45,1-1,1Z"/>
      <path class="cls-1" d="m78.84,87.36c-.55,0-1-.45-1-1v-7.56c0-.55.45-1,1-1s1,.45,1,1v7.56c0,.55-.45,1-1,1Z"/>
    </g>
  </g>
</svg>