<svg xmlns="http://www.w3.org/2000/svg" xmlns:xlink="http://www.w3.org/1999/xlink" width="105.447" height="110" viewBox="0 0 105.447 110">
  <defs>
    <clipPath id="clip-path">
      <rect id="Rectangle_2150" data-name="Rectangle 2150" width="105.447" height="110" fill="none" stroke="red" stroke-width="1"/>
    </clipPath>
  </defs>
  <g id="Group_4708" data-name="Group 4708" transform="translate(0 0)">
    <g id="Group_4707" data-name="Group 4707" transform="translate(0 0)" clip-path="url(#clip-path)">
      <path id="Path_20609" data-name="Path 20609" d="M79.728,101H78.186V17.725a2.342,2.342,0,0,0-2.339-2.339H24.508a2.342,2.342,0,0,0-2.339,2.339v7.4H20.627v-7.4a3.885,3.885,0,0,1,3.881-3.881h51.34a3.885,3.885,0,0,1,3.881,3.881Z" transform="translate(11.875 8.11)" fill="red"/>
      <path id="Path_20610" data-name="Path 20610" d="M73.728,98.132h-59.1V23.725a3.885,3.885,0,0,1,3.881-3.881h51.34a3.885,3.885,0,0,1,3.881,3.881ZM16.169,96.59H72.186V23.725a2.342,2.342,0,0,0-2.339-2.339H18.508a2.342,2.342,0,0,0-2.339,2.339Z" transform="translate(8.545 11.44)" fill="red"/>
      <path id="Line_155" data-name="Line 155" d="M103.048.771H0A.771.771,0,0,1-.771,0,.771.771,0,0,1,0-.771H103.048a.771.771,0,0,1,.771.771A.771.771,0,0,1,103.048.771Z" transform="translate(1.199 108.801)" fill="red"/>
      <path id="Line_156" data-name="Line 156" d="M11.507.771H0A.771.771,0,0,1-.771,0,.771.771,0,0,1,0-.771H11.507A.771.771,0,0,1,12.278,0,.771.771,0,0,1,11.507.771Z" transform="translate(34.712 44.79)" fill="red"/>
      <path id="Line_157" data-name="Line 157" d="M22.058.771H0A.771.771,0,0,1-.771,0,.771.771,0,0,1,0-.771H22.058A.771.771,0,0,1,22.829,0,.771.771,0,0,1,22.058.771Z" transform="translate(34.712 53.783)" fill="red"/>
      <path id="Line_158" data-name="Line 158" d="M26.855.771H0A.771.771,0,0,1-.771,0,.771.771,0,0,1,0-.771H26.855A.771.771,0,0,1,27.626,0,.771.771,0,0,1,26.855.771Z" transform="translate(34.712 62.777)" fill="red"/>
      <path id="Ellipse_568" data-name="Ellipse 568" d="M13.995-.771A14.766,14.766,0,0,1,24.435,24.435,14.766,14.766,0,0,1,3.554,3.554,14.669,14.669,0,0,1,13.995-.771Zm0,27.989A13.224,13.224,0,1,0,.771,13.995,13.239,13.239,0,0,0,13.995,27.218Z" transform="translate(38.729 72.768)" fill="red"/>
      <path id="Line_159" data-name="Line 159" d="M11.029,11.8a.769.769,0,0,1-.545-.226L-.545.545a.771.771,0,0,1,0-1.09.771.771,0,0,1,1.09,0L11.574,10.484a.771.771,0,0,1-.545,1.316Z" transform="translate(61.737 97.679)" fill="red"/>
      <path id="Path_20611" data-name="Path 20611" d="M9.712,10.4a4.092,4.092,0,1,1-4.091,4.092A4.1,4.1,0,0,1,9.712,10.4Zm0,6.643a2.55,2.55,0,1,0-2.549-2.55A2.553,2.553,0,0,0,9.712,17.039Z" transform="translate(3.547 6.196)" fill="red"/>
      <path id="Line_160" data-name="Line 160" d="M0,14.686a.771.771,0,0,1-.771-.771V0A.771.771,0,0,1,0-.771.771.771,0,0,1,.771,0V13.915A.771.771,0,0,1,0,14.686Z" transform="translate(8.157 52.928)" fill="red"/>
      <path id="Line_161" data-name="Line 161" d="M13.915.771H0A.771.771,0,0,1-.771,0,.771.771,0,0,1,0-.771H13.915A.771.771,0,0,1,14.686,0,.771.771,0,0,1,13.915.771Z" transform="translate(1.199 59.886)" fill="red"/>
      <path id="Line_162" data-name="Line 162" d="M0,14.686a.771.771,0,0,1-.771-.771V0A.771.771,0,0,1,0-.771.771.771,0,0,1,.771,0V13.915A.771.771,0,0,1,0,14.686Z" transform="translate(95.26 1.199)" fill="red"/>
      <path id="Line_163" data-name="Line 163" d="M13.915.771H0A.771.771,0,0,1-.771,0,.771.771,0,0,1,0-.771H13.915A.771.771,0,0,1,14.686,0,.771.771,0,0,1,13.915.771Z" transform="translate(88.302 8.156)" fill="red"/>
      <path id="Path_20612" data-name="Path 20612" d="M66.091,54.947A4.092,4.092,0,1,1,62,59.039,4.1,4.1,0,0,1,66.091,54.947Zm0,6.643a2.55,2.55,0,1,0-2.549-2.55A2.553,2.553,0,0,0,66.091,61.59Z" transform="translate(34.835 30.92)" fill="red"/>
    </g>
  </g>
</svg>
