<svg xmlns="http://www.w3.org/2000/svg" width="199.643" height="223.04" viewBox="0 0 199.643 223.04">
  <g id="Group_2817" data-name="Group 2817" transform="translate(1095.363 -21.687)">
    <rect id="Rectangle_743" data-name="Rectangle 743" width="199.643" height="30.327" transform="translate(-1095.363 178.204)" fill="#003b8b"/>
    <g id="Group_2815" data-name="Group 2815" transform="translate(-1081.267 182.306)">
      <path id="Path_16431" data-name="Path 16431" d="M-1068.772,237.533h2.2l7.648,21.279h-1.667l-2.351-6.518h-9.583l-2.322,6.518h-1.577Zm-3.273,13.422h8.63l-4.315-12.053Z" transform="translate(1076.42 -237.533)" fill="#fff"/>
      <path id="Path_16432" data-name="Path 16432" d="M-1027.9,237.533h1.667l4.88,18.749,5.625-18.749h1.161l5.416,18.809,5.15-18.809h1.517l-5.833,21.279h-1.607l-5.238-18.333-5.536,18.333h-1.577Z" transform="translate(1064.006 -237.533)" fill="#fff"/>
      <path id="Path_16433" data-name="Path 16433" d="M-961.892,237.533h2.2l7.649,21.279h-1.667l-2.352-6.518h-9.582l-2.321,6.518h-1.578Zm-3.273,13.422h8.631l-4.315-12.053Z" transform="translate(1049.074 -237.533)" fill="#fff"/>
      <path id="Path_16434" data-name="Path 16434" d="M-916.861,237.533h5.833c4.137,0,7.232,1.607,7.232,5.714v.119c0,3.541-2.321,5.178-5.505,5.625l6.755,9.821h-1.846l-6.667-9.7h-4.136v9.7h-1.667Zm5.923,10.238c3.422,0,5.476-1.31,5.476-4.4v-.119c0-3.273-2.173-4.345-5.476-4.345h-4.256v8.869Z" transform="translate(1035.595 -237.533)" fill="#fff"/>
      <path id="Path_16435" data-name="Path 16435" d="M-868.461,237.533h5.535c7.024,0,10.6,4.524,10.6,10.446v.269c0,5.893-3.393,10.565-10.655,10.565h-5.475Zm5.416,19.91c6.041,0,8.988-3.809,8.988-9.226v-.239c0-5.237-2.767-9.076-9.017-9.076h-3.72v18.541Z" transform="translate(1023.211 -237.533)" fill="#fff"/>
    </g>
    <g id="Group_2816" data-name="Group 2816" transform="translate(-1087.617 21.687)">
      <path id="Path_16436" data-name="Path 16436" d="M-916.853,148.013l-2.966.015-.411,2.736-6.287.036-.491,3.26,9.25-.057Z" transform="translate(1044.541 -54.009)" fill="none"/>
      <path id="Path_16437" data-name="Path 16437" d="M-924.242,168.986l1.741-3.24-.894-.632,1.238-2.306,1.17.1,1.744-3.234-9.8-.1-1.815,3.379Zm-2.937-6.766c.38.075.764.157,1.162.2l1.631.188-.659,1.229-2.2-1.5Z" transform="translate(1045.526 -56.969)" fill="none"/>
      <path id="Path_16438" data-name="Path 16438" d="M-961.236,138.767l-1.807,1.579c-2.7,2.139-4.8,5.4-4.78,8.729.027,5.333,4.516,8.99,10.144,8.148s10.076-5.834,10.049-11.168a8.237,8.237,0,0,0-4.856-7.288l-1.75-1.048c-2.289-1.154-3.507-3.759-3.52-6.95l-.034.005A10.061,10.061,0,0,1-961.236,138.767Z" transform="translate(1054.984 -49.597)" fill="none"/>
      <path id="Path_16439" data-name="Path 16439" d="M-978.589,224.418h42.55L-962,208.338Z" transform="translate(1057.739 -69.444)" fill="none"/>
      <path id="Path_16440" data-name="Path 16440" d="M-947.308,176.3c-2.721,1.165-4.412,3.769-3.571,6.321.848,2.6,3.581,3.214,6.317,2.046s4.442-3.669,3.592-6.276C-941.807,175.841-944.584,175.137-947.308,176.3Zm1.909,5.808a1.5,1.5,0,0,1-2.187-.845,1.868,1.868,0,0,1,1.153-2.3,1.523,1.523,0,0,1,2.195.869A1.83,1.83,0,0,1-945.4,182.105Z" transform="translate(1050.704 -61.107)" fill="none"/>
      <path id="Path_16441" data-name="Path 16441" d="M-931.326,168.349c-1.507-1.449-3.461-.979-5.116.606l-3.268,3.125,6.077,5.851,2.479-2.373-1.824-1.764,1.313-1.263C-930.213,171.156-930.084,169.543-931.326,168.349Zm-2.924,3.728-.26.244-1.057-1.019.252-.234c.421-.407.97-.888,1.456-.43C-933.379,171.119-933.8,171.644-934.25,172.077Z" transform="translate(1047.791 -58.99)" fill="none"/>
      <path id="Path_16442" data-name="Path 16442" d="M-964.362,164.635l-.041-8.543c-11.126,1.662-20.177-5.53-20.228-16.066-.034-6.585,3.459-12.912,8.8-17.146l2.371-1.763c5.336-4.229,8.834-10.561,8.8-17.145l-.174-14.729c.051,10.006-5.528,19.609-13.924,25.72l-1.088.771c-8.336,6.109-13.861,15.676-13.813,25.642C-993.582,156.632-980.468,167.044-964.362,164.635Z" transform="translate(1061.594 -38.972)" fill="none"/>
      <path id="Path_16443" data-name="Path 16443" d="M-969.161,130.061l-.659.466c-5.047,3.7-8.392,9.493-8.363,15.525.045,9.235,7.984,15.536,17.729,14.08h0c9.75-1.461,17.616-10.125,17.571-19.359l-5.469.818c.033,6.376-5.4,12.359-12.127,13.368s-12.21-3.346-12.243-9.725a13.463,13.463,0,0,1,5.322-10.378l1.441-1.067a13.456,13.456,0,0,0,5.327-10.379l-.1-8.917C-960.705,120.549-964.081,126.366-969.161,130.061Z" transform="translate(1057.635 -45.432)" fill="none"/>
      <path id="Path_16444" data-name="Path 16444" d="M-923.141,163.511l-1.631-.188c-.4-.041-.783-.123-1.162-.2l-.061.112,2.2,1.5Z" transform="translate(1044.282 -57.876)" fill="#d9000d"/>
      <path id="Path_16445" data-name="Path 16445" d="M-945.257,180.009a1.868,1.868,0,0,0-1.153,2.3,1.5,1.5,0,0,0,2.187.845,1.83,1.83,0,0,0,1.16-2.272A1.522,1.522,0,0,0-945.257,180.009Z" transform="translate(1049.527 -62.151)" fill="#d9000d"/>
      <path id="Path_16446" data-name="Path 16446" d="M-933.891,172.091l-.252.234,1.057,1.019.26-.244c.451-.433.871-.958.391-1.438C-932.92,171.2-933.469,171.684-933.891,172.091Z" transform="translate(1046.366 -60.012)" fill="#d9000d"/>
      <path id="Path_16447" data-name="Path 16447" d="M-989.212,160.581l25.959,16.08h24.094l-16.235-43.287,53.93-59.075-67.348,11.705-18.753-64.318-26.972,74.078-70.416,12.3,54.025,31.461-15.922,37.137h41.047Zm10.4-15.337c-2.736,1.168-5.469.554-6.317-2.046-.841-2.552.851-5.156,3.571-6.321s5.5-.456,6.338,2.09C-974.369,141.575-976.078,144.081-978.811,145.244Zm10.5-6.988-2.479,2.373-6.077-5.851,3.268-3.125c1.655-1.585,3.609-2.055,5.116-.606,1.242,1.194,1.112,2.807-.338,4.182l-1.313,1.263Zm1.385-19.777,6.288-.036.411-2.736,2.966-.015-.906,5.99-9.25.057Zm-1.541,5.821,9.8.1-1.744,3.234-1.17-.1-1.238,2.306.894.632-1.741,3.24-6.617-6.025Zm-19.254-21.44c.013,3.191,1.231,5.8,3.52,6.95l1.75,1.048a8.237,8.237,0,0,1,4.856,7.288c.027,5.334-4.42,10.326-10.049,11.168s-10.117-2.816-10.144-8.148c-.015-3.333,2.078-6.59,4.78-8.729l1.807-1.579a10.061,10.061,0,0,0,3.446-7.992Zm-5.551,7.182-1.441,1.067a13.464,13.464,0,0,0-5.322,10.379c.033,6.38,5.511,10.731,12.243,9.725s12.16-6.992,12.127-13.368l5.469-.818c.045,9.234-7.821,17.9-17.571,19.359h0c-9.745,1.456-17.684-4.845-17.729-14.08-.028-6.032,3.317-11.827,8.363-15.525l.659-.466c5.08-3.695,8.456-9.512,8.427-15.57l.1,8.917A13.456,13.456,0,0,1-993.276,110.042Zm-9.928-11.594,1.088-.771c8.4-6.111,13.976-15.713,13.924-25.72l.174,14.729c.032,6.584-3.465,12.916-8.8,17.145l-2.371,1.763c-5.34,4.233-8.833,10.561-8.8,17.146.051,10.536,9.1,17.728,20.228,16.066l.041,8.543c-16.106,2.41-29.219-8-29.3-23.26C-1017.065,114.125-1011.54,104.558-1003.2,98.449Z" transform="translate(1084.953 -21.687)" fill="#d9000d"/>
      <path id="Path_16448" data-name="Path 16448" d="M-1072.964,309.719l35.1-34.018h-20.515Z" transform="translate(1081.885 -86.679)" fill="#d9000d"/>
    </g>
  </g>
</svg>
