<?xml version="1.0" encoding="utf-8"?>
<!-- Generator: Adobe Illustrator 27.8.1, SVG Export Plug-In . SVG Version: 6.00 Build 0)  -->
<svg version="1.1" id="Layer_1" xmlns="http://www.w3.org/2000/svg" xmlns:xlink="http://www.w3.org/1999/xlink" x="0px" y="0px"
	 width="116px" height="130px" viewBox="0 0 116 130" style="enable-background:new 0 0 116 130;" xml:space="preserve">
<style type="text/css">
	.st0{fill:#0056A7;}
	.st1{fill:none;}
	.st2{fill:#FFFFFF;}
	.st3{fill:#ED1C24;}
</style>
<g id="Layer_1_00000096771665121483267900000012098112053796738457_">
	<g>
		<rect y="91.2" class="st0" width="116" height="17.7"/>
		<g>
			<path class="st1" d="M38,94.5c-3,0-5,2.3-5,5.5v0.1c0,3.2,2.2,5.5,5.1,5.5c2.9,0,5-2.3,5-5.5v-0.1C43,96.9,41,94.5,38,94.5z"/>
			<path class="st1" d="M7.4,94.7H5.1v5.5h2.4c2,0,3.2-0.9,3.2-2.8v-0.1C10.6,95.3,9.3,94.7,7.4,94.7z"/>
			<path class="st1" d="M77.1,94.7h-2.2v10.8h2.2c3.5,0,5.2-2.2,5.2-5.4V100C82.3,96.9,80.7,94.7,77.1,94.7z"/>
			<path class="st1" d="M24.7,97.3L24.7,97.3c0-2-1.3-2.6-3.2-2.6h-2.5v5.2h2.5C23.5,99.9,24.7,99.1,24.7,97.3z"/>
			<path class="st1" d="M110.7,97.3L110.7,97.3c0-2-1.3-2.6-3.2-2.6H105v5.2h2.5C109.5,99.9,110.7,99.1,110.7,97.3z"/>
			<path class="st2" d="M7.3,93.9H4.1v12.4h1V101h2.3c2.4,0,4.2-1,4.2-3.6v-0.1C11.5,94.9,9.7,93.9,7.3,93.9z M10.6,97.4
				c0,1.9-1.2,2.8-3.2,2.8H5.1v-5.5h2.3C9.3,94.7,10.6,95.4,10.6,97.4L10.6,97.4z"/>
			<path class="st2" d="M25.7,97.3L25.7,97.3c0-2.5-1.8-3.4-4.2-3.4h-3.4v12.4h1v-5.6h2.4l3.9,5.6h1.1l-4-5.7
				C24.3,100.3,25.7,99.3,25.7,97.3z M19.1,99.9v-5.2h2.5c1.9,0,3.2,0.6,3.2,2.5v0.1c0,1.8-1.2,2.6-3.2,2.6H19.1z"/>
			<path class="st2" d="M38,93.7c-3.5,0-6,2.8-6,6.3v0.1c0,3.5,2.5,6.2,6.1,6.2c3.5,0,6-2.8,6-6.3V100C44,96.5,41.5,93.7,38,93.7z
				 M43,100.1c0,3.2-2,5.5-5,5.5c-2.9,0-5.1-2.3-5.1-5.5V100c0-3.1,2-5.5,5-5.5s5,2.4,5,5.4V100.1z"/>
			<polygon class="st2" points="54.2,105.3 50,93.9 49.1,93.9 53.6,106.3 54.7,106.3 59.1,93.9 58.2,93.9 			"/>
			<rect x="65.5" y="93.9" class="st2" width="1" height="12.4"/>
			<path class="st2" d="M77.2,93.9H74v12.4h3.2c4.2,0,6.2-2.7,6.2-6.2v-0.2C83.3,96.5,81.2,93.9,77.2,93.9z M82.3,100.1
				c0,3.2-1.7,5.4-5.2,5.4h-2.2V94.7h2.2c3.6,0,5.2,2.3,5.2,5.3V100.1z"/>
			<polygon class="st2" points="91,100.3 96,100.3 96,99.5 91,99.5 91,94.7 97.1,94.7 97.1,93.9 90.1,93.9 90.1,106.3 97.5,106.3 
				97.5,105.5 91,105.5 			"/>
			<path class="st2" d="M108.4,100.5c1.9-0.3,3.2-1.2,3.2-3.3v-0.1c0-2.4-1.8-3.3-4.2-3.3h-3.4v12.4h1v-5.6h2.4l3.9,5.6h1.1
				L108.4,100.5z M105,99.9v-5.2h2.5c1.9,0,3.2,0.6,3.2,2.5v0.1c0,1.8-1.2,2.6-3.2,2.6H105z"/>
		</g>
		<polygon class="st3" points="60.7,81 75.7,90.4 89.8,90.4 80.3,65.1 111.6,30.7 72.5,37.5 61.6,0 46,43.2 5.1,50.4 36.4,68.7 
			27.2,90.4 51,90.4 		"/>
		<polygon class="st3" points="10.2,130 30.6,110.2 18.7,110.2 		"/>
		<g>
			<path class="st2" d="M68.8,68.4c-0.5-1.5-2.1-1.9-3.7-1.2c-1.6,0.7-2.6,2.2-2.1,3.7c0.5,1.5,2.1,1.9,3.7,1.2
				C68.3,71.4,69.3,69.9,68.8,68.4z M66.2,70.5c-0.6,0.3-1.1,0-1.3-0.5c-0.2-0.5,0.1-1.1,0.6-1.3c0.6-0.3,1.1,0,1.3,0.5
				C67.1,69.7,66.8,70.3,66.2,70.5z"/>
			<path class="st2" d="M72.5,66.2c0.8-0.8,0.9-1.7,0.2-2.4c-0.9-0.8-2-0.6-3,0.3l-1.9,1.8l3.5,3.4l1.4-1.4l-1.1-1L72.5,66.2z
				 M71,65.9l-0.1,0.1l-0.6-0.6l0.1-0.1c0.3-0.2,0.6-0.5,0.9-0.3C71.5,65.4,71.3,65.7,71,65.9z"/>
			<polygon class="st2" points="73.6,56.4 77.3,56.4 77.5,54.8 79.3,54.8 78.7,58.3 73.3,58.3 			"/>
			<path class="st2" d="M72.7,59.8l-1,2l3.8,3.5l1-1.9L76,63l0.7-1.3l0.7,0l1-1.9L72.7,59.8z M75.1,62.3l-1.3-0.9l0-0.1
				c0.2,0,0.4,0.1,0.7,0.1l1,0.1L75.1,62.3z"/>
			<path class="st2" d="M61.5,47.3c0,1.9,0.7,3.4,2,4l1,0.6c1.6,0.8,2.8,2.3,2.8,4.3c0,3.1-2.6,6-5.8,6.5c-3.3,0.5-5.9-1.6-5.9-4.8
				c0-2,1.2-3.9,2.8-5.1l1-0.9C60.8,50.9,61.5,49.2,61.5,47.3L61.5,47.3z"/>
			<path class="st2" d="M58.3,51.5l-0.8,0.6c-1.9,1.5-3.1,3.7-3.1,6c0,3.7,3.2,6.2,7.1,5.7c3.9-0.6,7-4.1,7-7.8l3.2-0.5
				c0,5.4-4.5,10.5-10.2,11.3l0,0l0,0c-5.7,0.9-10.3-2.8-10.3-8.2c0-3.5,1.9-6.9,4.8-9.1l0.4-0.3c2.9-2.2,4.9-5.6,4.9-9.1l0,5.2
				C61.4,47.8,60.2,50,58.3,51.5z"/>
			<path class="st2" d="M52.5,44.8l0.6-0.4c4.9-3.6,8.1-9.2,8.1-15l0.1,8.6c0,3.8-2,7.5-5.1,10l-1.4,1c-3.1,2.5-5.1,6.2-5.1,10
				c0,6.2,5.3,10.3,11.8,9.4l0,5c-9.3,1.4-17-4.7-17-13.6C44.5,53.9,47.7,48.3,52.5,44.8z"/>
		</g>
	</g>
</g>
</svg>
