<?xml version="1.0" encoding="utf-8"?>
<!-- Generator: Adobe Illustrator 27.8.1, SVG Export Plug-In . SVG Version: 6.00 Build 0)  -->
<svg version="1.1" id="Layer_1" xmlns="http://www.w3.org/2000/svg" xmlns:xlink="http://www.w3.org/1999/xlink" x="0px" y="0px"
	 width="116px" height="130px" viewBox="0 0 116 130" style="enable-background:new 0 0 116 130;" xml:space="preserve">
<style type="text/css">
	.st0{fill:#0056A6;}
	.st1{fill:#FFFFFF;}
	.st2{fill:#EC1C24;}
</style>
<g>
	<rect x="-0.2" y="91.2" class="st0" width="116.4" height="17.7"/>
	<g>
		<path class="st1" d="M4.3,93.6h3.3c2.4,0,4.2,1,4.2,3.5v0.1c0,2.5-1.8,3.5-4.2,3.5H5.3v5.3h-1V93.6z M7.7,99.9
			c2,0,3.2-0.9,3.2-2.8v-0.1c0-2-1.3-2.7-3.2-2.7H5.3v5.5H7.7z"/>
		<path class="st1" d="M18.4,93.6h3.4c2.4,0,4.2,0.9,4.2,3.3V97c0,2.1-1.4,3-3.2,3.3l3.9,5.7h-1.1l-3.9-5.7h-2.4v5.7h-1V93.6z
			 M21.8,99.6c2,0,3.2-0.8,3.2-2.6v-0.1c0-1.9-1.3-2.5-3.2-2.5h-2.5v5.2H21.8z"/>
		<path class="st1" d="M32.3,99.9v-0.1c0-3.5,2.5-6.3,6-6.3c3.5,0,6,2.8,6,6.2v0.1c0,3.5-2.5,6.3-6,6.3
			C34.8,106.2,32.3,103.4,32.3,99.9z M43.3,99.8v-0.1c0-3-2-5.4-5-5.4c-3,0-5,2.3-5,5.5v0.1c0,3.2,2.2,5.5,5.1,5.5
			C41.3,105.3,43.3,103,43.3,99.8z"/>
		<path class="st1" d="M49.5,93.6h1l4.1,11.4l4-11.4h0.9L55.1,106H54L49.5,93.6z"/>
		<path class="st1" d="M65.9,93.6h1V106h-1V93.6z"/>
		<path class="st1" d="M74.4,93.6h3.2c4.1,0,6.2,2.6,6.2,6.1v0.2c0,3.4-2,6.2-6.2,6.2h-3.2V93.6z M77.6,105.2c3.5,0,5.2-2.2,5.2-5.4
			v-0.1c0-3.1-1.6-5.3-5.3-5.3h-2.2v10.8H77.6z"/>
		<path class="st1" d="M90.6,93.6h7.1v0.8h-6.2v4.8h5v0.8h-5v5.2H98v0.8h-7.4V93.6z"/>
		<path class="st1" d="M104.6,93.6h3.4c2.4,0,4.2,0.9,4.2,3.3V97c0,2.1-1.4,3-3.2,3.3l3.9,5.7h-1.1l-3.9-5.7h-2.4v5.7h-1V93.6z
			 M108.1,99.6c2,0,3.2-0.8,3.2-2.6v-0.1c0-1.9-1.3-2.5-3.2-2.5h-2.5v5.2H108.1z"/>
	</g>
	<polygon class="st2" points="60.3,81 75.5,90.3 89.5,90.3 80,65.1 111.5,30.7 72.2,37.5 61.3,0 45.6,43.2 4.5,50.3 36,68.7 
		26.7,90.3 50.7,90.3 	"/>
	<g>
		<path class="st1" d="M64.8,67.1c-1.6,0.7-2.6,2.2-2.1,3.7c0.5,1.5,2.1,1.9,3.7,1.2c1.6-0.7,2.6-2.1,2.1-3.7
			C68,66.9,66.4,66.5,64.8,67.1z M65.9,70.5c-0.6,0.2-1.1,0-1.3-0.5c-0.2-0.5,0.1-1.1,0.7-1.3c0.6-0.3,1.1,0,1.3,0.5
			C66.8,69.7,66.5,70.3,65.9,70.5z"/>
		<path class="st1" d="M72.4,63.7c-0.9-0.8-2-0.6-3,0.4l-1.9,1.8l3.5,3.4l1.4-1.4l-1.1-1l0.8-0.7C73.1,65.4,73.1,64.4,72.4,63.7z
			 M70.7,65.9l-0.2,0.1l-0.6-0.6l0.1-0.1c0.2-0.2,0.6-0.5,0.8-0.3C71.2,65.4,71,65.7,70.7,65.9z"/>
		<polygon class="st1" points="77.2,54.8 77,56.4 73.3,56.4 73,58.3 78.4,58.3 79,54.8 		"/>
		<path class="st1" d="M71.4,61.8l3.9,3.5l1-1.9L75.7,63l0.7-1.3l0.7,0.1l1-1.9l-5.7-0.1L71.4,61.8z M73.5,61.3
			c0.2,0,0.4,0.1,0.7,0.1l1,0.1l-0.4,0.7L73.5,61.3L73.5,61.3z"/>
		<path class="st1" d="M59.2,52l-1.1,0.9c-1.6,1.2-2.8,3.1-2.8,5.1c0,3.1,2.6,5.2,5.9,4.7c3.3-0.5,5.9-3.4,5.9-6.5
			c0-1.9-1.2-3.5-2.8-4.2l-1-0.6c-1.3-0.7-2-2.2-2.1-4.1l0,0C61.2,49.2,60.5,50.9,59.2,52z"/>
		<path class="st1" d="M56.1,49.3l-0.4,0.3c-2.9,2.2-4.9,5.5-4.9,9c0,5.4,4.7,9.1,10.3,8.2h0c0,0,0,0,0,0C66.9,66,71.4,61,71.4,55.6
			L68.2,56c0,3.7-3.1,7.2-7.1,7.8c-3.9,0.6-7.1-1.9-7.1-5.7c0-2.3,1.2-4.6,3.1-6l0.8-0.6c1.9-1.5,3.1-3.7,3.1-6L61,40.3
			C61,43.8,59.1,47.2,56.1,49.3z"/>
		<path class="st1" d="M49.4,58.9c0-3.8,2-7.5,5.1-10l1.4-1c3.1-2.5,5.1-6.2,5.1-10l-0.1-8.6c0,5.8-3.2,11.4-8.1,15l-0.6,0.4
			c-4.9,3.6-8.1,9.1-8.1,14.9c0,8.9,7.7,15,17.1,13.6l0-5C54.7,69.2,49.4,65,49.4,58.9z"/>
	</g>
	<polygon class="st2" points="9.7,130 30.2,110.2 18.2,110.2 	"/>
</g>
</svg>
