<?xml version="1.0" encoding="utf-8"?>
<!-- Generator: Adobe Illustrator 27.1.1, SVG Export Plug-In . SVG Version: 6.00 Build 0)  -->
<svg version="1.1" xmlns="http://www.w3.org/2000/svg" xmlns:xlink="http://www.w3.org/1999/xlink" x="0px" y="0px" width="268.3px"
	 height="299.7px" viewBox="0 0 268.3 299.7" style="enable-background:new 0 0 268.3 299.7;" xml:space="preserve">
<style type="text/css">
	.st0{fill:#0056A7;}
	.st1{fill:#ED1C24;}
	.st2{fill:#FFFFFF;}
	.st3{fill:none;}
</style>
<g id="Layer_1">
	<g>
		<rect y="210.3" class="st0" width="268.3" height="40.8"/>
		<polygon class="st1" points="140.3,186.7 175.2,208.3 207.6,208.3 185.8,150.1 258.2,70.7 167.7,86.4 142.5,0 106.3,99.5 
			11.7,116.1 84.3,158.4 62.9,208.3 118,208.3 		"/>
		<g>
			<path class="st2" d="M159.1,157.6c-1.1-3.4-4.9-4.4-8.5-2.8c-3.7,1.6-5.9,5.1-4.8,8.5c1.1,3.5,4.8,4.3,8.5,2.7
				C158,164.5,160.3,161.1,159.1,157.6z M153.2,162.6c-1.3,0.6-2.5,0.1-2.9-1.1c-0.4-1.2,0.2-2.5,1.5-3.1c1.4-0.6,2.6,0,2.9,1.2
				C155.1,160.8,154.5,162,153.2,162.6z"/>
			<path class="st2" d="M167.7,152.6c1.9-1.8,2.1-4,0.5-5.6c-2-1.9-4.7-1.3-6.9,0.8l-4.4,4.2l8.2,7.9l3.3-3.2l-2.5-2.4L167.7,152.6z
				 M164.2,152l-0.3,0.3l-1.4-1.4l0.3-0.3c0.6-0.5,1.3-1.2,2-0.6C165.4,150.7,164.9,151.4,164.2,152z"/>
			<polygon class="st2" points="170.3,130.1 178.7,130 179.3,126.3 183.3,126.3 182,134.4 169.6,134.5 			"/>
			<path class="st2" d="M168.2,137.9l-2.4,4.5l8.9,8.1l2.3-4.4l-1.2-0.8l1.7-3.1l1.6,0.1l2.3-4.3L168.2,137.9z M173.6,143.6l-3-2
				l0.1-0.2c0.5,0.1,1,0.2,1.6,0.3l2.2,0.3L173.6,143.6z"/>
			<path class="st2" d="M142.3,109.1c0,4.3,1.7,7.8,4.7,9.3l2.4,1.4c3.7,1.8,6.5,5.3,6.5,9.8c0,7.2-5.9,13.9-13.5,15
				c-7.6,1.1-13.6-3.8-13.6-11c0-4.5,2.8-8.9,6.4-11.7l2.4-2.1C140.7,117.4,142.3,113.4,142.3,109.1L142.3,109.1z"/>
			<path class="st2" d="M134.9,118.7l-1.9,1.4c-4.3,3.4-7.2,8.6-7.2,13.9c0,8.6,7.4,14.4,16.5,13.1c9-1.4,16.3-9.4,16.3-18l7.3-1.1
				c0.1,12.4-10.5,24.1-23.6,26c0,0,0,0,0,0h0c-13.1,2-23.8-6.5-23.8-18.9c0-8.1,4.5-15.9,11.2-20.9l0.9-0.6
				c6.8-5,11.4-12.8,11.3-20.9l0.1,12C142,110.1,139.2,115.3,134.9,118.7z"/>
			<path class="st2" d="M121.5,103.2l1.5-1c11.3-8.2,18.8-21.1,18.7-34.6l0.2,19.8c0,8.8-4.7,17.4-11.8,23l-3.2,2.4
				c-7.2,5.7-11.9,14.2-11.8,23c0.1,14.2,12.2,23.8,27.2,21.6l0.1,11.5c-21.6,3.2-39.3-10.8-39.4-31.3
				C102.9,124.2,110.3,111.4,121.5,103.2z"/>
		</g>
		<polygon class="st1" points="23.7,299.7 70.8,254 43.3,254 		"/>
		<g>
			<path class="st2" d="M44.7,214.1c-9.2,0-17,7.7-17,16.8s7.8,16.8,17,16.8s17-7.7,17-16.8S53.9,214.1,44.7,214.1z M44.7,244.9
				c-7.6,0-14-6.4-14-13.9c0-7.6,6.4-13.9,14-13.9s14,6.4,14,13.9C58.7,238.5,52.3,244.9,44.7,244.9z"/>
			<path class="st2" d="M84,216.5c-2.1-1.8-4.7-2-7.2-2h-6.1v32.8h3v-15.1h3.1c2.1,0,5.2-0.2,7.4-2.1c1.8-1.5,2.8-4,2.8-6.7
				C87.1,220.7,86,218.2,84,216.5z M76.9,229.4h-3.2v-11.9h2.8c2.1,0,3.9,0.1,5.3,1.2c1.4,1,2.2,2.8,2.2,4.7c0,1.8-0.6,3.3-1.9,4.4
				C80.7,229.1,79,229.4,76.9,229.4z"/>
			<path class="st2" d="M88.9,247.4H92l4.3-10.5h13.3l4.3,10.5h3.1l-14-34.7L88.9,247.4z M108.4,234h-11l5.5-13.5L108.4,234z"/>
			<polygon class="st2" points="127.5,214.6 124.4,214.6 124.4,247.4 135.6,247.4 135.6,244.5 127.5,244.5 			"/>
			<path class="st2" d="M180.8,234.3c0,2.8,0,5.7-1.5,7.7c-1.5,2-4.6,2.9-6.7,2.9s-5.2-0.9-6.7-2.9c-1.5-2-1.5-4.9-1.5-7.7v-19.8h-3
				v20.3c0,3.3,0,6.2,2.3,9c2.1,2.4,5.5,3.9,9,3.9s6.9-1.5,9-3.9c2.3-2.8,2.3-5.7,2.3-9v-20.3h-3V234.3z"/>
			<path class="st2" d="M209.2,231.3l-6.1-3.2l-0.2-0.1c-2.4-1.2-5.2-2.5-5.2-5.4c0-3.1,2.4-5.6,5.5-5.6c2.6,0,4.5,1.2,6,3.5
				l0.3,0.5l2.2-1.8l-0.2-0.4c-1.6-2.9-4.8-4.7-8.2-4.7c-5,0-8.6,3.6-8.6,8.6c0,2.6,1.2,4.7,3.6,6.1l5.8,3l0.6,0.3
				c2.6,1.3,5.6,2.7,5.6,5.7c0,3.9-3.3,7-7.4,7c-4.2,0-6.2-3-7.2-5.4l-0.2-0.5l-2.7,1.2l0.2,0.4c1.6,4.4,5.4,7.2,9.8,7.2
				c5.7,0,10.5-4.5,10.5-9.7C213.1,235.1,211.9,233,209.2,231.3z"/>
			<path class="st2" d="M235.7,216.5c-2.1-1.8-4.7-2-7.2-2h-6.1v32.8h3v-15.1h3.1c2.1,0,5.2-0.2,7.4-2.1c1.8-1.5,2.8-4,2.8-6.7
				C238.8,220.7,237.7,218.2,235.7,216.5z M228.6,229.4h-3.2v-11.9h2.8c2.1,0,3.9,0.1,5.3,1.2c1.4,1,2.2,2.8,2.2,4.7
				c0,1.8-0.6,3.3-1.9,4.4C232.4,229.1,230.7,229.4,228.6,229.4z"/>
		</g>
	</g>
</g>
<g id="Layer_2">
</g>
</svg>
