<?xml version="1.0" encoding="utf-8"?>
<!-- Generator: Adobe Illustrator 27.1.1, SVG Export Plug-In . SVG Version: 6.00 Build 0)  -->
<svg version="1.1" id="Layer_1" xmlns="http://www.w3.org/2000/svg" xmlns:xlink="http://www.w3.org/1999/xlink" x="0px" y="0px"
	 width="103.6px" height="128px" viewBox="0 0 103.6 128" style="enable-background:new 0 0 103.6 128;" xml:space="preserve">
<style type="text/css">
	.st0{fill:#BF2626;}
	.st1{fill:#FFAEAE;}
	.st2{fill:#FFFFFF;}
	.st3{fill:#3FA9F5;}
	.st4{fill:#AEE0FF;}
	.st5{fill:#FA8D00;}
	.st6{fill:#FFDBB3;}
	.st7{fill:#00C783;}
	.st8{fill:#AEFFE0;}
	.st9{fill:#32A532;}
	.st10{fill:#89EF89;}
	.st11{fill:#D87825;}
	.st12{fill:#FFC1AE;}
</style>
<g>
	<path class="st0" d="M8.9,0C4,0,0,4,0,8.9v110.1c0,4.9,4,8.9,8.9,8.9h85.8c4.9,0,8.9-4,8.9-8.9V31.9L71.7,0H8.9z"/>
	<path class="st1" d="M80.7,31.9h22.9L71.7,0v22.9C71.7,27.9,75.7,31.9,80.7,31.9z"/>
	<g>
		<path class="st2" d="M29.7,70v7.8h-5.1V55.1h8c5.7,0,8.6,2.4,8.6,7.3c0,2.3-0.8,4.1-2.5,5.5c-1.6,1.4-3.8,2.1-6.6,2.1H29.7z
			 M29.7,59.1v7.1h2c2.7,0,4.1-1.2,4.1-3.6c0-2.3-1.4-3.5-4.1-3.5H29.7z"/>
		<path class="st2" d="M44.5,77.9V55.1h8.1c8.1,0,12.1,3.7,12.1,11.1c0,3.5-1.1,6.4-3.3,8.5c-2.2,2.1-5.1,3.2-8.8,3.2H44.5z
			 M49.7,59.3v14.4h2.5c2.2,0,4-0.7,5.2-2c1.3-1.3,1.9-3.1,1.9-5.4c0-2.2-0.6-3.9-1.9-5.1c-1.3-1.2-3-1.9-5.3-1.9H49.7z"/>
		<path class="st2" d="M81.7,59.3h-8v5.6H81V69h-7.4v8.8h-5.1V55.1h13.2V59.3z"/>
	</g>
</g>
</svg>
