<?xml version="1.0" encoding="utf-8"?>
<!-- Generator: Adobe Illustrator 27.1.1, SVG Export Plug-In . SVG Version: 6.00 Build 0)  -->
<svg version="1.1" id="Layer_1" xmlns="http://www.w3.org/2000/svg" xmlns:xlink="http://www.w3.org/1999/xlink" x="0px" y="0px"
	 width="103.6px" height="128px" viewBox="0 0 103.6 128" style="enable-background:new 0 0 103.6 128;" xml:space="preserve">
<style type="text/css">
	.st0{fill:#BF2626;}
	.st1{fill:#FFAEAE;}
	.st2{fill:#FFFFFF;}
	.st3{fill:#3FA9F5;}
	.st4{fill:#AEE0FF;}
	.st5{fill:#FA8D00;}
	.st6{fill:#FFDBB3;}
	.st7{fill:#00C783;}
	.st8{fill:#AEFFE0;}
	.st9{fill:#32A532;}
	.st10{fill:#89EF89;}
	.st11{fill:#D87825;}
	.st12{fill:#FFC1AE;}
</style>
<g>
	<path class="st7" d="M8.9,0C4,0,0,4,0,8.9v110.1c0,4.9,4,8.9,8.9,8.9h85.8c4.9,0,8.9-4,8.9-8.9V31.9L71.7,0H8.9z"/>
	<path class="st8" d="M80.7,31.9h22.9L71.7,0v22.9C71.7,27.9,75.7,31.9,80.7,31.9z"/>
	<g>
		<path class="st2" d="M24.3,70v7.8h-5.1V55.1h8c5.7,0,8.6,2.4,8.6,7.3c0,2.3-0.8,4.1-2.5,5.5c-1.6,1.4-3.8,2.1-6.6,2.1H24.3z
			 M24.3,59.1v7.1h2c2.7,0,4.1-1.2,4.1-3.6c0-2.3-1.4-3.5-4.1-3.5H24.3z"/>
		<path class="st2" d="M59.7,77.9h-5.2l-9.4-14.3c-0.6-0.8-0.9-1.5-1.1-1.9h-0.1c0.1,0.8,0.1,2,0.1,3.7v12.5h-4.8V55.1h5.5l9,13.9
			c0.4,0.6,0.8,1.2,1.1,1.9h0.1c-0.1-0.5-0.1-1.6-0.1-3.1V55.1h4.8V77.9z"/>
		<path class="st2" d="M83.6,76.4c-2.2,1.3-5,1.9-8.3,1.9c-3.7,0-6.5-1-8.7-3c-2.1-2-3.2-4.8-3.2-8.4c0-3.6,1.2-6.5,3.5-8.7
			c2.3-2.3,5.4-3.4,9.2-3.4c2.4,0,4.5,0.3,6.4,1v4.8c-1.8-1-3.9-1.5-6.4-1.5c-2.1,0-3.9,0.7-5.2,2.1c-1.3,1.4-2,3.2-2,5.5
			c0,2.3,0.6,4.1,1.8,5.4c1.2,1.3,2.8,1.9,4.9,1.9c1.2,0,2.2-0.2,2.9-0.5V69h-4.6v-4.1h9.7V76.4z"/>
	</g>
</g>
</svg>
