<?xml version="1.0" encoding="utf-8"?>
<!-- Generator: Adobe Illustrator 16.0.0, SVG Export Plug-In . SVG Version: 6.00 Build 0)  -->
<!DOCTYPE svg PUBLIC "-//W3C//DTD SVG 1.1//EN" "http://www.w3.org/Graphics/SVG/1.1/DTD/svg11.dtd">
<svg version="1.1" id="Layer_1" xmlns="http://www.w3.org/2000/svg" xmlns:xlink="http://www.w3.org/1999/xlink" x="0px" y="0px"
	 width="30px" height="30px" viewBox="0 0 30 30" enable-background="new 0 0 30 30" xml:space="preserve">
<g>
	<circle fill="#2BDE3F" cx="15" cy="15" r="15"/>
	<path fill="#FFFFFF" d="M22.599,9.67c-0.21-0.209-0.549-0.209-0.758,0l-9.52,9.519l-4.162-4.162c-0.209-0.209-0.548-0.209-0.758,0
		c-0.209,0.209-0.209,0.548,0,0.758l4.521,4.52c0.007,0.008,0.01,0.019,0.017,0.025c0.105,0.105,0.244,0.158,0.383,0.156
		c0.139,0.002,0.277-0.051,0.383-0.156c0.008-0.007,0.01-0.018,0.017-0.025l9.878-9.876C22.809,10.218,22.808,9.879,22.599,9.67z"/>
</g>
</svg>
