<?xml version="1.0" encoding="utf-8"?>
<!-- Generator: Adobe Illustrator 27.1.1, SVG Export Plug-In . SVG Version: 6.00 Build 0)  -->
<svg version="1.1" id="Layer_1" xmlns="http://www.w3.org/2000/svg" xmlns:xlink="http://www.w3.org/1999/xlink" x="0px" y="0px"
	 width="103.6px" height="128px" viewBox="0 0 103.6 128" style="enable-background:new 0 0 103.6 128;" xml:space="preserve">
<style type="text/css">
	.st0{fill:#BF2626;}
	.st1{fill:#FFAEAE;}
	.st2{fill:#FFFFFF;}
	.st3{fill:#3FA9F5;}
	.st4{fill:#AEE0FF;}
	.st5{fill:#FA8D00;}
	.st6{fill:#FFDBB3;}
	.st7{fill:#00C783;}
	.st8{fill:#AEFFE0;}
	.st9{fill:#32A532;}
	.st10{fill:#89EF89;}
	.st11{fill:#D87825;}
	.st12{fill:#FFC1AE;}
</style>
<g>
	<path class="st9" d="M8.9,0C4,0,0,4,0,8.9v110.1c0,4.9,4,8.9,8.9,8.9h85.8c4.9,0,8.9-4,8.9-8.9V31.9L71.7,0H8.9z"/>
	<path class="st10" d="M80.7,31.9h22.9L71.7,0v22.9C71.7,27.9,75.7,31.9,80.7,31.9z"/>
	<g>
		<path class="st2" d="M44.1,77.9H38l-3.9-7.4c-0.1-0.3-0.3-0.8-0.5-1.5h-0.1c-0.1,0.3-0.2,0.9-0.5,1.6l-3.9,7.4H23l7.3-11.4
			l-6.6-11.4h6.2l3.3,6.8c0.3,0.5,0.5,1.2,0.7,1.9h0.1c0.1-0.4,0.4-1.1,0.7-2l3.6-6.8h5.7l-6.8,11.3L44.1,77.9z"/>
		<path class="st2" d="M60.4,77.9H46.8V55.1H52v18.6h8.4V77.9z"/>
		<path class="st2" d="M62.4,77v-5.1c0.9,0.8,1.9,1.4,3,1.7c1.1,0.4,2.2,0.6,3.3,0.6c0.6,0,1.2-0.1,1.7-0.2c0.5-0.1,0.9-0.3,1.2-0.5
			c0.3-0.2,0.6-0.4,0.7-0.7c0.2-0.3,0.2-0.6,0.2-0.9c0-0.4-0.1-0.8-0.4-1.2c-0.3-0.3-0.6-0.7-1-1c-0.4-0.3-1-0.6-1.6-0.9
			c-0.6-0.3-1.3-0.6-2-0.8c-1.8-0.7-3.1-1.6-4-2.7c-0.9-1.1-1.3-2.4-1.3-3.9c0-1.2,0.2-2.2,0.7-3.1c0.5-0.9,1.1-1.6,1.9-2.1
			c0.8-0.6,1.8-1,2.8-1.2c1.1-0.3,2.2-0.4,3.4-0.4c1.2,0,2.2,0.1,3.2,0.2c0.9,0.1,1.8,0.4,2.5,0.7v4.7c-0.4-0.3-0.8-0.5-1.2-0.7
			c-0.4-0.2-0.9-0.4-1.4-0.5c-0.5-0.1-0.9-0.2-1.4-0.3c-0.5-0.1-0.9-0.1-1.3-0.1c-0.6,0-1.1,0.1-1.6,0.2c-0.5,0.1-0.9,0.3-1.2,0.5
			c-0.3,0.2-0.6,0.4-0.8,0.7c-0.2,0.3-0.3,0.6-0.3,0.9c0,0.4,0.1,0.7,0.3,1c0.2,0.3,0.5,0.6,0.9,0.9c0.4,0.3,0.8,0.5,1.3,0.8
			c0.5,0.3,1.1,0.5,1.8,0.8c0.9,0.4,1.7,0.8,2.5,1.2c0.7,0.4,1.3,0.9,1.9,1.5c0.5,0.5,0.9,1.2,1.2,1.8c0.3,0.7,0.4,1.5,0.4,2.4
			c0,1.3-0.2,2.3-0.7,3.2c-0.5,0.9-1.1,1.6-2,2.1c-0.8,0.5-1.8,0.9-2.9,1.2c-1.1,0.2-2.3,0.3-3.5,0.3c-1.2,0-2.4-0.1-3.6-0.3
			C64.2,77.8,63.2,77.4,62.4,77z"/>
	</g>
</g>
</svg>
