<?xml version="1.0" encoding="utf-8"?>
<!-- Generator: Adobe Illustrator 27.1.1, SVG Export Plug-In . SVG Version: 6.00 Build 0)  -->
<svg version="1.1" id="Layer_1" xmlns="http://www.w3.org/2000/svg" xmlns:xlink="http://www.w3.org/1999/xlink" x="0px" y="0px"
	 width="107.4px" height="67.1px" viewBox="0 0 107.4 67.1" style="enable-background:new 0 0 107.4 67.1;" xml:space="preserve">
<style type="text/css">
	.st0{fill:#FFFFFF;}
	.st1{fill:#F4F6F9;}
	.st2{fill:#666666;}
	.st3{fill:#FFFFFF;stroke:#666666;stroke-width:1.1803;stroke-miterlimit:10;}
	.st4{fill:none;stroke:#666666;stroke-width:0.7869;stroke-linecap:round;stroke-linejoin:round;stroke-miterlimit:10;}
	.st5{fill:none;stroke:#666666;stroke-linecap:round;stroke-linejoin:round;stroke-miterlimit:10;}
	.st6{fill:none;stroke:#666666;stroke-width:1.125;stroke-linecap:round;stroke-linejoin:round;stroke-miterlimit:10;}
	.st7{fill:#FFFFFF;stroke:#666666;stroke-width:3.1475;stroke-miterlimit:10;}
	.st8{fill:none;stroke:#666666;stroke-width:2.0984;stroke-linecap:round;stroke-linejoin:round;stroke-miterlimit:10;}
	.st9{fill:none;stroke:#666666;stroke-width:2;stroke-linecap:round;stroke-linejoin:round;stroke-miterlimit:10;}
	.st10{fill:none;stroke:#666666;stroke-width:3;stroke-linecap:round;stroke-linejoin:round;stroke-miterlimit:10;}
	.st11{fill:#FFFFFF;stroke:#231F20;stroke-width:6;stroke-miterlimit:10;}
	.st12{fill:none;stroke:#231F20;stroke-width:4;stroke-linecap:round;stroke-linejoin:round;stroke-miterlimit:10;}
</style>
<circle class="st0" cx="53.8" cy="33.6" r="32"/>
<g id="Path_20760_00000132791873811910539130000010077859575529533588_">
	<path class="st1" d="M35.3,28.6l14.3-2.4l5.4-15l3.8,13.3l13.5-2.5L61.6,33.7l4.6,12.6l-11.8-7.3L37.1,56l9.1-21.3L35.3,28.6z"/>
</g>
<g>
	<path class="st2" d="M39.1,19.9c-0.3,0-0.5-0.1-0.7-0.3l-3.4-3.4c-0.4-0.4-0.4-1.1,0-1.5c0.4-0.4,1.1-0.4,1.5,0l3.4,3.4
		c0.4,0.4,0.4,1.1,0,1.5C39.6,19.8,39.3,19.9,39.1,19.9z"/>
</g>
<g>
	<path class="st2" d="M72,52.8c-0.3,0-0.5-0.1-0.7-0.3l-3.4-3.4c-0.4-0.4-0.4-1.1,0-1.5c0.4-0.4,1.1-0.4,1.5,0l3.4,3.4
		c0.4,0.4,0.4,1.1,0,1.5C72.5,52.7,72.2,52.8,72,52.8z"/>
</g>
<g>
	<path class="st2" d="M32.9,34.6h-4.9c-0.6,0-1-0.5-1-1s0.5-1,1-1h4.9c0.6,0,1,0.5,1,1S33.5,34.6,32.9,34.6z"/>
</g>
<path class="st2" d="M106.4,32.6H87.3c-0.1-1.8-0.2-3.5-0.6-5.2h10.6c0.6,0,1-0.4,1-1s-0.4-1-1-1H86.3C82.7,10.8,69.5,0,53.8,0
	c-18.2,0-33,14.5-33.5,32.6H1c-0.6,0-1,0.4-1,1s0.4,1,1,1h19.2c0.1,1.7,0.2,3.4,0.5,5H11c-0.6,0-1,0.4-1,1s0.4,1,1,1h10.2
	C24.8,56.2,38,67.1,53.8,67.1c18.2,0,33-14.5,33.5-32.6h19.1c0.6,0,1-0.4,1-1S107,32.6,106.4,32.6z M53.8,64
	C37,64,23.4,50.4,23.4,33.6S37,3.1,53.8,3.1s30.4,13.6,30.4,30.4S70.6,64,53.8,64z"/>
<g>
	<path class="st2" d="M79.5,34.6h-4.9c-0.6,0-1-0.5-1-1s0.5-1,1-1h4.9c0.6,0,1,0.5,1,1S80.1,34.6,79.5,34.6z"/>
</g>
<g>
	<path class="st2" d="M35.6,52.8c-0.3,0-0.5-0.1-0.7-0.3c-0.4-0.4-0.4-1.1,0-1.5l3.4-3.4c0.4-0.4,1.1-0.4,1.5,0
		c0.4,0.4,0.4,1.1,0,1.5l-3.4,3.4C36.2,52.7,35.9,52.8,35.6,52.8z"/>
</g>
<g>
	<path class="st2" d="M68.5,19.9c-0.3,0-0.5-0.1-0.7-0.3c-0.4-0.4-0.4-1.1,0-1.5l3.4-3.4c0.4-0.4,1.1-0.4,1.5,0
		c0.4,0.4,0.4,1.1,0,1.5l-3.4,3.4C69.1,19.8,68.8,19.9,68.5,19.9z"/>
</g>
<g>
	<path class="st2" d="M53.8,60.3c-0.6,0-1-0.5-1-1v-4.9c0-0.6,0.5-1,1-1s1,0.5,1,1v4.9C54.8,59.9,54.4,60.3,53.8,60.3z"/>
</g>
<g>
	<path class="st2" d="M53.8,13.8c-0.6,0-1-0.5-1-1V7.9c0-0.6,0.5-1,1-1s1,0.5,1,1v4.9C54.8,13.3,54.4,13.8,53.8,13.8z"/>
</g>
<path class="st2" d="M65.5,32.1H55.3v-9.4c0-0.8-0.7-1.5-1.5-1.5s-1.5,0.7-1.5,1.5v10.8c0,0.1,0,0.2,0.1,0.4
	c0.1,0.7,0.7,1.2,1.5,1.2h11.7c0.8,0,1.5-0.7,1.5-1.5S66.3,32.1,65.5,32.1z"/>
</svg>
