<?xml version="1.0" encoding="utf-8"?>
<!-- Generator: Adobe Illustrator 16.0.0, SVG Export Plug-In . SVG Version: 6.00 Build 0)  -->
<!DOCTYPE svg PUBLIC "-//W3C//DTD SVG 1.1//EN" "http://www.w3.org/Graphics/SVG/1.1/DTD/svg11.dtd">
<svg version="1.1" id="Layer_1" xmlns="http://www.w3.org/2000/svg" xmlns:xlink="http://www.w3.org/1999/xlink" x="0px" y="0px"
	 width="128px" height="128px" viewBox="-4.5 472.667 128 128" enable-background="new -4.5 472.667 128 128" xml:space="preserve">
<path fill="#FFFFFF" d="M93.127,522.307h-1.315V505.07h0.007c0-17.867-14.498-32.403-32.318-32.403s-32.318,14.536-32.318,32.403
	h0.026v17.236h-1.334c-5.375,0-9.748,4.102-9.748,9.145v60.069c0,5.045,4.373,9.146,9.748,9.146h67.253
	c5.375,0,9.747-4.102,9.747-9.146v-60.069C102.874,526.408,98.501,522.307,93.127,522.307z M64.36,567.401
	c0,2.178-2.18,3.951-4.86,3.951s-4.86-1.773-4.86-3.951v-10.986c0-2.18,2.18-3.953,4.86-3.953s4.86,1.773,4.86,3.953V567.401z
	 M83.812,504.908v17.398H35.208v-17.559H35.19c0.174-13.296,11.009-24.06,24.31-24.06c13.355,0,24.227,10.851,24.314,24.22H83.812z"
	/>
</svg>
